<?xml version="1.0" encoding="utf-8"?>
<!-- Generator: Adobe Illustrator 24.0.0, SVG Export Plug-In . SVG Version: 6.00 Build 0)  -->
<svg version="1.1" id="Layer_1" xmlns="http://www.w3.org/2000/svg" xmlns:xlink="http://www.w3.org/1999/xlink" x="0px" y="0px"
	 viewBox="0 0 119 16.28" style="enable-background:new 0 0 119 16.28;" xml:space="preserve">
<g>
	<path d="M17.12,11.76l-0.73,2.57c-1.53,1.24-4.07,1.95-6.87,1.95c-5.4,0-9.52-3.1-9.52-8.19C0,2.99,3.81,0,9.57,0
		c1.99,0,4.72,0.49,6.36,1.77l0.73,2.52L16.3,4.43c-1.22-1.82-3.83-3.12-6.53-3.12c-4.36,0-6.89,2.26-6.89,6.69
		c0,4.23,2.46,6.95,6.91,6.95c3.03,0,5.76-1.24,7.02-3.3L17.12,11.76z"/>
	<path d="M40.46,15.68v0.27h-3.25l-0.02-0.27c-0.02-0.51-0.82-2.08-2.02-4.39h-8.26c-1.09,2.02-1.75,3.28-1.79,4.39l-0.02,0.27
		h-2.52v-0.27c1.31-1.93,2.57-4.25,4.21-7.37c1.66-3.14,2.86-5.23,4.41-7.97h0.57c1.55,2.77,3.12,5.45,4.78,8.55
		C38.25,12.05,39.38,14.44,40.46,15.68 M34.51,10.05c-0.22-0.44-0.47-0.91-0.73-1.4c-0.84-1.59-1.79-3.34-2.81-5.16
		c-1.04,2.04-2.02,3.92-2.92,5.67c-0.16,0.31-0.31,0.6-0.47,0.89H34.51z"/>
	<path d="M62.74,0.33V0.6c-0.22,0.58-0.31,1.2-0.38,2.15c-0.09,1.33-0.11,3.08-0.11,5.4c0,1.97,0.04,6.67,0.09,7.91H61.8
		c-0.64-0.69-5.47-5.69-7.15-7.44c-1.86-1.93-3.92-4.23-5.45-5.76v5.27c0,2.33-0.02,4.01,0.11,5.34c0.07,0.95,0.13,1.64,0.47,2.21
		v0.27h-2.5v-0.27c0.2-0.58,0.31-1.24,0.35-2.21c0.07-1.31,0.11-2.99,0.11-5.34v-6.6c-0.55-0.42-1-0.6-1.62-0.78V0.33h3.95
		c1.88,2.21,4.05,4.47,6.58,7.09c1.71,1.77,3.5,3.64,4.5,4.7l-0.29,0.52V8.15c0-2.35-0.04-4.1-0.11-5.4
		c-0.07-0.97-0.18-1.57-0.49-2.15V0.33H62.74z"/>
	<path d="M85.13,12.45c-0.49,1.2-0.93,2.35-1.26,3.54c-3.79-0.04-7.82-0.09-11.6-0.04v-0.27c0.42-0.82,0.46-3.43,0.46-7.55
		c0-4.52-0.07-6.82-0.46-7.53V0.33h3.23V0.6c-0.44,0.75-0.51,3.01-0.51,7.53c0,3.08,0.04,5.27,0.13,6.58h3.92
		c3.3-0.02,4.3-0.6,5.69-2.39L85.13,12.45z"/>
	<path d="M94.84,0.33V0.6c-0.42,0.86-0.49,2.97-0.49,7.35c0,4.5,0.07,6.87,0.49,7.73v0.27h-3.09v-0.27c0.4-0.86,0.46-3.23,0.46-7.73
		c0-4.39-0.07-6.49-0.46-7.35V0.33H94.84z"/>
	<path d="M119,11.45c0,3.19-2.68,4.83-7.2,4.83c-2.97,0-5.8-0.8-7.2-1.99l-0.64-2.68l0.4-0.11c1.73,2.3,4.03,3.54,7.55,3.54
		c3.03,0,5.09-1.06,5.09-2.95c0-1.37-0.73-2.16-5.09-2.8c-4.38-0.66-7.42-1.61-7.42-4.78c0-2.95,2.57-4.52,6.78-4.52
		c2.61,0,4.89,0.58,6.27,1.64l0.73,2.35l-0.38,0.13c-1.37-1.59-3.26-2.88-6.64-2.88c-3.13,0-4.83,0.99-4.83,2.74
		c0,1.94,2.04,2.58,5.89,3.16C116.85,7.8,119,8.61,119,11.45"/>
</g>
</svg>
