<?xml version="1.0" encoding="UTF-8" standalone="no"?>
<svg width="214px" height="18px" viewBox="0 0 214 18" version="1.1" xmlns="http://www.w3.org/2000/svg" xmlns:xlink="http://www.w3.org/1999/xlink">
    <!-- Generator: Sketch 40.3 (33839) - http://www.bohemiancoding.com/sketch -->
    <title>Page 1</title>
    <desc>Created with Sketch.</desc>
    <defs>
        <polygon id="path-1" points="2.65670914e-19 0.544707328 2.65670914e-19 16.6298333 13.5981481 16.6298333 13.5981481 0.544707328 0 0.544707328"></polygon>
    </defs>
    <g id="Playground" stroke="none" stroke-width="1" fill="none" fill-rule="evenodd">
        <g id="menu_desktop-copy-6" transform="translate(-955.000000, -5210.000000)">
            <g id="Page-1" transform="translate(955.000000, 5210.000000)">
                <path d="M61.0164641,16.5846667 C59.2995634,16.5846667 57.8293344,15.918 57.3376244,15.1813333 C56.8377466,14.4296667 56.9177924,13.303 56.7119603,13.303 L56.3198992,13.303 L56.3198992,17.0563333 C58.4648,17.578 61.0654718,17.8896667 63.1041893,16.9496667 C64.4339298,16.3213333 67.2927084,13.6346667 65.6084794,10.2963333 C64.0189985,7.138 57.8995786,9.08133333 57.8995786,4.77133333 C57.8995786,1.99466667 61.2468,1.60133333 63.0551817,2.32633333 C64.1464183,2.808 64.0189985,3.978 64.3065099,4.56633333 C64.3947237,4.778 64.5009069,4.76133333 64.6887695,4.77133333 C64.8929679,3.72966667 65.0089527,2.743 65.1706779,1.633 C62.586342,0.624666667 58.5660824,0.448 56.9815023,3.26466667 C56.4211817,4.35466667 56.0797618,5.73466667 56.5240977,7.008 C57.8995786,10.4446667 62.7398992,9.21133333 64.0026626,11.708 C64.9762809,13.638 63.6040672,16.5846667 61.0164641,16.5846667" id="Fill-1" fill="#010202"></path>
                <g id="Group-5" transform="translate(0.000000, 0.573000)">
                    <mask id="mask-2" fill="white">
                        <use xlink:href="#path-1"></use>
                    </mask>
                    <g id="Clip-4"></g>
                    <path d="M5.34036183,16.2265 C4.52356794,16.0798333 3.61529313,16.0215 3.61529313,15.3448333 C3.61529313,15.3448333 3.61856031,2.39483333 3.61529313,2.01483333 C3.61202595,1.62983333 7.28759847,1.22316667 8.48338473,2.48983333 C9.4374,3.5015 9.3704229,4.96316667 8.68431603,6.11316667 C8.05538473,7.16983333 6.46917099,7.9615 4.51376641,8.05316667 C6.65866718,11.1481667 7.98514046,13.0298333 10.7393695,16.6298333 L13.5981481,16.6298333 L13.5981481,16.1915 L13.0655985,16.0115 C11.4695832,14.8881667 9.05514046,11.3431667 6.9494458,8.5765 C6.9494458,8.5765 9.14988855,7.89316667 10.2051863,6.68816667 C11.5528962,5.14316667 11.3029573,3.29316667 10.8292168,2.48316667 C8.83133893,-0.925166667 3.98121679,1.32483333 -0.00147022901,0.738166667 L-0.00147022901,1.17816667 C0.602957252,1.25983333 1.71379695,1.32483333 1.73830076,2.02983333 L1.73830076,15.3448333 C1.73830076,16.0215 0.63399542,16.0998333 0.00506412214,16.1715 L0.00506412214,16.6298333 L5.34036183,16.6298333 L5.34036183,16.2265 Z" id="Fill-3" fill="#010202" mask="url(#mask-2)"></path>
                </g>
                <path d="M21.4976885,2.571 C22.613429,2.796 22.7637191,3.42433333 22.7637191,4.111 L23.2456275,4.111 L23.2456275,1.59766667 C23.2456275,1.37266667 22.9875206,1.28766667 22.9875206,1.28766667 C19.8052916,1.266 16.6802382,1.571 13.5176122,1.29766667 L13.5176122,1.761 C14.0289252,1.826 15.2214443,1.861 15.2214443,2.54766667 L15.2214443,15.9176667 C15.2214443,16.3076667 14.6300855,16.7643333 14.0975359,16.7443333 L14.0975359,17.2026667 C16.9530473,17.1026667 20.3362076,17.0043333 23.144345,17.3176667 C24.1130626,17.3826667 23.8582229,15.6243333 23.9072305,14.0626667 L23.4890321,14.0626667 C23.3126046,14.941 23.2832,15.526 22.2246351,15.8226667 C21.1628031,16.106 18.4984214,16.1743333 17.1441771,15.7193333 L17.1441771,9.511 L21.5352611,9.511 C22.1347878,9.511 22.3259176,10.3543333 22.4647725,10.7993333 L22.8372305,10.7993333 C22.8372305,10.7993333 22.7065435,9.606 22.7065435,8.896 C22.7065435,8.17266667 22.8372305,6.84766667 22.8372305,6.84766667 L22.4647725,6.84766667 C22.3259176,7.261 22.1347878,8.186 21.5352611,8.186 L17.1539786,8.186 L17.1539786,2.571 C17.1539786,2.571 20.3803145,2.35266667 21.4976885,2.571" id="Fill-6" fill="#010202"></path>
                <path d="M54.3274122,1.76366667 L54.3274122,1.312 L48.9757786,1.312 L48.9757786,1.76366667 C49.6373817,1.87033333 50.5570916,1.76366667 50.7090153,2.60366667 L50.7090153,15.917 C50.5570916,16.7503333 49.6373817,16.647 48.9757786,16.7436667 L48.9757786,17.2153333 L54.3274122,17.2153333 L54.3274122,16.7436667 C53.662542,16.647 52.7460992,16.7503333 52.592542,15.917 L52.592542,2.60366667 C52.7460992,1.76366667 53.662542,1.87033333 54.3274122,1.76366667" id="Fill-8" fill="#010202"></path>
                <path d="M38.0121176,8.9285 C38.7586672,7.32016667 39.4088351,5.91016667 40.328545,4.04183333 C40.9378733,5.5435 41.4998275,7.06683333 42.1450947,8.9285 L38.0121176,8.9285 Z M44.1282702,16.8218333 L44.1282702,17.2035 L48.2726824,17.2035 L48.2726824,16.7968333 C47.846316,16.7635 47.4950947,16.5951667 47.2337206,16.1151667 C46.5051405,14.5801667 43.2543008,6.4185 40.9754458,0.666833333 L34.1258122,14.2468333 C33.5393542,15.2051667 33.2044687,15.9168333 32.288026,15.9401667 C32.288026,15.9401667 30.1529267,15.9168333 29.8539802,15.9168333 C29.5534,15.9168333 29.0649573,15.9168333 29.0649573,15.6635 L29.0649573,2.6035 C29.0649573,1.89683333 30.0810489,1.8485 30.8292321,1.75683333 L30.8292321,1.31183333 L25.9333695,1.31183333 L25.9333695,1.8035 C26.3450336,1.8685 27.1994,2.03016667 27.1994,2.6035 L27.1994,15.9168333 C27.0491099,16.4385 26.6374458,16.5951667 25.9366366,16.7635 L25.9366366,17.2168333 L35.6058427,17.2035 L35.6058427,16.7635 C35.6058427,16.7635 34.4165908,16.6635 34.7253389,15.9101667 C34.986713,15.2851667 36.1383924,12.5351667 37.229629,10.2951667 L42.738087,10.2951667 L44.9254611,16.0151667 C45.0708504,16.4385 44.5432015,16.7635 44.1282702,16.8218333 L44.1282702,16.8218333 Z" id="Fill-10" fill="#010202"></path>
                <path d="M78.0750412,6.67666667 C77.2958198,5.97666667 76.7224305,3.14833333 78.4376977,2.57 C79.1189038,2.27166667 80.0402473,2.79 80.117026,3.40333333 C80.2640489,4.28333333 79.8164458,5.19166667 79.2659267,5.71 L78.0750412,6.67666667 Z M82.5200336,15.32 C81.6476977,16.5166667 79.7118962,16.3116667 78.3854229,16.0483333 C77.1079573,15.6833333 75.7324763,14.5633333 75.1688885,13.3433333 C74.2687817,11.1466667 76.6995603,8.92333333 76.6995603,8.92333333 C78.5373466,10.945 80.219942,13.3916667 82.5200336,15.32 L82.5200336,15.32 Z M81.634629,2.62 C81.3552855,1.775 79.6285832,1.19166667 79.197316,1.36666667 C77.9753924,1.89166667 76.6995603,2.82833333 75.9840489,4.075 C75.4171939,5.29333333 75.9840489,6.89166667 76.4447206,8.08333333 C75.373087,9.17333333 74.041713,10.0616667 73.4846595,11.465 C72.4179267,14.3683333 74.6641099,17.0316667 76.9805374,17.6883333 C79.0225221,18.3633333 81.0351023,17.35 82.5674076,16.2566667 C82.8777893,16.065 82.9790718,15.96 83.1669344,15.8666667 C83.4871176,16.065 84.3774229,16.68 85.4261863,17.1916667 C87.2198656,18.1733333 88.2718962,16.6416667 89.3059573,16.0483333 L89.3059573,15.7916667 C87.5188122,16.5633333 85.7855756,15.32 84.5064763,14.2783333 C85.2432244,13.2016667 85.8345832,11.575 85.9914076,9.955 L88.7178656,10.0616667 L88.8469191,8.86666667 L82.9790718,8.86666667 L82.2096519,9.85333333 C83.077087,9.75333333 84.0474382,10.3233333 84.4051939,11.2083333 C84.6976061,12.26 84.4754382,13.2016667 83.8955145,13.9133333 C81.8600641,12.2883333 79.689026,10.17 78.2792397,7.51333333 C79.605713,6.055 82.2096519,4.90666667 81.634629,2.62 L81.634629,2.62 Z" id="Fill-12" fill="#010202"></path>
                <path d="M193.45502,12.9453333 L193.45502,2.58366667 C193.60531,1.75033333 194.279982,1.85533333 194.944852,1.75033333 L194.944852,1.292 L190.820043,1.292 L190.820043,1.75033333 C191.483279,1.85533333 192.167753,1.75033333 192.322944,2.58366667 L192.322944,12.6853333 C192.322944,15.322 190.48189,16.4903333 187.5496,16.4903333 C185.187432,16.4903333 183.134012,15.347 183.134012,12.7503333 L183.134012,2.58366667 C183.282669,1.75033333 183.913234,1.85533333 184.574837,1.75033333 L184.574837,1.292 L179.803127,1.292 L179.803127,1.75033333 C180.466363,1.85533333 181.199844,1.75033333 181.353402,2.58366667 L181.353402,13.0403333 C181.353402,15.192 182.348256,17.532 187.159173,17.532 C192.012562,17.532 193.45502,15.1586667 193.45502,12.9453333" id="Fill-14" fill="#010202"></path>
                <path d="M132.264089,8.93816667 C133.012272,7.3265 133.66244,5.9115 134.58215,4.04816667 C135.189844,5.55316667 135.753432,7.0765 136.400333,8.93816667 L132.264089,8.93816667 Z M138.308363,16.8315 L138.308363,17.2131667 L142.536089,17.2131667 L142.536089,16.8098333 C142.104821,16.7765 141.755234,16.6115 141.492226,16.1248333 C140.765279,14.5981667 137.511173,6.4215 135.238852,0.6665 L128.390852,14.2665 C127.763554,15.3215 127.340455,16.7181667 126.424012,16.7481667 C125.690531,16.7481667 124.844333,16.7498333 124.690776,15.9198333 L124.690776,2.59316667 C124.844333,1.75983333 125.760776,1.86483333 126.424012,1.75983333 L126.424012,1.30483333 L121.069111,1.30483333 L121.069111,1.75983333 C121.733982,1.86483333 122.655325,1.75983333 122.810516,2.59316667 L122.810516,8.02316667 L113.84702,8.02316667 L113.84702,2.59316667 C114.000577,1.75983333 114.918653,1.86483333 115.578623,1.75983333 L115.578623,1.30483333 L110.228623,1.30483333 L110.228623,1.75983333 C110.890226,1.86483333 111.808302,1.75983333 111.96186,2.59316667 L111.96186,15.9198333 C111.808302,16.7498333 110.890226,16.6431667 110.228623,16.7481667 L110.228623,17.2131667 L115.578623,17.2131667 L115.578623,16.7481667 C114.918653,16.6431667 114.000577,16.7498333 113.84702,15.9198333 L113.84702,9.15316667 L122.810516,9.15316667 L122.810516,15.9198333 C122.655325,16.7498333 121.733982,16.6431667 121.069111,16.7481667 L121.069111,17.2131667 L129.867615,17.2131667 L129.867615,16.7765 C129.867615,16.7765 128.679997,16.6798333 128.988745,15.9231667 C129.245218,15.3048333 130.395264,12.5448333 131.489768,10.2981667 L137.006394,10.2981667 L139.105554,16.0281667 C139.255844,16.4481667 138.724928,16.7765 138.308363,16.8315 L138.308363,16.8315 Z" id="Fill-16" fill="#010202"></path>
                <path d="M172.234388,4.04883333 C172.835548,5.55216667 173.402403,7.0755 174.049304,8.93883333 L169.914693,8.93883333 C170.661243,7.32716667 171.313044,5.9105 172.234388,4.04883333 L172.234388,4.04883333 Z M167.506785,16.7771667 C167.506785,16.7771667 166.319166,16.6788333 166.629548,15.9238333 C166.890922,15.3055 168.042602,12.5455 169.133838,10.2988333 L174.650464,10.2988333 L176.76106,16.0271667 C176.908082,16.4471667 176.373899,16.7771667 175.963869,16.8321667 L175.963869,17.2121667 L180.176892,17.2121667 L180.176892,16.8088333 C179.748892,16.7771667 179.39767,16.6105 179.133029,16.1255 C178.406082,14.5988333 175.156876,6.42216667 172.881289,0.667166667 L166.034922,14.2671667 C165.44193,15.2171667 165.183823,15.8255 164.188968,15.9538333 C162.793884,16.1255 159.092174,16.1905 157.736296,15.7355 L157.736296,9.5205 L162.130647,9.5205 C162.726907,9.5205 162.921304,10.3638333 163.061792,10.8105 L163.430983,10.8105 C163.430983,10.8105 163.300296,9.6155 163.300296,8.89883333 C163.300296,8.18216667 163.430983,6.85883333 163.430983,6.85883333 L163.061792,6.85883333 C162.921304,7.2755 162.726907,8.19216667 162.130647,8.19216667 L157.752632,8.19216667 L157.752632,2.58383333 C157.752632,2.58383333 160.972434,2.35216667 162.094708,2.58383333 C163.208815,2.79883333 163.359105,3.4305 163.359105,4.11716667 L163.83938,4.11716667 L163.83938,1.6105 C163.83938,1.38216667 163.581273,1.29216667 163.581273,1.29216667 C160.397411,1.27883333 157.270724,1.5755 154.114632,1.29883333 L154.114632,1.76716667 C154.625945,1.82883333 155.816831,1.8705 155.816831,2.5555 L155.816831,15.9338333 C155.816831,16.3171667 155.225472,16.7771667 154.686388,16.7571667 L154.686388,17.2121667 C157.548434,17.1055 160.815609,17.1021667 163.738098,17.2121667 L167.506785,17.2121667 L167.506785,16.7771667 Z" id="Fill-18" fill="#010202"></path>
                <path d="M107.107817,2.35283333 C108.282366,2.72116667 107.509679,4.39116667 108.530672,4.7545 C108.720168,4.83616667 108.782244,4.7545 108.782244,4.7545 L108.842687,1.6295 C104.449969,0.432833333 98.7356794,0.591166667 96.0810992,5.0195 C94.4001374,7.8995 94.7529924,12.4111667 97.0008092,14.8528333 C99.6553893,17.8145 103.968061,17.9811667 107.669771,16.9878333 C108.339542,16.8095 108.537206,16.3078333 108.638489,15.7961667 C106.712489,16.3861667 105.020092,16.9461667 102.666092,16.5228333 C100.202641,16.0678333 98.2897099,13.9478333 97.5611298,11.7311667 C96.644687,9.0195 96.9812061,5.6445 98.9398779,3.50116667 C101.083145,1.42116667 104.449969,1.47116667 107.107817,2.35283333" id="Fill-20" fill="#010202"></path>
                <path d="M147.94114,15.9206667 L147.94114,2.53233333 C147.94114,2.53233333 148.659919,2.41733333 151.796408,2.53233333 C152.520087,2.57733333 152.936652,2.949 153.126148,3.71733333 L153.528011,3.71733333 L153.426728,1.164 C151.361873,1.314 149.1794,1.37233333 147.031232,1.37233333 C144.887965,1.37233333 142.705492,1.314 140.640637,1.164 L140.539354,3.71733333 L140.941217,3.71733333 C141.135614,2.949 141.547278,2.57733333 142.269324,2.53233333 C145.405812,2.41733333 146.127858,2.53233333 146.127858,2.53233333 L146.127858,15.9206667 C145.975934,16.7506667 145.052957,16.644 144.392988,16.7473333 L144.392988,17.2123333 L149.674377,17.2123333 L149.674377,16.7473333 C149.009507,16.644 148.094698,16.7506667 147.94114,15.9206667" id="Fill-22" fill="#010202"></path>
                <path d="M207.707583,16.5651667 C205.441797,13.0068333 204.580896,11.6068333 202.860728,8.55016667 C204.3914,6.24016667 205.632927,4.25016667 207.402102,1.83183333 C207.547492,1.55183333 208.441064,1.8485 208.062072,1.29516667 L206.118102,1.29516667 C204.775293,3.49183333 203.525598,5.58516667 202.099476,7.43183333 C201.205904,5.8985 200.487125,4.1335 199.408957,2.3985 C198.799629,1.43516667 197.504194,0.885166667 195.841202,1.31516667 L195.762789,1.75683333 C196.256133,1.80683333 196.604087,1.8485 197.340835,2.76016667 C198.360194,4.12016667 199.707904,6.68516667 201.07195,9.2285 C199.2554,12.0601667 197.443751,14.5435 195.458942,17.3468333 L196.839324,17.3468333 C198.487614,14.8951667 199.954576,12.5768333 201.635537,10.3701667 C203.215217,12.6068333 204.3914,14.9535 205.869797,17.2918333 L208.423095,17.2918333 C208.664866,16.6535 208.089843,17.0735 207.707583,16.5651667" id="Fill-24" fill="#010202"></path>
                <path d="M209.775052,15.3411667 C209.775052,14.3711667 210.551006,13.5795 211.501754,13.5795 C212.452502,13.5795 213.226823,14.3711667 213.226823,15.3411667 C213.226823,16.3078333 212.452502,17.0995 211.501754,17.0995 C210.551006,17.0995 209.775052,16.3078333 209.775052,15.3411667 M209.557785,15.3411667 C209.557785,16.4311667 210.428487,17.3195 211.501754,17.3195 C212.573388,17.3195 213.44409,16.4311667 213.44409,15.3411667 C213.44409,14.2478333 212.573388,13.3595 211.501754,13.3595 C210.428487,13.3595 209.557785,14.2478333 209.557785,15.3411667" id="Fill-26" fill="#010202"></path>
                <path d="M210.947641,15.569 L211.690924,15.569 C212.056847,15.569 212.09442,15.7873333 212.09442,15.979 C212.09442,16.0673333 212.104221,16.4223333 212.148328,16.559 L212.525687,16.559 L212.525687,16.509 C212.429305,16.454 212.412969,16.4056667 212.411336,16.2756667 L212.391733,15.8556667 C212.377031,15.534 212.249611,15.474 212.120557,15.4223333 C212.26758,15.334 212.437473,15.2106667 212.437473,14.869 C212.437473,14.3773333 212.063382,14.2473333 211.690924,14.2473333 L210.640527,14.2473333 L210.640527,16.559 L210.947641,16.559 L210.947641,15.569 Z M210.947641,14.514 L211.71216,14.514 C211.86245,14.514 212.120557,14.544 212.120557,14.899 C212.120557,15.2406667 211.882053,15.299 211.658252,15.299 L210.947641,15.299 L210.947641,14.514 Z" id="Fill-28" fill="#010202"></path>
            </g>
        </g>
    </g>
</svg>