<?xml version="1.0" encoding="UTF-8" standalone="no"?>
<svg width="195px" height="195px" viewBox="0 0 195 195" version="1.1" xmlns="http://www.w3.org/2000/svg" xmlns:xlink="http://www.w3.org/1999/xlink">
    <!-- Generator: Sketch 40.3 (33839) - http://www.bohemiancoding.com/sketch -->
    <title>socialicon_insta</title>
    <desc>Created with Sketch.</desc>
    <defs>
        <circle id="path-1" cx="97.5" cy="97.5" r="97.5"></circle>
        <mask id="mask-2" maskContentUnits="userSpaceOnUse" maskUnits="objectBoundingBox" x="0" y="0" width="195" height="195" fill="white">
            <use xlink:href="#path-1"></use>
        </mask>
    </defs>
    <g id="Page-1" stroke="none" stroke-width="1" fill="none" fill-rule="evenodd">
        <g id="socialicon_insta">
            <g id="Group">
                <use id="Oval" stroke="#000000" mask="url(#mask-2)" stroke-width="22" xlink:href="#path-1"></use>
                <g id="Page-1" transform="translate(39.000000, 38.000000)" fill="#000000">
                    <g id="Group-3" transform="translate(0.000000, 0.194044)">
                        <path d="M58.4815446,0.0367091016 C42.5990268,0.0367091016 40.6072411,0.103620726 34.3697946,0.386495387 C28.1448839,0.668677858 23.8938839,1.65135582 20.1737946,3.08834064 C16.3283482,4.57354797 13.0667411,6.56105395 9.81558036,9.79242395 C6.5641875,13.0240247 4.56474107,16.2655468 3.07020536,20.0875849 C1.62441964,23.785029 0.635955357,28.010152 0.3518125,34.19717 C0.0672053571,40.3968781 0.000116071429,42.3760778 0.000116071429,58.1621451 C0.000116071429,73.9482124 0.0672053571,75.9276429 0.3518125,82.127351 C0.635955357,88.3141382 1.62441964,92.5394919 3.07020536,96.2367053 C4.56474107,100.058743 6.5641875,103.300496 9.81558036,106.531866 C13.0667411,109.763467 16.3283482,111.750742 20.1737946,113.236411 C23.8938839,114.673165 28.1448839,115.655843 34.3697946,115.938256 C40.6072411,116.2209 42.5990268,116.287812 58.4815446,116.287812 C74.3642946,116.287812 76.3556161,116.2209 82.5932946,115.938256 C88.8182054,115.655843 93.0692054,114.673165 96.7892946,113.236411 C100.634973,111.750742 103.896348,109.763467 107.147509,106.531866 C110.398902,103.300496 112.398348,100.058974 113.892884,96.2367053 C115.33867,92.5394919 116.327366,88.3141382 116.611277,82.127351 C116.895884,75.9276429 116.963205,73.9482124 116.963205,58.1621451 C116.963205,42.3763085 116.895884,40.3968781 116.611277,34.19717 C116.327366,28.010152 115.33867,23.785029 113.892884,20.0875849 C112.398348,16.2655468 110.398902,13.0240247 107.147509,9.79242395 C103.896348,6.56105395 100.634973,4.57354797 96.7892946,3.08834064 C93.0692054,1.65135582 88.8182054,0.668677858 82.5932946,0.386495387 C76.3556161,0.103620726 74.3642946,0.0367091016 58.4815446,0.0367091016 M58.4815446,10.5097627 C74.0968661,10.5097627 75.9463482,10.5688295 82.1129911,10.848474 C87.8148839,11.107122 90.9114375,12.0540369 92.9721696,12.8500545 C95.7019375,13.9044894 97.6503125,15.164043 99.6966518,17.1979257 C101.742991,19.2320391 103.010259,21.168323 104.071384,23.881474 C104.872045,25.9296619 105.824759,29.0073659 106.084991,34.6745498 C106.366116,40.8036546 106.425777,42.6421092 106.425777,58.1621451 C106.425777,73.6824118 106.366116,75.5208663 106.084991,81.6497404 C105.824759,87.317155 104.872045,90.394859 104.071384,92.4430469 C103.010259,95.1559672 101.742991,97.0924819 99.6966518,99.1263645 C97.6503125,101.160478 95.7019375,102.420032 92.9721696,103.474466 C90.9114375,104.270253 87.8148839,105.217399 82.1129911,105.475816 C75.9472768,105.755461 74.0980268,105.814758 58.4815446,105.814758 C42.8650625,105.814758 41.0158125,105.755461 34.8500982,105.475816 C29.1482054,105.217399 26.0514196,104.270253 23.9906875,103.474466 C21.2611518,102.420032 19.3127768,101.160478 17.2664375,99.1263645 C15.2200982,97.0924819 13.9525982,95.1559672 12.8917054,92.4430469 C12.0910446,90.394859 11.1383304,87.317155 10.8780982,81.6499711 C10.5967411,75.5208663 10.5373125,73.6824118 10.5373125,58.1621451 C10.5373125,42.6421092 10.5967411,40.8036546 10.8780982,34.6745498 C11.1383304,29.0073659 12.0910446,25.9296619 12.8917054,23.881474 C13.9525982,21.168323 15.2200982,19.2320391 17.2664375,17.1981564 C19.3127768,15.164043 21.2611518,13.9044894 23.9906875,12.8500545 C26.0514196,12.0540369 29.1482054,11.107122 34.8498661,10.848474 C41.0167411,10.5688295 42.8662232,10.5097627 58.4815446,10.5097627" id="Fill-1"></path>
                    </g>
                    <path d="M58.4815446,77.731488 C47.7154554,77.731488 38.9875804,69.056742 38.9875804,58.3561888 C38.9875804,47.6556357 47.7154554,38.9811204 58.4815446,38.9811204 C69.2476339,38.9811204 77.9755089,47.6556357 77.9755089,58.3561888 C77.9755089,69.056742 69.2476339,77.731488 58.4815446,77.731488 M58.4815446,28.5080668 C41.8958661,28.5080668 28.4503839,41.8714718 28.4503839,58.3561888 C28.4503839,74.8411365 41.8958661,88.2045416 58.4815446,88.2045416 C75.0672232,88.2045416 88.5124732,74.8411365 88.5124732,58.3561888 C88.5124732,41.8714718 75.0672232,28.5080668 58.4815446,28.5080668" id="Fill-4"></path>
                    <path d="M96.7168893,27.3287609 C96.7168893,31.1810247 93.5750679,34.303721 89.6992107,34.303721 C85.8233536,34.303721 82.6813,31.1810247 82.6813,27.3287609 C82.6813,23.4764972 85.8233536,20.3538009 89.6992107,20.3538009 C93.5750679,20.3538009 96.7168893,23.4764972 96.7168893,27.3287609" id="Fill-6"></path>
                </g>
            </g>
        </g>
    </g>
</svg>