<?xml version="1.0" encoding="UTF-8" standalone="no"?>
<svg width="195px" height="195px" viewBox="0 0 195 195" version="1.1" xmlns="http://www.w3.org/2000/svg" xmlns:xlink="http://www.w3.org/1999/xlink">
    <!-- Generator: Sketch 40.3 (33839) - http://www.bohemiancoding.com/sketch -->
    <title>socialicon_insta copy</title>
    <desc>Created with Sketch.</desc>
    <defs></defs>
    <g id="Exports" stroke="none" stroke-width="1" fill="none" fill-rule="evenodd">
        <g id="socialicon_insta-copy" fill="#000000">
            <g id="Group" transform="translate(23.000000, 23.000000)">
                <g id="Page-1">
                    <g id="Group-3" transform="translate(0.000000, 0.248310)">
                        <path d="M74.9763393,0.0469752063 C54.6141369,0.0469752063 52.0605655,0.132599404 44.0638393,0.49458308 C36.0831845,0.855680988 30.6331845,2.11317567 25.8638393,3.95202912 C20.9337798,5.85259105 16.7522321,8.39592497 12.5840774,12.5309832 C8.415625,16.6663367 5.85223214,20.8143862 3.93616071,25.7052994 C2.08258929,30.4367744 0.815327381,35.8434996 0.451041667,43.7607853 C0.0861607143,51.6943101 0.000148809524,54.2270148 0.000148809524,74.4278298 C0.000148809524,94.6286447 0.0861607143,97.1616447 0.451041667,105.095169 C0.815327381,113.01216 2.08258929,118.41918 3.93616071,123.15036 C5.85223214,128.041273 8.415625,132.189618 12.5840774,136.324676 C16.7522321,140.46003 20.9337798,143.003068 25.8638393,144.904221 C30.6331845,146.742779 36.0831845,148.000274 44.0638393,148.361667 C52.0605655,148.723355 54.6141369,148.80898 74.9763393,148.80898 C95.3388393,148.80898 97.8918155,148.723355 105.888839,148.361667 C113.869494,148.000274 119.319494,146.742779 124.088839,144.904221 C129.019196,143.003068 133.200446,140.46003 137.368601,136.324676 C141.537054,132.189618 144.100446,128.041569 146.016518,123.15036 C147.870089,118.41918 149.137649,113.01216 149.501637,105.095169 C149.866518,97.1616447 149.952827,94.6286447 149.952827,74.4278298 C149.952827,54.22731 149.866518,51.6943101 149.501637,43.7607853 C149.137649,35.8434996 147.870089,30.4367744 146.016518,25.7052994 C144.100446,20.8143862 141.537054,16.6663367 137.368601,12.5309832 C133.200446,8.39592497 129.019196,5.85259105 124.088839,3.95202912 C119.319494,2.11317567 113.869494,0.855680988 105.888839,0.49458308 C97.8918155,0.132599404 95.3388393,0.0469752063 74.9763393,0.0469752063 M74.9763393,13.4489336 C94.9959821,13.4489336 97.3671131,13.5245191 105.273065,13.8823692 C112.583185,14.213351 116.553125,15.4250811 119.195089,16.4437138 C122.694792,17.793033 125.192708,19.4048347 127.81622,22.0075151 C130.439732,24.6104907 132.064435,27.0882778 133.424851,30.5601914 C134.451339,33.1811776 135.672768,37.1195954 136.006399,44.3716697 C136.366815,52.2148462 136.443304,54.5674448 136.443304,74.4278298 C136.443304,94.28851 136.366815,96.6411086 136.006399,104.48399 C135.672768,111.736359 134.451339,115.674777 133.424851,118.295763 C132.064435,121.767382 130.439732,124.245464 127.81622,126.848144 C125.192708,129.45112 122.694792,131.062922 119.195089,132.412241 C116.553125,133.430578 112.583185,134.642604 105.273065,134.97329 C97.3683036,135.33114 94.9974702,135.407021 74.9763393,135.407021 C54.9552083,135.407021 52.584375,135.33114 44.6796131,134.97329 C37.369494,134.642604 33.399256,133.430578 30.7572917,132.412241 C27.2578869,131.062922 24.7599702,129.45112 22.1364583,126.848144 C19.5129464,124.245464 17.8879464,121.767382 16.5278274,118.295763 C15.5013393,115.674777 14.2799107,111.736359 13.9462798,104.484285 C13.5855655,96.6411086 13.509375,94.28851 13.509375,74.4278298 C13.509375,54.5674448 13.5855655,52.2148462 13.9462798,44.3716697 C14.2799107,37.1195954 15.5013393,33.1811776 16.5278274,30.5601914 C17.8879464,27.0882778 19.5129464,24.6104907 22.1364583,22.0078103 C24.7599702,19.4048347 27.2578869,17.793033 30.7572917,16.4437138 C33.399256,15.4250811 37.369494,14.213351 44.6793155,13.8823692 C52.5855655,13.5245191 54.9566964,13.4489336 74.9763393,13.4489336" id="Fill-1"></path>
                    </g>
                    <path d="M74.9763393,99.469955 C61.1736607,99.469955 49.9840774,88.3692206 49.9840774,74.6761399 C49.9840774,60.9830592 61.1736607,49.8826202 74.9763393,49.8826202 C88.7790179,49.8826202 99.9686012,60.9830592 99.9686012,74.6761399 C99.9686012,88.3692206 88.7790179,99.469955 74.9763393,99.469955 M74.9763393,36.4806617 C53.7126488,36.4806617 36.4748512,53.5812902 36.4748512,74.6761399 C36.4748512,95.7712849 53.7126488,112.871913 74.9763393,112.871913 C96.2400298,112.871913 113.47753,95.7712849 113.47753,74.6761399 C113.47753,53.5812902 96.2400298,36.4806617 74.9763393,36.4806617" id="Fill-4"></path>
                    <path d="M123.996012,34.97155 C123.996012,39.9011417 119.968036,43.8971345 114.998988,43.8971345 C110.02994,43.8971345 106.001667,39.9011417 106.001667,34.97155 C106.001667,30.0419583 110.02994,26.0459656 114.998988,26.0459656 C119.968036,26.0459656 123.996012,30.0419583 123.996012,34.97155" id="Fill-6"></path>
                </g>
            </g>
        </g>
    </g>
</svg>