<?xml version="1.0" encoding="UTF-8"?>
<svg width="435px" height="435px" viewBox="0 0 435 435" version="1.1" xmlns="http://www.w3.org/2000/svg" xmlns:xlink="http://www.w3.org/1999/xlink">
    <title>Shape</title>
    <g id="Page-1" stroke="none" stroke-width="1" fill="none" fill-rule="evenodd">
        <polygon id="Shape" fill="#F9A31A" fill-rule="nonzero" points="217.5 435 195.228 415.193 169.108667 429.606 151.786 405.308833 123.095333 413.506167 111.654833 385.956167 81.8766667 387.551167 76.8403333 358.1645 47.4536667 353.128167 49.0486667 323.35 21.4986667 311.9095 29.696 283.218833 5.39883333 265.896167 19.8118333 239.776833 0 217.5 19.807 195.228 5.394 169.108667 29.696 151.786 21.4986667 123.095333 49.0486667 111.654833 47.4536667 81.8766667 76.8403333 76.8403333 81.8766667 47.4536667 111.654833 49.0486667 123.095333 21.4986667 151.786 29.696 169.108667 5.39883333 195.228 19.8118333 217.5 0 239.772 19.807 265.891333 5.394 283.214 29.6911667 311.904667 21.4938333 323.345167 49.0438333 353.123333 47.4488333 358.159667 76.8355 387.546333 81.8718333 385.951333 111.65 413.501333 123.0905 405.304 151.781167 429.601167 169.103833 415.188167 195.223167 435 217.5 415.193 239.772 429.606 265.891333 405.308833 283.214 413.506167 311.904667 385.956167 323.345167 387.551167 353.123333 358.1645 358.159667 353.128167 387.546333 323.35 385.951333 311.9095 413.501333 283.218833 405.304 265.896167 429.601167 239.776833 415.188167"></polygon>
    </g>
</svg>
