<?xml version="1.0" encoding="UTF-8"?>
<svg width="229px" height="133px" viewBox="0 0 229 133" version="1.1" xmlns="http://www.w3.org/2000/svg" xmlns:xlink="http://www.w3.org/1999/xlink">
    <title>camp-location-4</title>
    <g id="camp-location-4" stroke="none" stroke-width="1" fill="none" fill-rule="evenodd">
        <g id="Group-69" transform="translate(115.000000, 67.500000) rotate(3.000000) translate(-115.000000, -67.500000) translate(3.000000, 6.000000)">
            <polygon id="Fill-1" fill="#261100" points="0 13.2796 0.983 122.0946 183.541 121.2006 223.831 68.6586 223.831 55.7756 216.269 58.2446 183.328 12.8806"></polygon>
            <polygon id="Fill-2" fill="#F9A31A" points="182.9144 0.0001 0.0004 0.3981 0.9824 109.2131 183.5404 108.3201 223.8314 55.7771 223.8314 55.7741 183.3284 0.0001"></polygon>
            <path d="M182.9144,0.0001 L0.0004,0.3981 L0.9824,109.2131 L183.5404,108.3201 L223.8314,55.7771 L223.8314,55.7741 L183.3284,0.0001 L182.9144,0.0001 Z M6.1724,6.5001 L180.2864,6.1241 L216.0914,55.6741 L180.5824,102.2171 L7.0444,103.0661 L6.1724,6.5001 Z" id="Fill-3" fill="#885932"></path>
            <path d="M4.9453,105.3723 L181.1063,105.3723 L218.8433,55.6153 L181.4333,3.5093 L3.2743,3.8473 L4.9453,105.3723 Z M181.8653,106.9013 L3.4403,106.9013 L1.7213,2.3203 L182.2163,1.9793 L182.4453,2.2983 L220.7423,55.6393 L181.8653,106.9013 Z" id="Fill-4" fill="#5F3D1C"></path>
            <path d="M183.5405,121.2005 C183.5405,121.2005 183.3915,107.7885 183.5405,108.3195 C183.6895,108.8495 186.0625,118.1725 186.0625,118.1725 L183.5405,121.2005 Z" id="Fill-5" fill="#5F3D1C"></path>
            <g id="Group-35" transform="translate(15.000000, 16.095000)">
                <path d="M15.9365,25.6055 C15.9105,25.6055 15.8855,25.6055 15.8605,25.6065 C12.9405,25.6265 10.2015,26.7815 8.1505,28.8595 C6.0995,30.9385 4.9795,33.6915 5.0005,36.6105 C5.0405,42.6145 9.9385,47.4715 15.9335,47.4715 C15.9575,47.4715 15.9815,47.4715 16.0055,47.4705 C22.0345,47.4305 26.9055,42.4935 26.8645,36.4655 C26.8455,33.5455 25.6895,30.8075 23.6115,28.7565 C21.5505,26.7225 18.8275,25.6055 15.9365,25.6055" id="Fill-7" fill="#3B2314"></path>
                <path d="M16.0132,48.5977 L15.9332,48.5977 C9.3202,48.5977 3.9182,43.2407 3.8732,36.6187 C3.8522,33.3967 5.0852,30.3617 7.3482,28.0697 C9.6122,25.7757 12.6312,24.5007 15.8522,24.4797 L15.9352,24.4797 C22.5472,24.4797 27.9462,29.8357 27.9922,36.4577 C28.0352,43.1067 22.6622,48.5527 16.0132,48.5977 M29.9252,44.4337 L29.9162,43.3057 C31.8152,43.2767 32.9332,43.6077 33.8892,43.9987 L33.8892,39.6137 C32.8742,39.1687 31.7982,38.7467 29.8882,38.8087 L29.8792,37.6817 C31.8002,37.6737 32.9242,38.0017 33.8892,38.3937 L33.8892,34.0057 C32.8852,33.5677 31.8572,33.1807 29.9432,33.1807 C29.9112,33.1807 29.8812,33.1807 29.8502,33.1827 L29.8422,32.0547 C31.7742,32.0237 32.9112,32.3737 33.8892,32.7807 L33.8892,28.3957 C32.8732,27.9517 31.8442,27.5567 29.9092,27.5567 C29.8782,27.5567 29.8452,27.5567 29.8132,27.5577 L29.8052,26.4307 C31.7662,26.4337 32.9042,26.7727 33.8892,27.1747 L33.8892,16.0677 L16.9532,16.2517 L16.9332,16.2847 L16.8802,16.2527 L0.6862,16.4287 L0.9252,75.3037 L33.8892,74.9437 L33.8892,45.2237 C32.9072,44.7987 31.8832,44.4317 30.0172,44.4317 C29.9852,44.4317 29.9552,44.4317 29.9252,44.4337" id="Fill-9" fill="#3B2314"></path>
                <polygon id="Fill-11" fill="#3B2314" points="26.4795 1.0332 12.1795 1.1722 1.0345 15.2942 16.2075 15.1282"></polygon>
                <path d="M38.8052,35.1504 C37.1162,35.1504 36.0282,34.8704 35.1142,34.5214 L35.1142,38.9184 C36.0542,39.3164 37.0672,39.6504 38.8422,39.6504 C38.8742,39.6504 38.9072,39.6504 38.9392,39.6484 C41.0792,39.6344 42.1202,39.1594 43.2232,38.6564 C43.2662,38.6354 43.3112,38.6164 43.3552,38.5964 L43.3372,34.1984 C42.2642,34.6784 41.0762,35.1344 38.9092,35.1504 L38.8052,35.1504 Z" id="Fill-13" fill="#3B2314"></path>
                <path d="M38.8423,40.7764 C37.1313,40.7764 36.0353,40.4884 35.1133,40.1324 L35.1133,44.5274 C36.0643,44.9324 37.0813,45.2744 38.8813,45.2744 C38.9123,45.2744 38.9463,45.2744 38.9773,45.2734 C41.1183,45.2594 42.1583,44.7844 43.2613,44.2814 C43.3003,44.2634 43.3393,44.2464 43.3773,44.2284 L43.3603,39.8304 C42.2903,40.3094 41.1023,40.7604 38.9463,40.7764 L38.8423,40.7764 Z" id="Fill-15" fill="#3B2314"></path>
                <path d="M38.7681,29.5254 C37.1011,29.5254 36.0201,29.2514 35.1141,28.9094 L35.1141,33.3074 C36.0431,33.6984 37.0521,34.0234 38.8051,34.0234 C38.8371,34.0234 38.8701,34.0234 38.9021,34.0224 C41.0421,34.0084 42.0831,33.5334 43.1861,33.0304 C43.2341,33.0074 43.2841,32.9864 43.3321,32.9634 L43.3141,28.5664 C42.2381,29.0494 41.0481,29.5094 38.8721,29.5254 L38.7681,29.5254 Z" id="Fill-17" fill="#3B2314"></path>
                <path d="M38.8809,46.4014 C37.1459,46.4014 36.0429,46.1064 35.1139,45.7454 L35.1139,47.5064 L35.2099,71.3654 L35.2349,74.8154 L43.4309,57.4694 L43.3829,45.4634 C42.3189,45.9384 41.1309,46.3854 38.9849,46.4014 L38.8809,46.4014 Z" id="Fill-19" fill="#3B2314"></path>
                <path d="M38.8648,28.3975 C41.0058,28.3835 42.0458,27.9085 43.1488,27.4055 C43.2018,27.3805 43.2558,27.3565 43.3088,27.3325 L43.2088,2.4145 L35.1138,15.6575 L35.1138,27.6985 C36.0338,28.0825 37.0388,28.3995 38.7678,28.3995 C38.7998,28.3995 38.8328,28.3995 38.8648,28.3975" id="Fill-21" fill="#3B2314"></path>
                <polygon id="Fill-23" fill="#3B2314" points="34.1236 14.9326 42.7396 0.8376 27.9226 1.0176 17.6496 15.1126"></polygon>
                <path d="M29.8135,27.5576 C29.8455,27.5566 29.8775,27.5566 29.9095,27.5566 C31.8435,27.5566 32.8735,27.9526 33.8895,28.3956 C33.9635,28.4276 34.0375,28.4596 34.1115,28.4926 C34.4335,28.6346 34.7615,28.7766 35.1135,28.9096 C36.0205,29.2506 37.1015,29.5256 38.7685,29.5256 L38.8725,29.5256 C41.0485,29.5096 42.2385,29.0496 43.3145,28.5666 C43.4155,28.5206 43.5165,28.4746 43.6165,28.4296 C44.7185,27.9256 45.7595,27.4506 47.9005,27.4366 C47.9305,27.4356 47.9605,27.4356 47.9925,27.4356 C50.0715,27.4356 51.1065,27.8906 52.2015,28.3726 C53.3535,28.8796 54.5435,29.4046 56.8595,29.4046 L56.9635,29.4046 C59.3485,29.3876 60.5515,28.8386 61.7145,28.3096 C62.8185,27.8066 63.8615,27.3306 66.0055,27.3176 C68.1585,27.2456 69.1995,27.7636 70.3105,28.2516 C71.4805,28.7666 72.6405,29.2976 75.0745,29.2846 L75.0655,28.1576 C72.9575,28.2236 71.8755,27.7096 70.7625,27.2206 C69.6085,26.7136 68.4185,26.1896 66.1015,26.1896 L65.9975,26.1896 C63.6125,26.2056 62.4105,26.7546 61.2465,27.2846 C60.1425,27.7866 59.0995,28.2626 56.9555,28.2766 C56.9245,28.2786 56.8915,28.2786 56.8595,28.2786 C54.7815,28.2786 53.7485,27.8236 52.6545,27.3416 C51.5015,26.8346 50.3095,26.3096 47.9915,26.3096 L47.8925,26.3096 C45.6205,26.3256 44.4235,26.8256 43.3095,27.3316 C43.2555,27.3566 43.2015,27.3806 43.1485,27.4056 C42.0455,27.9086 41.0055,28.3836 38.8645,28.3976 C38.8335,28.3996 38.7995,28.3996 38.7685,28.3996 C37.0385,28.3996 36.0335,28.0816 35.1135,27.6986 C34.9295,27.6206 34.7475,27.5426 34.5645,27.4626 C34.3435,27.3656 34.1195,27.2686 33.8895,27.1746 C32.9045,26.7726 31.7665,26.4336 29.8055,26.4306 L29.8135,27.5576 Z" id="Fill-25" fill="#885932"></path>
                <path d="M38.9019,34.0225 C38.8699,34.0235 38.8369,34.0235 38.8049,34.0235 C37.0519,34.0235 36.0439,33.6985 35.1139,33.3075 C34.9429,33.2355 34.7729,33.1625 34.6019,33.0875 C34.3689,32.9845 34.1329,32.8805 33.8889,32.7805 C32.9119,32.3745 31.7739,32.0235 29.8419,32.0545 L29.8509,33.1825 C29.8809,33.1805 29.9109,33.1805 29.9429,33.1805 C31.8569,33.1805 32.8849,33.5675 33.8889,34.0055 C33.9759,34.0435 34.0619,34.0805 34.1489,34.1195 C34.4599,34.2555 34.7759,34.3925 35.1139,34.5215 C36.0279,34.8705 37.1159,35.1505 38.8049,35.1505 L38.9099,35.1505 C41.0759,35.1345 42.2649,34.6785 43.3369,34.1985 C43.4429,34.1505 43.5489,34.1035 43.6529,34.0555 C44.7559,33.5525 45.7969,33.0765 47.9379,33.0625 C50.0609,32.9975 51.1289,33.5095 52.2379,33.9985 C53.4079,34.5115 54.5739,35.0415 57.0009,35.0305 C59.3849,35.0135 60.5889,34.4645 61.7519,33.9345 C62.8559,33.4315 63.8989,32.9565 66.0429,32.9415 C66.0739,32.9405 66.1069,32.9405 66.1389,32.9405 C68.2179,32.9405 69.2529,33.3955 70.3469,33.8765 C71.5159,34.3905 72.7129,34.9125 75.1129,34.9095 L75.1049,33.7825 C75.0729,33.7835 75.0399,33.7835 75.0079,33.7835 C72.9289,33.7835 71.8939,33.3285 70.7999,32.8465 C69.6299,32.3335 68.4799,31.8085 66.0339,31.8145 C63.6499,31.8315 62.4469,32.3795 61.2839,32.9105 C60.1799,33.4135 59.1359,33.8895 56.9929,33.9035 C56.9619,33.9045 56.9279,33.9045 56.8969,33.9045 C54.8189,33.9045 53.7849,33.4495 52.6919,32.9675 C51.5219,32.4525 50.3479,31.9425 47.9289,31.9355 C45.6489,31.9515 44.4509,32.4565 43.3319,32.9635 C43.2839,32.9865 43.2349,33.0075 43.1859,33.0305 C42.0829,33.5335 41.0429,34.0085 38.9019,34.0225" id="Fill-27" fill="#885932"></path>
                <path d="M38.939,39.6484 C38.907,39.6504 38.874,39.6504 38.842,39.6504 C37.067,39.6504 36.054,39.3164 35.114,38.9184 C34.956,38.8514 34.798,38.7834 34.641,38.7134 C34.395,38.6054 34.147,38.4984 33.889,38.3934 C32.924,38.0024 31.8,37.6734 29.879,37.6814 L29.888,38.8084 C31.798,38.7474 32.874,39.1694 33.889,39.6134 C33.989,39.6564 34.088,39.7004 34.187,39.7434 C34.487,39.8754 34.79,40.0074 35.114,40.1324 C36.035,40.4884 37.131,40.7764 38.842,40.7764 L38.947,40.7764 C41.103,40.7604 42.291,40.3094 43.36,39.8304 C43.471,39.7804 43.582,39.7304 43.692,39.6804 C44.794,39.1764 45.835,38.7014 47.976,38.6874 C48.006,38.6864 48.037,38.6864 48.068,38.6864 C50.147,38.6864 51.183,39.1414 52.275,39.6244 C53.428,40.1304 54.618,40.6554 56.934,40.6554 L57.038,40.6554 C59.422,40.6384 60.626,40.0894 61.789,39.5604 C62.894,39.0574 63.938,38.5824 66.081,38.5684 C66.113,38.5664 66.146,38.5664 66.177,38.5664 C68.256,38.5664 69.292,39.0214 70.386,39.5024 C71.556,40.0184 72.74,40.5644 75.15,40.5354 L75.142,39.4084 C75.111,39.4094 75.08,39.4094 75.049,39.4094 C72.969,39.4094 71.934,38.9544 70.838,38.4714 C69.668,37.9564 68.48,37.4514 66.073,37.4404 C63.689,37.4574 62.486,38.0054 61.322,38.5354 C60.217,39.0384 59.173,39.5134 57.03,39.5274 C56.999,39.5294 56.965,39.5294 56.934,39.5294 C54.856,39.5294 53.822,39.0744 52.729,38.5924 C51.576,38.0854 50.385,37.5604 48.067,37.5604 L47.968,37.5604 C45.677,37.5764 44.479,38.0854 43.355,38.5964 C43.311,38.6164 43.267,38.6354 43.223,38.6564 C42.121,39.1594 41.08,39.6344 38.939,39.6484" id="Fill-29" fill="#885932"></path>
                <path d="M75.1787,45.0332 C75.1467,45.0342 75.1147,45.0342 75.0827,45.0342 C73.0037,45.0342 71.9697,44.5792 70.8757,44.0972 C69.7217,43.5912 68.5297,43.0652 66.2147,43.0652 L66.1097,43.0652 C63.7257,43.0822 62.5227,43.6312 61.3597,44.1612 C60.2557,44.6642 59.2117,45.1392 57.0667,45.1542 C57.0357,45.1552 57.0027,45.1552 56.9707,45.1552 C54.8947,45.1552 53.8607,44.7002 52.7677,44.2192 C51.5977,43.7052 50.4417,43.1672 48.0047,43.1862 C45.7037,43.2022 44.5047,43.7162 43.3777,44.2282 C43.3397,44.2462 43.2997,44.2632 43.2617,44.2812 C42.1587,44.7842 41.1177,45.2602 38.9767,45.2732 C38.9457,45.2742 38.9127,45.2742 38.8807,45.2742 C37.0807,45.2742 36.0647,44.9322 35.1137,44.5272 C34.9677,44.4662 34.8237,44.4022 34.6777,44.3392 C34.4197,44.2242 34.1597,44.1092 33.8887,43.9992 C32.9327,43.6072 31.8147,43.2762 29.9167,43.3052 L29.9247,44.4332 C29.9547,44.4312 29.9857,44.4312 30.0167,44.4312 C31.8837,44.4312 32.9077,44.7992 33.8887,45.2232 C34.0007,45.2712 34.1127,45.3202 34.2237,45.3702 C34.5127,45.4972 34.8037,45.6252 35.1137,45.7452 C36.0427,46.1062 37.1457,46.4012 38.8807,46.4012 L38.9857,46.4012 C41.1317,46.3862 42.3187,45.9382 43.3827,45.4632 C43.4987,45.4112 43.6147,45.3582 43.7287,45.3062 C44.8317,44.8042 45.8727,44.3272 48.0127,44.3132 C50.1527,44.2292 51.2047,44.7612 52.3137,45.2492 C53.4827,45.7642 54.6677,46.2662 57.0747,46.2812 C59.4597,46.2642 60.6637,45.7162 61.8267,45.1852 C62.9307,44.6822 63.9747,44.2072 66.1177,44.1922 C68.2507,44.1302 69.3107,44.6392 70.4217,45.1282 C71.5747,45.6352 72.7667,46.1602 75.0827,46.1602 L75.1867,46.1602 L75.1787,45.0332 Z" id="Fill-31" fill="#885932"></path>
                <path d="M16.0054,47.4707 C15.9824,47.4717 15.9574,47.4717 15.9334,47.4717 C9.9394,47.4717 5.0404,42.6147 5.0004,36.6107 C4.9804,33.6917 6.0994,30.9387 8.1504,28.8597 C10.2014,26.7817 12.9404,25.6257 15.8604,25.6067 C15.8854,25.6057 15.9104,25.6057 15.9364,25.6057 C18.8274,25.6057 21.5504,26.7227 23.6114,28.7567 C25.6904,30.8077 26.8454,33.5457 26.8644,36.4657 C26.9054,42.4927 22.0344,47.4307 16.0054,47.4707 M15.9354,24.4797 L15.8524,24.4797 C12.6314,24.5007 9.6114,25.7757 7.3484,28.0697 C5.0854,30.3617 3.8524,33.3967 3.8734,36.6177 C3.9184,43.2407 9.3204,48.5977 15.9334,48.5977 L16.0134,48.5977 C22.6624,48.5527 28.0354,43.1067 27.9914,36.4577 C27.9464,29.8357 22.5474,24.4797 15.9354,24.4797" id="Fill-33" fill="#885932"></path>
            </g>
            <g id="Group-68" transform="translate(65.000000, 17.095000)" fill="#3B2314">
                <path d="M39.9287,5.582 L36.4437,5.582 C35.6817,5.582 35.1297,5.716 34.7857,5.981 C34.4437,6.249 34.2717,6.754 34.2717,7.496 L34.2717,8.54 L34.2717,10.096 L34.2717,11.896 L34.2717,13.696 L34.2717,15.238 L34.2717,16.268 C34.2717,16.648 34.3477,16.968 34.5007,17.225 C34.6527,17.481 34.8527,17.687 35.1007,17.838 C35.3467,17.992 35.6297,18.102 35.9427,18.167 C36.2567,18.234 36.5757,18.267 36.9007,18.267 L39.9287,18.267 L39.9287,23.382 L33.9567,23.382 C32.8147,23.382 31.8727,23.21 31.1287,22.868 C30.3867,22.524 29.7817,22.054 29.3147,21.453 C28.8467,20.853 28.5047,20.163 28.2857,19.383 C28.0677,18.602 27.9197,17.769 27.8437,16.883 C27.7677,15.996 27.7327,15.097 27.7437,14.182 C27.7527,13.268 27.7567,12.382 27.7567,11.524 L27.7567,9.182 C27.7567,8.344 27.7957,7.516 27.8717,6.697 C27.9487,5.877 28.0897,5.092 28.3007,4.339 C28.5097,3.587 28.8287,2.921 29.2577,2.34 C29.6857,1.759 30.2427,1.296 30.9287,0.954 C31.6147,0.61 32.4817,0.44 33.5287,0.44 L39.9287,0.44 L39.9287,5.582 Z" id="Fill-36"></path>
                <path d="M50.1861,7.2109 C50.1861,6.6579 50.0661,6.2059 49.8281,5.8539 C49.5881,5.5009 49.2241,5.3249 48.7281,5.3249 C48.2321,5.3249 47.8651,5.4919 47.6261,5.8249 C47.3911,6.1579 47.2711,6.6209 47.2711,7.2109 L47.2711,12.6969 L50.1861,12.6969 L50.1861,7.2109 Z M50.1861,23.4099 L50.1861,17.8379 L47.2711,17.8379 L47.2711,23.4099 L41.4431,23.4099 L41.4431,5.8399 C41.4431,4.8119 41.6561,3.9349 42.0851,3.2099 C42.5131,2.4869 43.0721,1.8969 43.7571,1.4399 C44.4431,0.9819 45.2241,0.6489 46.1001,0.4399 C46.9751,0.2299 47.8621,0.1249 48.7551,0.1249 C49.6331,0.1249 50.5081,0.2349 51.3831,0.4539 C52.2621,0.6729 53.0501,1.0159 53.7551,1.4819 C54.4591,1.9499 55.0271,2.5439 55.4571,3.2689 C55.8841,3.9929 56.0991,4.8499 56.0991,5.8399 L56.0991,23.4099 L50.1861,23.4099 Z" id="Fill-38"></path>
                <path d="M73.6704,7.2139 C73.6704,6.6609 73.5794,6.1979 73.3994,5.8259 C73.2164,5.4549 72.8594,5.2679 72.3264,5.2679 C71.8894,5.2679 71.5884,5.4479 71.4274,5.8119 C71.2654,6.1749 71.1844,6.6419 71.1844,7.2139 L71.1844,23.4099 L65.6124,23.4099 L65.6414,6.5849 C65.6414,6.1079 65.5124,5.7689 65.2554,5.5679 C64.9994,5.3679 64.6994,5.2679 64.3554,5.2679 C63.8794,5.2679 63.5464,5.3969 63.3564,5.6539 C63.1654,5.9109 63.0694,6.3369 63.0694,6.9269 L63.0414,23.4099 L57.4704,23.3819 L57.4704,5.0109 C57.4704,3.9829 57.6504,3.1499 58.0134,2.5119 C58.3754,1.8719 58.8604,1.3739 59.4694,1.0109 C60.0804,0.6499 60.7894,0.4019 61.5994,0.2689 C62.4084,0.1359 63.2604,0.0679 64.1554,0.0679 C64.5364,0.0679 64.9324,0.1059 65.3414,0.1819 C65.7504,0.2579 66.1464,0.3709 66.5264,0.5229 C66.9074,0.6749 67.2644,0.8689 67.5994,1.1069 C67.9324,1.3419 68.2034,1.6209 68.4124,1.9439 C68.6214,1.6209 68.8984,1.3419 69.2414,1.1069 C69.5854,0.8689 69.9604,0.6749 70.3704,0.5229 C70.7794,0.3709 71.2034,0.2579 71.6414,0.1819 C72.0784,0.1059 72.4984,0.0679 72.8984,0.0679 C73.7744,0.0679 74.5934,0.1399 75.3554,0.2819 C76.1164,0.4259 76.7734,0.6779 77.3274,1.0389 C77.8784,1.4019 78.3134,1.9059 78.6274,2.5539 C78.9414,3.2009 79.0984,4.0219 79.0984,5.0109 L79.0984,23.4099 L73.6404,23.4099 L73.6704,7.2139 Z" id="Fill-40"></path>
                <path d="M89.4409,7.1543 C89.4409,6.7153 89.3449,6.3643 89.1559,6.0963 C88.9649,5.8293 88.6409,5.6763 88.1839,5.6393 C87.9169,5.6003 87.6699,5.5923 87.4409,5.6113 C87.2129,5.6293 86.9369,5.6393 86.6129,5.6393 L86.6129,9.6973 C86.8979,9.6973 87.1789,9.7153 87.4549,9.7543 C87.7319,9.7933 87.9929,9.7733 88.2399,9.6973 C88.5839,9.6013 88.8689,9.4643 89.0979,9.2823 C89.3259,9.1013 89.4409,8.8203 89.4409,8.4393 L89.4409,7.1543 Z M86.6409,14.4963 L86.6409,23.3823 L80.4689,23.3823 L80.4689,0.4403 L89.8409,0.4403 C90.3749,0.4403 90.9309,0.4643 91.5119,0.5103 C92.0929,0.5583 92.6309,0.6773 93.1269,0.8693 C93.6219,1.0583 94.0309,1.3353 94.3559,1.6963 C94.6789,2.0583 94.8409,2.5533 94.8409,3.1813 L94.8409,11.4963 C94.8409,12.0863 94.6729,12.5733 94.3399,12.9543 C94.0069,13.3353 93.5919,13.6393 93.0979,13.8683 C92.6019,14.0963 92.0649,14.2583 91.4839,14.3533 C90.9029,14.4483 90.3549,14.4963 89.8409,14.4963 L86.6409,14.4963 Z" id="Fill-42"></path>
                <path d="M43.5244,31.5762 L40.0394,31.5762 C39.2774,31.5762 38.7254,31.7112 38.3814,31.9762 C38.0394,32.2442 37.8684,32.7492 37.8684,33.4912 L37.8684,34.5342 L37.8684,36.0912 L37.8684,37.8912 L37.8684,39.6912 L37.8684,41.2332 L37.8684,42.2632 C37.8684,42.6432 37.9444,42.9632 38.0964,43.2202 C38.2484,43.4762 38.4484,43.6802 38.6964,43.8332 C38.9434,43.9852 39.2254,44.0962 39.5394,44.1622 C39.8524,44.2282 40.1714,44.2622 40.4964,44.2622 L43.5244,44.2622 L43.5244,49.3762 L37.5524,49.3762 C36.4104,49.3762 35.4684,49.2042 34.7244,48.8622 C33.9824,48.5192 33.3784,48.0472 32.9104,47.4482 C32.4424,46.8482 32.1014,46.1582 31.8814,45.3762 C31.6634,44.5972 31.5154,43.7622 31.4394,42.8762 C31.3634,41.9902 31.3294,41.0902 31.3394,40.1762 C31.3484,39.2632 31.3534,38.3772 31.3534,37.5192 L31.3534,35.1772 C31.3534,34.3392 31.3914,33.5112 31.4674,32.6922 C31.5444,31.8722 31.6864,31.0872 31.8964,30.3342 C32.1054,29.5812 32.4244,28.9152 32.8534,28.3352 C33.2824,27.7542 33.8394,27.2912 34.5244,26.9492 C35.2104,26.6052 36.0774,26.4352 37.1244,26.4352 L43.5244,26.4352 L43.5244,31.5762 Z" id="Fill-44"></path>
                <path d="M53.7818,33.2061 C53.7818,32.6531 53.6618,32.2001 53.4238,31.8491 C53.1848,31.4961 52.8208,31.3191 52.3238,31.3191 C51.8288,31.3191 51.4618,31.4871 51.2218,31.8201 C50.9868,32.1531 50.8668,32.6161 50.8668,33.2061 L50.8668,38.6921 L53.7818,38.6921 L53.7818,33.2061 Z M53.7818,49.4041 L53.7818,43.8331 L50.8668,43.8331 L50.8668,49.4041 L45.0368,49.4041 L45.0368,31.8351 C45.0368,30.8061 45.2528,29.9301 45.6808,29.2051 C46.1098,28.4821 46.6678,27.8911 47.3518,27.4351 C48.0388,26.9771 48.8188,26.6441 49.6968,26.4351 C50.5718,26.2251 51.4588,26.1201 52.3508,26.1201 C53.2298,26.1201 54.1048,26.2301 54.9798,26.4481 C55.8578,26.6681 56.6458,27.0101 57.3508,27.4771 C58.0558,27.9451 58.6228,28.5391 59.0528,29.2641 C59.4798,29.9871 59.6958,30.8451 59.6958,31.8351 L59.6958,49.4041 L53.7818,49.4041 Z" id="Fill-46"></path>
                <path d="M70.0376,33.1484 C70.0376,32.7104 69.9416,32.3594 69.7526,32.0914 C69.5606,31.8244 69.2376,31.6714 68.7806,31.6344 C68.5126,31.5954 68.2666,31.5864 68.0376,31.6064 C67.8096,31.6244 67.5336,31.6344 67.2096,31.6344 L67.2096,35.6924 C67.4946,35.6924 67.7756,35.7104 68.0516,35.7494 C68.3276,35.7874 68.5886,35.7684 68.8366,35.6924 C69.1806,35.5964 69.4656,35.4594 69.6946,35.2764 C69.9226,35.0954 70.0376,34.8154 70.0376,34.4344 L70.0376,33.1484 Z M70.8096,49.3764 C70.4276,49.0334 70.2266,48.6144 70.2096,48.1194 C70.1896,47.6254 70.1816,47.1374 70.1816,46.6614 C70.1816,46.0524 70.1986,45.4714 70.2376,44.9194 C70.2746,44.3664 70.2856,43.8484 70.2666,43.3634 C70.2466,42.8764 70.1706,42.4194 70.0376,41.9904 C69.9046,41.5614 69.6746,41.1574 69.3516,40.7764 C69.0286,40.5674 68.6716,40.4674 68.2796,40.4764 C67.8906,40.4874 67.5336,40.4914 67.2096,40.4914 L67.2096,49.3764 L61.0656,49.3764 L61.0656,26.4354 L70.8666,26.4354 C71.1326,26.4354 71.5416,26.4534 72.0936,26.4924 C72.6466,26.5294 73.2036,26.6334 73.7666,26.8054 C74.3276,26.9774 74.8236,27.2404 75.2516,27.5904 C75.6806,27.9454 75.8936,28.4344 75.8936,29.0634 L75.8936,34.5474 C75.8936,35.0834 75.8616,35.5334 75.7936,35.9054 C75.7266,36.2774 75.5986,36.5904 75.4086,36.8474 C75.2176,37.1064 74.9656,37.3154 74.6516,37.4764 C74.3366,37.6394 73.9426,37.7874 73.4666,37.9194 C73.7316,38.0334 73.9556,38.1434 74.1386,38.2484 C74.3186,38.3524 74.4846,38.4614 74.6366,38.5774 C74.7886,38.6924 74.9366,38.8344 75.0806,39.0054 C75.2236,39.1774 75.3806,39.3864 75.5526,39.6334 C75.8176,40.1864 75.9946,40.7614 76.0806,41.3624 C76.1656,41.9614 76.2096,42.5714 76.2096,43.1914 C76.2096,43.8094 76.1836,44.4384 76.1376,45.0754 C76.0896,45.7144 76.0656,46.3474 76.0656,46.9764 C76.0656,47.3774 76.0706,47.7384 76.0806,48.0624 C76.0896,48.3864 76.1986,48.8244 76.4096,49.3764 L70.8096,49.3764 Z" id="Fill-48"></path>
                <path d="M89.2652,31.5762 L84.1222,31.5762 C83.8552,31.5762 83.6172,31.6062 83.4072,31.6632 C83.1982,31.7202 83.0932,31.9112 83.0932,32.2332 L83.0932,34.6352 C83.0932,34.9202 83.1822,35.1242 83.3652,35.2482 C83.5462,35.3722 83.7982,35.4332 84.1222,35.4332 L89.4652,35.4332 L89.4652,40.3762 L84.1222,40.3762 C83.7222,40.3762 83.4502,40.4482 83.3072,40.5922 C83.1652,40.7332 83.0932,40.9852 83.0932,41.3482 L83.0932,43.1762 C83.0932,43.4802 83.1302,43.7282 83.2082,43.9202 C83.2832,44.1092 83.5892,44.2242 84.1222,44.2622 L89.3782,44.2622 L89.3782,49.4042 L82.5502,49.4042 C81.3502,49.4042 80.4112,49.2872 79.7362,49.0482 C79.0602,48.8102 78.5592,48.3622 78.2362,47.7052 C77.9112,47.0482 77.7172,46.1392 77.6502,44.9772 C77.5832,43.8152 77.5502,42.3102 77.5502,40.4632 L77.5502,33.9482 C77.5502,32.3482 77.5942,31.0582 77.6792,30.0772 C77.7652,29.0962 77.9702,28.3392 78.2942,27.8052 C78.6162,27.2722 79.1122,26.9162 79.7802,26.7332 C80.4462,26.5532 81.3692,26.4642 82.5502,26.4642 L89.2652,26.4642 L89.2652,31.5762 Z" id="Fill-50"></path>
                <path d="M9.6309,58.7373 C9.6309,58.3003 9.5349,57.9483 9.3439,57.6823 C9.1549,57.4163 8.8319,57.2633 8.3749,57.2253 C8.1079,57.1873 7.8599,57.1783 7.6319,57.1973 C7.4039,57.2163 7.1289,57.2253 6.8059,57.2253 L6.8059,61.2773 C7.0909,61.2773 7.3719,61.2963 7.6479,61.3353 C7.9229,61.3723 8.1839,61.3523 8.4319,61.2773 C8.7749,61.1823 9.0599,61.0443 9.2879,60.8643 C9.5159,60.6833 9.6309,60.4033 9.6309,60.0213 L9.6309,58.7373 Z M6.8349,66.0713 L6.8349,74.9443 L0.6719,74.9443 L0.6719,52.0333 L10.0299,52.0333 C10.5609,52.0333 11.1189,52.0563 11.6989,52.1043 C12.2789,52.1523 12.8159,52.2713 13.3109,52.4613 C13.8049,52.6513 14.2149,52.9273 14.5379,53.2883 C14.8599,53.6503 15.0229,54.1443 15.0229,54.7723 L15.0229,63.0753 C15.0229,63.6643 14.8559,64.1493 14.5239,64.5293 C14.1909,64.9113 13.7769,65.2153 13.2829,65.4433 C12.7879,65.6723 12.2509,65.8333 11.6709,65.9273 C11.0889,66.0233 10.5439,66.0713 10.0299,66.0713 L6.8349,66.0713 Z" id="Fill-52"></path>
                <path d="M25.1231,58.7959 C25.1231,58.2439 25.0041,57.7919 24.7651,57.4409 C24.5281,57.0879 24.1611,56.9119 23.6671,56.9119 C23.1721,56.9119 22.8071,57.0789 22.5691,57.4109 C22.3311,57.7439 22.2121,58.2059 22.2121,58.7959 L22.2121,64.2729 L25.1231,64.2729 L25.1231,58.7959 Z M25.1231,74.9729 L25.1231,69.4079 L22.2121,69.4079 L22.2121,74.9729 L16.3921,74.9729 L16.3921,57.4249 C16.3921,56.3999 16.6051,55.5239 17.0331,54.8009 C17.4611,54.0789 18.0191,53.4879 18.7031,53.0319 C19.3881,52.5749 20.1671,52.2429 21.0431,52.0329 C21.9171,51.8239 22.8011,51.7199 23.6961,51.7199 C24.5711,51.7199 25.4451,51.8279 26.3211,52.0479 C27.1961,52.2669 27.9851,52.6089 28.6881,53.0749 C29.3931,53.5399 29.9591,54.1359 30.3871,54.8579 C30.8151,55.5799 31.0281,56.4369 31.0281,57.4249 L31.0281,74.9729 L25.1231,74.9729 Z" id="Fill-54"></path>
                <path d="M44.5523,57.1689 L41.0723,57.1689 C40.3113,57.1689 39.7603,57.3029 39.4163,57.5679 C39.0753,57.8349 38.9043,58.3389 38.9043,59.0799 L38.9043,60.1209 L38.9043,61.6769 L38.9043,63.4749 L38.9043,65.2719 L38.9043,66.8129 L38.9043,67.8399 C38.9043,68.2199 38.9793,68.5389 39.1323,68.7959 C39.2833,69.0519 39.4843,69.2569 39.7313,69.4079 C39.9773,69.5609 40.2593,69.6709 40.5723,69.7359 C40.8853,69.8039 41.2043,69.8369 41.5283,69.8369 L44.5523,69.8369 L44.5523,74.9439 L38.5893,74.9439 C37.4483,74.9439 36.5073,74.7729 35.7643,74.4309 C35.0233,74.0879 34.4193,73.6169 33.9523,73.0189 C33.4863,72.4189 33.1443,71.7309 32.9253,70.9489 C32.7073,70.1709 32.5603,69.3369 32.4843,68.4529 C32.4073,67.5679 32.3733,66.6689 32.3843,65.7569 C32.3933,64.8439 32.3973,63.9599 32.3973,63.1039 L32.3973,60.7639 C32.3973,59.9279 32.4363,59.0999 32.5123,58.2809 C32.5883,57.4639 32.7303,56.6799 32.9403,55.9279 C33.1493,55.1759 33.4683,54.5109 33.8963,53.9309 C34.3243,53.3509 34.8803,52.8889 35.5653,52.5469 C36.2493,52.2039 37.1153,52.0329 38.1613,52.0329 L44.5523,52.0329 L44.5523,57.1689 Z" id="Fill-56"></path>
                <path d="M60.0733,55.8848 C59.8823,57.0078 59.6933,57.9768 59.5023,58.7958 C59.3123,59.6128 59.0933,60.2988 58.8453,60.8488 C58.5983,61.4008 58.3133,61.8288 57.9903,62.1328 C57.6663,62.4388 57.2683,62.6478 56.7923,62.7608 C57.8013,63.0468 58.5803,63.5558 59.1323,64.2878 C59.6843,65.0198 60.0933,65.8568 60.3583,66.7988 C60.6253,67.7398 60.7863,68.7198 60.8443,69.7368 C60.9013,70.7548 60.9293,71.6918 60.9293,72.5478 C60.9293,72.9468 60.9333,73.3088 60.9443,73.6318 C60.9533,73.9548 61.0623,74.3928 61.2723,74.9448 L55.6803,74.9448 C55.4893,74.7728 55.3463,74.5118 55.2523,74.1598 C55.1563,73.8078 55.0943,73.4278 55.0653,73.0188 C55.0373,72.6088 55.0283,72.2108 55.0373,71.8208 C55.0463,71.4308 55.0523,71.1198 55.0523,70.8928 C55.0523,69.6758 54.9523,68.7478 54.7523,68.1118 C54.5523,67.4728 54.2423,66.9368 53.8243,66.4988 C53.5583,66.2328 53.2683,66.0848 52.9543,66.0568 C52.6413,66.0288 52.3503,65.9948 52.0843,65.9558 L52.0843,74.9448 L45.9213,74.9448 L45.9213,52.0328 L52.0843,52.0328 L52.0843,60.9918 L52.5123,60.9068 C52.6843,60.8878 52.8413,60.7878 52.9843,60.6078 C53.1253,60.4268 53.2493,60.2168 53.3533,59.9798 C53.4583,59.7408 53.5443,59.4988 53.6123,59.2518 C53.6773,59.0038 53.7293,58.7848 53.7683,58.5958 C53.9013,57.7788 54.0333,56.9748 54.1683,56.1848 C54.3013,55.3958 54.4243,54.6968 54.5373,54.0878 C54.6703,53.3638 54.7963,52.6798 54.9093,52.0328 L60.7583,52.0328 L60.0733,55.8848 Z" id="Fill-58"></path>
                <path d="M71.1441,58.7959 C71.1441,58.2439 71.0251,57.7919 70.7881,57.4409 C70.5491,57.0879 70.1841,56.9119 69.6891,56.9119 C69.1941,56.9119 68.8281,57.0789 68.5901,57.4109 C68.3521,57.7439 68.2331,58.2059 68.2331,58.7959 L68.2331,64.2729 L71.1441,64.2729 L71.1441,58.7959 Z M71.1441,74.9729 L71.1441,69.4079 L68.2331,69.4079 L68.2331,74.9729 L62.4131,74.9729 L62.4131,57.4249 C62.4131,56.3999 62.6281,55.5239 63.0561,54.8009 C63.4841,54.0789 64.0401,53.4879 64.7251,53.0319 C65.4091,52.5749 66.1891,52.2429 67.0641,52.0329 C67.9381,51.8239 68.8241,51.7199 69.7171,51.7199 C70.5921,51.7199 71.4681,51.8279 72.3421,52.0479 C73.2171,52.2669 74.0061,52.6089 74.7101,53.0749 C75.4141,53.5399 75.9801,54.1359 76.4081,54.8579 C76.8361,55.5799 77.0491,56.4369 77.0491,57.4249 L77.0491,74.9729 L71.1441,74.9729 Z" id="Fill-60"></path>
                <path d="M85.2095,57.1406 C84.8665,57.1406 84.5995,57.2546 84.4105,57.4836 C84.2195,57.7106 84.1255,58.0066 84.1255,58.3676 L84.1255,68.5526 C84.1255,69.2006 84.3195,69.6196 84.7095,69.8086 C85.0995,69.9986 85.5615,70.0926 86.0935,70.0926 C86.7395,70.0926 87.2255,69.9936 87.5495,69.7946 C87.8715,69.5946 88.0335,69.2006 88.0335,68.6096 L88.0335,65.9556 L86.0655,65.9556 L86.0655,61.0776 L93.1985,61.0776 C93.1985,62.3906 93.2025,63.6886 93.2125,64.9726 C93.2225,66.2556 93.2175377,67.5546 93.1985,68.8676 C93.1985,71.0356 92.7595,72.6236 91.8855,73.6316 C91.0105,74.6396 89.5355,75.1436 87.4625,75.1436 L83.8975,75.1436 C81.9755,75.1436 80.5825,74.6786 79.7175,73.7446 C78.8515,72.8146 78.4185,71.4546 78.4185,69.6646 L78.4185,56.8556 C78.5335,55.6956 78.7665,54.7916 79.1175,54.1446 C79.4695,53.4986 79.9265,53.0166 80.4865,52.7036 C81.0475,52.3886 81.7135,52.2006 82.4845,52.1326 C83.2545,52.0676 84.1055,52.0336 85.0385,52.0336 L92.0575,52.0336 L92.0575,57.1406 L85.2095,57.1406 Z" id="Fill-62"></path>
                <path d="M106.2656,57.1689 L101.1296,57.1689 C100.8636,57.1689 100.6256,57.1969 100.4156,57.2549 C100.2066,57.3119 100.1026,57.5029 100.1026,57.8239 L100.1026,60.2209 C100.1026,60.5079 100.1916,60.7119 100.3736,60.8359 C100.5546,60.9589 100.8066,61.0209 101.1296,61.0209 L106.4656,61.0209 L106.4656,65.9559 L101.1296,65.9559 C100.7306,65.9559 100.4586,66.0279 100.3156,66.1709 C100.1746,66.3129 100.1026,66.5649 100.1026,66.9269 L100.1026,68.7529 C100.1026,69.0569 100.1396,69.3049 100.2176,69.4949 C100.2916,69.6849 100.5976,69.7999 101.1296,69.8369 L106.3786,69.8369 L106.3786,74.9729 L99.5596,74.9729 C98.3626,74.9729 97.4246,74.8549 96.7496,74.6159 C96.0746,74.3789 95.5756,73.9319 95.2516,73.2749 C94.9276,72.6189 94.7336,71.7109 94.6666,70.5509 C94.5996,69.3909 94.5666,67.8879 94.5666,66.0429 L94.5666,59.5369 C94.5666,57.9399 94.6106,56.6509 94.6956,55.6709 C94.7816,54.6909 94.9856,53.9359 95.3096,53.4029 C95.6316,52.8709 96.1266,52.5149 96.7936,52.3319 C97.4586,52.1519 98.3806,52.0619 99.5596,52.0619 L106.2656,52.0619 L106.2656,57.1689 Z" id="Fill-64"></path>
                <path d="M119.6182,57.1406 L114.7672,57.1406 C114.4442,57.1406 114.2412,57.2836 114.1542,57.5686 C114.0692,57.8526 114.0262,58.1286 114.0262,58.3956 L113.9702,58.3956 L113.9702,59.9646 C113.9702,60.4036 114.0692,60.6556 114.2692,60.7206 C114.4692,60.7876 114.7782,60.8206 115.1952,60.8206 C115.4812,60.8206 115.7662,60.8116 116.0512,60.7916 C116.3372,60.7746 116.6312,60.7636 116.9372,60.7636 C117.6212,60.7636 118.2152,60.8826 118.7192,61.1196 C119.2232,61.3596 119.5512,61.8476 119.7032,62.5886 C119.8752,63.3886 119.9902,64.1926 120.0462,65.0006 C120.1032,65.8086 120.1312,66.6126 120.1312,67.4116 C120.1312,68.9146 120.0462,70.3886 119.8752,71.8346 C119.7992,72.4606 119.6802,72.9756 119.5182,73.3746 C119.3572,73.7756 119.1382,74.0926 118.8622,74.3306 C118.5862,74.5686 118.2392,74.7306 117.8212,74.8156 C117.4022,74.9006 116.8982,74.9446 116.3092,74.9446 L108.2062,74.9446 C108.1102,74.5446 108.0542,74.1356 108.0342,73.7166 C108.0152,73.2986 108.0062,72.8896 108.0062,72.4916 C108.0062,72.0526 108.0212,71.6116 108.0492,71.1636 C108.0772,70.7166 108.1302,70.2756 108.2062,69.8366 L113.1422,69.8366 C113.3892,69.8366 113.6552,69.7606 113.9412,69.6086 C114.2262,69.4556 114.3692,69.2086 114.3692,68.8676 L114.3692,66.4706 C114.3692,66.2606 114.2872,66.1086 114.1262,66.0126 C113.9632,65.9186 113.7792,65.8566 113.5702,65.8286 C113.3592,65.7996 113.1462,65.7906 112.9272,65.7996 C112.7092,65.8086 112.5342,65.8136 112.3992,65.8136 L111.7152,65.8136 C111.1062,65.8326 110.5022,65.7566 109.9032,65.5846 C109.3052,65.4146 108.8512,65.0246 108.5492,64.4156 C108.3952,64.1116 108.2712,63.7316 108.1782,63.2756 C108.0822,62.8186 108.0112,62.3476 107.9632,61.8636 C107.9152,61.3766 107.8822,60.8966 107.8632,60.4206 C107.8442,59.9466 107.8342,59.5366 107.8342,59.1956 C107.8342,58.8326 107.8442,58.4046 107.8632,57.9116 C107.8822,57.4156 107.9152,56.9116 107.9632,56.3996 C108.0112,55.8846 108.0732,55.3906 108.1492,54.9146 C108.2232,54.4396 108.3292,54.0316 108.4622,53.6886 C108.6142,53.3076 108.8192,53.0076 109.0752,52.7886 C109.3332,52.5716 109.6272,52.4046 109.9612,52.2886 C110.2932,52.1756 110.6452,52.1046 111.0172,52.0766 C111.3872,52.0476 111.7532,52.0336 112.1142,52.0336 L114.1982,52.0336 L119.6182,52.0336 L119.6182,57.1406 Z" id="Fill-66"></path>
            </g>
        </g>
    </g>
</svg>