<?xml version="1.0" encoding="UTF-8"?>
<svg width="229px" height="131px" viewBox="0 0 229 131" version="1.1" xmlns="http://www.w3.org/2000/svg" xmlns:xlink="http://www.w3.org/1999/xlink">
    <title>camp-location-3</title>
    <defs>
        <polygon id="path-1" points="0 124 223.777 124 223.777 0.726 0 0.726"></polygon>
    </defs>
    <g id="camp-location-3" stroke="none" stroke-width="1" fill="none" fill-rule="evenodd">
        <g id="Group-65" transform="translate(112.000000, 65.500000) rotate(-2.000000) translate(-112.000000, -65.500000) translate(0.000000, 3.000000)">
            <polygon id="Fill-1" fill="#261100" points="40.3416 15.9545 10.7406 54.4795 -0.0004 54.2205 -0.0004 68.4585 40.4486 124.2745 223.7776 124.0545 222.9006 15.2375"></polygon>
            <polygon id="Fill-2" fill="#F9A31A" points="222.9003 0.9992 40.3413 1.7172 0.0003 54.2202 40.4483 110.0362 223.7783 109.8152"></polygon>
            <path d="M222.9003,0.9992 L40.3413,1.7162 L0.0003,54.2202 L40.4483,110.0362 L223.7783,109.8152 L222.9003,0.9992 Z M7.7393,54.3302 L43.2933,7.8212 L216.8333,7.1402 L217.6123,103.7072 L43.4963,103.9162 L7.7393,54.3302 Z" id="Fill-3" fill="#885932"></path>
            <path d="M5.6697,53.8548 L42.0767,106.2938 L219.8947,105.9588 L218.8927,5.4478 L42.0607,5.1098 L5.6697,53.8548 Z M41.2777,107.8248 L3.7847,53.8218 L41.2947,3.5808 L41.6787,3.5808 L220.4067,3.9208 L221.4387,107.4838 L41.2777,107.8248 Z" id="Fill-4" fill="#5F3D1C"></path>
            <polygon id="Fill-5" fill="#5F3D1C" points="38.1177 121.637 40.4487 124.274 40.4487 110.036"></polygon>
            <g id="Group-21" transform="translate(0.000000, 0.274000)">
                <path d="M41.7258,80.0935 C43.0708,85.2205 47.7218,89.0075 53.2698,89.0075 L90.3348,89.0075 C95.8828,89.0075 100.5348,85.2205 101.8788,80.0935 L41.7258,80.0935 Z" id="Fill-6" fill="#3B2314"></path>
                <path d="M90.3347,36.4821 L85.8277,36.4821 C83.6197,36.4821 81.8297,34.6921 81.8297,32.4841 L81.8297,31.0791 L61.7747,31.0791 L61.7747,32.4841 C61.7747,34.6921 59.9847,36.4821 57.7767,36.4821 L53.2697,36.4821 C47.8937,36.4821 43.3497,40.0331 41.8487,44.9171 L101.7557,44.9171 C100.2557,40.0331 95.7107,36.4821 90.3347,36.4821" id="Fill-8" fill="#3B2314"></path>
                <polygon id="Fill-10" fill="#885932" points="83.1413 31.0788 83.1413 20.9318 80.4973 20.9318 80.4973 31.0788 79.4273 31.0788 79.4273 20.9318 76.9953 20.9318 76.9953 31.0788 75.9253 31.0788 75.9253 20.9318 72.2213 20.9318 72.2213 31.0788 71.1503 31.0788 71.1503 20.9318 67.6053 20.9318 67.6053 31.0788 66.5343 31.0788 66.5343 20.9318 64.2623 20.9318 64.2623 31.0788 63.1913 31.0788 63.1913 20.9318 60.4633 20.9318 60.4633 31.0788 61.7743 31.0788 81.8293 31.0788"></polygon>
                <mask id="mask-2" fill="white">
                    <use xlink:href="#path-1"></use>
                </mask>
                <g id="Clip-13"></g>
                <polygon id="Fill-12" fill="#5F3D1C" mask="url(#mask-2)" points="63.192 31.079 64.263 31.079 64.263 20.932 63.192 20.932"></polygon>
                <polygon id="Fill-14" fill="#5F3D1C" mask="url(#mask-2)" points="66.534 31.079 67.605 31.079 67.605 20.932 66.534 20.932"></polygon>
                <polygon id="Fill-15" fill="#5F3D1C" mask="url(#mask-2)" points="79.427 31.079 80.497 31.079 80.497 20.932 79.427 20.932"></polygon>
                <polygon id="Fill-16" fill="#5F3D1C" mask="url(#mask-2)" points="75.925 31.079 76.996 31.079 76.996 20.932 75.925 20.932"></polygon>
                <polygon id="Fill-17" fill="#5F3D1C" mask="url(#mask-2)" points="71.15 31.079 72.221 31.079 72.221 20.932 71.15 20.932"></polygon>
                <path d="M71.4924,59.2312 C68.7574,59.2312 66.5344,61.4562 66.5344,64.1892 C66.5344,66.9262 68.7574,69.1512 71.4924,69.1512 C74.2274,69.1512 76.4504,66.9262 76.4504,64.1892 C76.4504,61.4562 74.2274,59.2312 71.4924,59.2312" id="Fill-18" fill="#885932" mask="url(#mask-2)"></path>
                <path d="M71.6731,70.737 L60.9531,78.301 L65.0841,66.133 L54.3241,58.646 L67.5781,58.646 L71.7141,46.519 L75.6891,58.646 L89.0271,58.646 L78.2661,66.133 L82.3971,78.301 L71.6731,70.737 Z M102.2831,77.059 L102.2831,48.43 C102.2831,47.207 102.0971,46.028 101.7561,44.917 L41.8491,44.917 C41.5071,46.028 41.3211,47.207 41.3211,48.43 L41.3211,77.059 C41.3211,78.11 41.4711,79.123 41.7261,80.093 L101.8791,80.093 C102.1341,79.123 102.2831,78.11 102.2831,77.059 L102.2831,77.059 Z" id="Fill-19" fill="#885932" mask="url(#mask-2)"></path>
                <path d="M71.4924,69.1511 C68.7574,69.1511 66.5344,66.9261 66.5344,64.1891 C66.5344,61.4561 68.7574,59.2311 71.4924,59.2311 C74.2274,59.2311 76.4504,61.4561 76.4504,64.1891 C76.4504,66.9261 74.2274,69.1511 71.4924,69.1511 L71.4924,69.1511 Z M89.0264,58.6461 L75.6894,58.6461 L71.7144,46.5191 L67.5784,58.6461 L54.3244,58.6461 L65.0844,66.1331 L60.9534,78.3011 L71.6734,70.7371 L82.3964,78.3011 L78.2654,66.1331 L89.0264,58.6461 Z" id="Fill-20" fill="#F9A31A" mask="url(#mask-2)"></path>
            </g>
            <path d="M121.946,76.6507 L120.534,77.9637 L121.655,78.5547 L121.946,76.6507 Z M118.766,79.6347 L117.3,78.8637 L122.027,74.6267 L123.607,75.4517 L122.785,81.7527 L121.298,80.9687 L121.455,79.8017 L119.631,78.8427 L118.766,79.6347 Z" id="Fill-22" fill="#3B2314"></path>
            <polygon id="Fill-23" fill="#3B2314" points="125.1799 82.7444 126.8959 78.5264 125.7549 78.0604 126.2889 76.7464 130.0759 78.2864 129.5399 79.6014 128.3989 79.1384 126.6829 83.3554"></polygon>
            <g id="Group-64" transform="translate(109.000000, 21.274000)" fill="#3B2314">
                <path d="M24.0779,61.2429 C24.5819,59.4009 26.1969,58.4939 27.8889,58.9569 C28.4969,59.1229 28.8519,59.3019 29.3079,59.7319 C29.3079,59.7319 29.0659,60.6199 28.8799,61.2969 C28.6129,60.9159 28.2889,60.5929 27.5749,60.3979 C26.5969,60.1309 25.8599,60.6959 25.5929,61.6749 C25.3399,62.5989 25.8559,63.4029 26.7659,63.6509 C27.3219,63.8049 27.7949,63.6989 28.2479,63.5489 C28.2479,63.5489 27.9129,64.7729 27.8339,65.0599 C27.3029,65.1399 26.8799,65.2109 26.2789,65.0459 C24.6169,64.5919 23.5929,63.0169 24.0779,61.2429" id="Fill-24"></path>
                <path d="M33.1653,62.2068 L32.2003,63.8828 L33.4493,64.1178 L33.1653,62.2068 Z M30.9973,66.0068 L29.3643,65.6978 L32.6463,60.2448 L34.4033,60.5678 L35.4743,66.8508 L33.8193,66.5378 L33.6243,65.3748 L31.5933,64.9908 L30.9973,66.0068 Z" id="Fill-26"></path>
                <polygon id="Fill-28" points="38.4226 67.2292 36.8536 67.0762 38.3676 61.2192 39.8736 61.3672 40.8146 64.7352 42.3736 61.6122 43.9416 61.7652 44.3066 67.8042 42.7236 67.6492 42.5916 64.1882 40.9066 67.4722 40.1766 67.4022 39.1766 63.8382"></polygon>
                <path d="M47.7659,63.0993 L47.7329,64.6643 L48.2769,64.6753 C48.7519,64.6873 49.2009,64.5483 49.2139,63.8943 C49.2269,63.3023 48.8409,63.1223 48.3279,63.1123 L47.7659,63.0993 Z M47.7379,65.8103 L47.6919,67.8893 L46.1349,67.8543 L46.2659,61.8893 C46.2659,61.8893 47.9869,61.9263 48.9289,61.9493 C49.9889,61.9723 50.7909,62.7133 50.7629,63.9913 C50.7359,65.2053 49.9039,65.8583 48.8909,65.8353 C48.4539,65.8273 47.7379,65.8103 47.7379,65.8103 L47.7379,65.8103 Z" id="Fill-30"></path>
                <path d="M55.2742,64.8952 C55.1292,62.9942 56.3442,61.5972 58.0902,61.4652 C58.7192,61.4172 59.1142,61.4652 59.6862,61.7192 C59.6862,61.7192 59.7572,62.6352 59.8092,63.3332 C59.4292,63.0662 59.0172,62.8702 58.2792,62.9262 C57.2692,63.0032 56.7662,63.7832 56.8432,64.7912 C56.9152,65.7482 57.6702,66.3312 58.6092,66.2592 C59.1852,66.2152 59.5942,65.9572 59.9702,65.6652 C59.9702,65.6652 60.0662,66.9292 60.0872,67.2242 C59.6162,67.4802 59.2412,67.6872 58.6202,67.7342 C56.9042,67.8642 55.4122,66.7272 55.2742,64.8952" id="Fill-32"></path>
                <path d="M64.1692,62.7712 L63.8052,64.6712 L65.0642,64.4832 L64.1692,62.7712 Z M63.3682,67.0712 L61.7242,67.3172 L63.0342,61.0872 L64.8012,60.8172 L67.8732,66.3982 L66.2072,66.6482 L65.6432,65.6122 L63.5972,65.9172 L63.3682,67.0712 Z" id="Fill-34"></path>
                <polygon id="Fill-36" points="70.4529 62.1911 71.2929 65.6491 69.7789 66.0161 68.3729 60.2191 69.8859 59.8531 73.4299 62.6301 72.5959 59.1951 74.0629 58.8381 75.4709 64.6351 73.9579 65.0041"></polygon>
                <polygon id="Fill-38" points="81.0022 62.8298 77.7322 63.9238 75.8372 58.2578 77.3172 57.7638 78.7812 62.1418 80.5712 61.5428"></polygon>
                <polygon id="Fill-40" points="84.2746 61.5407 82.8296 62.1237 80.5976 56.5897 82.0416 56.0067"></polygon>
                <path d="M84.2605,56.9167 C83.7355,55.8497 84.3105,54.7787 85.2595,54.3127 C85.9505,53.9717 86.7435,53.9807 87.2515,54.0437 L87.2195,55.3587 C87.2195,55.3587 86.4535,55.2067 85.9365,55.4607 C85.5945,55.6287 85.4905,55.9137 85.6295,56.1927 C85.7705,56.4787 86.1465,56.4157 86.4765,56.3827 C86.6745,56.3637 87.0025,56.3417 87.1685,56.3287 C88.1295,56.2557 88.7815,56.5427 89.1745,57.3457 C89.7375,58.4887 88.9705,59.6107 87.8975,60.1387 C87.1435,60.5097 86.4585,60.4547 85.7275,60.3817 C85.7275,60.3817 85.7355,59.2857 85.7545,59.0247 C86.1255,59.1287 86.7565,59.1747 87.2655,58.9237 C87.6565,58.7317 87.9755,58.4107 87.8345,58.1237 C87.7245,57.9007 87.6385,57.8127 87.0195,57.8747 C86.8205,57.8957 86.3465,57.9377 86.0645,57.9447 C85.2375,57.9707 84.6305,57.6707 84.2605,56.9167" id="Fill-42"></path>
                <polygon id="Fill-44" points="37.2527 23.5388 31.0657 23.5388 31.0657 5.5358 28.2677 5.5358 28.2677 0.5238 40.0507 0.5238 40.0507 5.5358 37.2527 5.5358"></polygon>
                <polygon id="Fill-46" points="47.2395 0.5241 47.2395 9.5441 49.8325 9.5441 49.8325 0.5241 56.0175 0.5241 56.0175 23.5391 49.8325 23.5391 49.8325 14.5191 47.2395 14.5191 47.2395 23.5391 41.0545 23.5391 41.0545 0.5241"></polygon>
                <path d="M63.7268,9.5437 L69.4288,9.5437 L69.4288,14.5537 L63.7268,14.5537 L63.7268,18.5287 L69.4288,18.5287 L69.4288,23.5387 L63.6588,23.5387 L62.4488,23.5047 C60.2718,23.5047 59.5808,23.3647 58.9588,22.8137 C57.8518,21.8457 57.5418,20.1177 57.5418,15.2787 L57.5418,7.9187 C57.5418,6.9867 57.6448,5.3617 57.7488,4.2217 C58.0598,1.3547 59.0618,0.5947 62.5858,0.5237 L63.6588,0.5237 L69.4288,0.5237 L69.4288,5.5357 L63.7268,5.5357 L63.7268,9.5437 Z" id="Fill-48"></path>
                <path d="M6.4592,42.115 L6.4592,42.875 C6.4592,44.362 7.0112,44.881 8.4632,44.881 L9.2232,44.881 L10.5032,44.881 L10.5032,49.89 L6.3902,49.89 L5.1812,49.856 C3.0032,49.856 2.3122,49.718 1.6912,49.165 C0.5842,48.197 0.2742,46.469 0.2742,41.596 L0.2742,34.236 C0.2742,33.373 0.3772,31.679 0.4812,30.539 C0.7922,27.707 1.7942,26.946 5.3182,26.876 L6.3902,26.876 L10.3302,26.876 L10.3302,31.887 L9.2232,31.887 L8.4632,31.887 C6.9772,31.887 6.4592,32.406 6.4592,33.891 L6.4592,34.651 L6.4592,42.115 Z" id="Fill-50"></path>
                <path d="M20.3176,39.9392 L20.3176,33.8572 C20.3176,32.4742 19.8686,31.7142 19.0056,31.7142 C18.1066,31.7142 17.7256,32.3712 17.7256,33.8572 L17.7256,39.9392 L20.3176,39.9392 Z M17.7256,49.8902 L11.5406,49.8902 L11.5406,31.6112 C11.5406,27.5672 12.4396,26.8762 17.7616,26.8762 L20.2496,26.8762 C25.5696,26.8762 26.4686,27.5332 26.4686,31.6112 L26.4686,49.8902 L20.2836,49.8902 L20.2836,45.0522 L17.7256,45.0522 L17.7256,49.8902 Z" id="Fill-52"></path>
                <path d="M33.7956,26.8757 C34.1766,28.2587 34.2456,28.6737 34.3836,29.9177 C35.0046,27.4987 35.9036,26.8757 38.6686,26.8757 C40.6036,26.8757 41.3636,27.0837 42.0206,27.8437 C42.8156,28.7767 42.9536,29.4347 42.9886,31.8537 L42.9886,34.3757 L42.9886,49.8907 L36.8036,49.8907 L36.8036,33.9947 C36.8036,32.7507 36.4226,32.1637 35.5596,32.1637 C34.6946,32.1637 34.3156,32.7507 34.3156,34.0637 L34.3156,49.8907 L28.1286,49.8907 L28.1286,32.1297 C28.1286,29.9177 28.0256,28.8457 27.5416,26.8757 L33.7956,26.8757 Z" id="Fill-54"></path>
                <polygon id="Fill-56" points="52.9783 49.8904 46.7913 49.8904 46.7913 31.8874 43.9933 31.8874 43.9933 26.8754 55.7763 26.8754 55.7763 31.8874 52.9783 31.8874"></polygon>
                <path d="M62.8982,35.8952 L68.5992,35.8952 L68.5992,40.9052 L62.8982,40.9052 L62.8982,44.8802 L68.5992,44.8802 L68.5992,49.8902 L62.8292,49.8902 L61.6202,49.8562 C59.4422,49.8562 58.7512,49.7172 58.1302,49.1652 C57.0232,48.1972 56.7132,46.4692 56.7132,41.6302 L56.7132,34.2702 C56.7132,33.3382 56.8162,31.7142 56.9202,30.5732 C57.2312,27.7072 58.2332,26.9462 61.7572,26.8752 L62.8292,26.8752 L68.5992,26.8752 L68.5992,31.8872 L62.8982,31.8872 L62.8982,35.8952 Z" id="Fill-58"></path>
                <path d="M75.7551,35.8952 L81.4571,35.8952 L81.4571,40.9052 L75.7551,40.9052 L75.7551,44.8802 L81.4571,44.8802 L81.4571,49.8902 L75.6871,49.8902 L74.4771,49.8562 C72.3001,49.8562 71.6091,49.7172 70.9871,49.1652 C69.8801,48.1972 69.5701,46.4692 69.5701,41.6302 L69.5701,34.2702 C69.5701,33.3382 69.6731,31.7142 69.7771,30.5732 C70.0881,27.7072 71.0901,26.9462 74.6141,26.8752 L75.6871,26.8752 L81.4571,26.8752 L81.4571,31.8872 L75.7551,31.8872 L75.7551,35.8952 Z" id="Fill-60"></path>
                <path d="M88.197,26.8757 C88.578,28.2587 88.647,28.6737 88.785,29.9177 C89.407,27.4987 90.306,26.8757 93.07,26.8757 C95.005,26.8757 95.765,27.0837 96.422,27.8437 C97.217,28.7767 97.356,29.4347 97.39,31.8537 L97.39,34.3757 L97.39,49.8907 L91.205,49.8907 L91.205,33.9947 C91.205,32.7507 90.824,32.1637 89.961,32.1637 C89.096,32.1637 88.717,32.7507 88.717,34.0637 L88.717,49.8907 L82.53,49.8907 L82.53,32.1297 C82.53,29.9177 82.427,28.8457 81.944,26.8757 L88.197,26.8757 Z" id="Fill-62"></path>
            </g>
        </g>
    </g>
</svg>