<?xml version="1.0" encoding="UTF-8"?>
<svg width="228px" height="131px" viewBox="0 0 228 131" version="1.1" xmlns="http://www.w3.org/2000/svg" xmlns:xlink="http://www.w3.org/1999/xlink">
    <title>camp-location-2</title>
    <g id="camp-location-2" stroke="none" stroke-width="1" fill="none" fill-rule="evenodd">
        <g id="Group-81" transform="translate(114.000000, 65.500000) rotate(-2.000000) translate(-114.000000, -65.500000) translate(2.000000, 3.000000)">
            <polygon id="Fill-1" fill="#261100" points="0 122.7178 182.552 124.3718 223.573 72.3968 223.573 58.4988 215.32 60.6908 183.853 16.0608 0.536 13.8988"></polygon>
            <polygon id="Fill-2" fill="#F9A31A" points="0.5364 0.0001 0.0004 108.8181 182.5524 110.4731 223.5724 58.4991 183.8524 2.1611"></polygon>
            <path d="M0.5364,0.0001 L0.0004,108.8181 L182.5524,110.4731 L223.5724,58.4991 L223.5724,58.4971 L183.8524,2.1611 L0.5364,0.0001 Z M6.1464,102.7581 L6.6224,6.1881 L180.7264,8.2411 L215.8344,58.2871 L179.6794,104.3301 L6.1464,102.7581 Z" id="Fill-3" fill="#885932"></path>
            <path d="M3.6258,105.5146 L179.7878,107.1996 L218.8598,57.7736 L181.4538,5.6736 L3.6258,3.6536 L3.6258,105.5146 Z M180.5218,108.7346 L180.1468,108.7316 L2.0968,107.0296 L2.0968,2.1056 L182.2458,4.1536 L220.7748,57.8186 L180.5218,108.7346 Z" id="Fill-4" fill="#5F3D1C"></path>
            <polygon id="Fill-5" fill="#5F3D1C" points="182.5524 124.372 184.5624 121.697 182.5524 110.473"></polygon>
            <polygon id="Fill-6" fill="#3B2314" points="64.5555 52.3026 64.5555 45.9806 64.5555 42.8186 75.3155 32.4206 86.0765 42.8186 86.0765 45.9806 86.0765 52.3026 86.0765 53.4116 94.7285 53.4116 94.7285 38.0666 75.0935 19.0936 55.4585 38.0666 55.4585 53.4116 64.5555 53.4116"></polygon>
            <polygon id="Fill-7" fill="#885932" points="86.076 45.9804 86.076 42.8184 75.316 32.4204 64.555 42.8184 64.555 45.9804 64.555 52.3024 64.555 53.4124 86.076 53.4124 86.076 52.3024"></polygon>
            <g id="Group-32" transform="translate(17.000000, 17.372000)">
                <path d="M40.7059,53.9228 C40.2279,53.9798 39.7299,54.0728 39.2359,54.1598 C39.4059,54.6318 39.5709,55.1098 39.7579,55.5538 C45.1219,68.2668 57.4659,69.4808 63.3589,69.2668 C64.0189,69.2428 64.5749,69.2038 65.0529,69.1598 C64.8539,68.7228 64.6129,68.2208 64.3069,67.6348 C61.5739,62.4098 54.4059,52.2868 40.7059,53.9228" id="Fill-8" fill="#885932"></path>
                <path d="M56.5931,52.1865 C56.3181,52.3565 56.0411,52.5545 55.7641,52.7485 C56.0011,52.9875 56.2381,53.2325 56.4771,53.4505 C63.3501,59.6815 71.2201,56.9235 74.7541,55.1245 C75.1491,54.9225 75.4771,54.7415 75.7561,54.5795 C75.5111,54.3685 75.2221,54.1305 74.8691,53.8605 C71.7221,51.4495 64.4841,47.3075 56.5931,52.1865" id="Fill-10" fill="#885932"></path>
                <path d="M11.0213,36.7832 C10.0983,33.7132 9.8513,30.5452 10.2843,27.3672 L14.0043,0.0402 L8.2793,0.0402 L6.1213,25.2982 C5.9193,27.6622 6.0923,30.0342 6.6393,32.3472 L14.9523,67.5242 C15.1833,68.5052 15.3263,69.5142 15.3783,70.5222 L15.8023,78.8562 L19.9003,78.8562 L19.9613,69.2322 C19.9743,67.4822 19.7233,65.7422 19.2193,64.0632 L11.0213,36.7832 Z" id="Fill-12" fill="#3B2314"></path>
                <path d="M31.5331,27.4756 L33.6271,30.4586 L33.6271,0.0396 L27.8101,0.0396 L28.6511,19.0026 C28.7851,22.0486 29.7831,24.9796 31.5331,27.4756" id="Fill-14" fill="#3B2314"></path>
                <path d="M28.7572,38.0449 L26.9072,42.3279 C26.7172,42.7659 26.3002,43.0379 25.8302,43.0379 C25.8032,43.0379 25.7782,43.0369 25.7512,43.0359 C25.2492,43.0039 24.8362,42.6709 24.6972,42.1869 L23.3002,37.3559 C23.1172,36.7239 23.0512,36.0709 23.1042,35.4159 L23.5902,29.2959 C23.6392,28.6629 24.0932,28.1689 24.7212,28.0669 C25.3542,27.9709 25.9352,28.2899 26.1842,28.8769 L28.7692,35.0049 C29.1762,35.9739 29.1722,37.0819 28.7572,38.0449 L28.7572,38.0449 Z M33.6272,37.3449 L33.6272,32.0539 L30.7832,28.0019 C28.9322,25.3629 27.8782,22.2649 27.7342,19.0429 L26.8912,0.0399 L22.6212,0.0399 C22.0942,4.9449 20.8992,16.6919 19.1882,33.8029 C18.9762,35.9209 19.1612,38.0339 19.7372,40.0829 L25.2842,59.8319 C25.6322,61.0729 25.8512,62.3559 25.9382,63.6429 L26.9452,78.8569 L30.2182,78.8569 L27.8032,52.4149 C27.4742,48.8139 29.7432,45.4169 33.1952,44.3399 L44.0122,40.9659 C45.4312,40.5239 46.9002,40.3689 48.3872,40.5069 L77.8982,43.2649 L77.9502,37.2629 L33.6272,37.3449 Z" id="Fill-16" fill="#3B2314"></path>
                <path d="M0.9588,47.9912 L0.9588,78.8562 L7.7138,78.8562 L8.2398,70.4432 C8.3768,68.2302 8.0368,66.0652 7.2288,64.0072 C4.5548,57.1992 2.5188,51.9952 0.9588,47.9912" id="Fill-18" fill="#3B2314"></path>
                <path d="M24.3997,60.0801 L18.8537,40.3311 C18.2477,38.1711 18.0517,35.9441 18.2747,33.7121 C20.3817,12.6381 21.2947,3.7891 21.6987,0.0401 L14.9287,0.0401 L11.1917,27.4911 C10.7767,30.5381 11.0157,33.5751 11.8997,36.5191 L20.0977,63.8011 C20.6277,65.5661 20.8907,67.3971 20.8787,69.2381 L20.8177,78.8561 L26.0247,78.8561 L25.0207,63.7021 C24.9407,62.4791 24.7317,61.2611 24.3997,60.0801" id="Fill-20" fill="#3B2314"></path>
                <path d="M44.1917,46.4521 C46.0017,45.2651 48.1787,44.7671 50.3287,45.0551 L60.0977,46.3491 L75.4887,43.9611 L48.3007,41.4211 C46.9407,41.2931 45.5887,41.4351 44.2857,41.8421 L33.4667,45.2171 C30.4247,46.1641 28.4267,49.1561 28.7167,52.3311 L31.1397,78.8561 L33.6277,78.8561 L33.6277,50.4571 L39.4547,49.5531 L44.1917,46.4521 Z" id="Fill-22" fill="#3B2314"></path>
                <path d="M14.0589,67.7344 L5.7459,32.5584 C5.1789,30.1494 4.9959,27.6804 5.2069,25.2194 L7.3589,0.0404 L0.9589,0.0404 L0.9589,45.4594 C2.8009,50.1984 5.2069,56.3514 8.0829,63.6724 C8.9399,65.8544 9.3019,68.1524 9.1569,70.5004 L8.6339,78.8564 L14.8829,78.8564 L14.4619,70.5704 C14.4129,69.6164 14.2769,68.6634 14.0589,67.7344" id="Fill-24" fill="#3B2314"></path>
                <path d="M25.3392,29.2334 C25.2432,29.0054 25.0602,28.9664 24.9442,28.9664 C24.9122,28.9664 24.8852,28.9694 24.8692,28.9724 C24.7892,28.9854 24.5292,29.0514 24.5042,29.3684 L24.0172,35.4894 C23.9742,36.0334 24.0292,36.5754 24.1822,37.0994 L25.5782,41.9324 C25.6242,42.0904 25.7562,42.1164 25.8112,42.1194 C25.8502,42.1224 25.9982,42.1164 26.0652,41.9634 L27.9152,37.6804 C28.2312,36.9474 28.2362,36.1004 27.9242,35.3624 L25.3392,29.2334 Z" id="Fill-26" fill="#3B2314"></path>
                <path d="M44.6932,47.2197 L41.6492,49.2117 L56.8792,46.8487 L50.2102,45.9637 C48.2852,45.7087 46.3212,46.1557 44.6932,47.2197" id="Fill-28" fill="#3B2314"></path>
                <path d="M30.7835,28.0019 L33.6275,32.0539 L33.6275,30.4589 L31.5335,27.4759 C29.7835,24.9799 28.7855,22.0489 28.6515,19.0029 L27.8105,0.0399 L26.8915,0.0399 L27.7345,19.0429 C27.8775,22.2649 28.9315,25.3629 30.7835,28.0019" id="Fill-30" fill="#F9A31A"></path>
            </g>
            <polygon id="Fill-33" fill="#3B2314" points="122.9154 49.83 117.4874 49.83 117.4874 32.002 113.5734 32.002 114.0304 26.888 126.6294 26.888 127.1164 32.002 122.9154 32.002"></polygon>
            <g id="Group-80" transform="translate(101.000000, 16.372000)" fill="#3B2314">
                <path d="M36.3148,17.2295 C36.3148,16.7915 36.2198,16.4395 36.0298,16.1715 C35.8388,15.9055 35.5148,15.7525 35.0578,15.7145 C34.7908,15.6765 34.5438,15.6675 34.3148,15.6865 C34.0868,15.7065 33.8108,15.7145 33.4868,15.7145 L33.4868,19.7725 C33.7718,19.7725 34.0528,19.7915 34.3288,19.8295 C34.6058,19.8685 34.8668,19.8485 35.1138,19.7725 C35.4578,19.6765 35.7428,19.5405 35.9718,19.3585 C36.1998,19.1775 36.3148,18.8965 36.3148,18.5155 L36.3148,17.2295 Z M37.0868,33.4585 C36.7048,33.1155 36.5048,32.6965 36.4868,32.2005 C36.4668,31.7055 36.4588,31.2195 36.4588,30.7435 C36.4588,30.1345 36.4768,29.5535 36.5148,29.0005 C36.5528,28.4485 36.5628,27.9295 36.5438,27.4435 C36.5238,26.9585 36.4478,26.5005 36.3148,26.0725 C36.1818,25.6435 35.9518,25.2395 35.6298,24.8575 C35.3058,24.6485 34.9488,24.5485 34.5578,24.5575 C34.1678,24.5675 33.8108,24.5725 33.4868,24.5725 L33.4868,33.4585 L27.3428,33.4585 L27.3428,10.5155 L37.1438,10.5155 C37.4098,10.5155 37.8188,10.5345 38.3708,10.5725 C38.9238,10.6105 39.4808,10.7145 40.0438,10.8865 C40.6058,11.0585 41.1008,11.3205 41.5298,11.6715 C41.9578,12.0255 42.1718,12.5155 42.1718,13.1435 L42.1718,18.6295 C42.1718,19.1635 42.1388,19.6155 42.0718,19.9865 C42.0038,20.3575 41.8758,20.6715 41.6868,20.9285 C41.4948,21.1865 41.2428,21.3965 40.9288,21.5575 C40.6138,21.7195 40.2198,21.8675 39.7438,22.0005 C40.0088,22.1145 40.2328,22.2255 40.4158,22.3295 C40.5958,22.4345 40.7618,22.5425 40.9148,22.6585 C41.0668,22.7725 41.2138,22.9155 41.3578,23.0855 C41.5008,23.2575 41.6578,23.4675 41.8298,23.7145 C42.0958,24.2675 42.2718,24.8435 42.3578,25.4435 C42.4428,26.0435 42.4868,26.6535 42.4868,27.2715 C42.4868,27.8915 42.4608,28.5205 42.4148,29.1585 C42.3668,29.7955 42.3428,30.4295 42.3428,31.0575 C42.3428,31.4575 42.3478,31.8195 42.3578,32.1435 C42.3668,32.4675 42.4768,32.9055 42.6868,33.4585 L37.0868,33.4585 Z" id="Fill-34"></path>
                <path d="M55.5438,15.6582 L50.4008,15.6582 C50.1338,15.6582 49.8968,15.6862 49.6858,15.7442 C49.4768,15.8012 49.3718,15.9912 49.3718,16.3142 L49.3718,18.7152 C49.3718,19.0012 49.4618,19.2062 49.6438,19.3302 C49.8248,19.4542 50.0768,19.5142 50.4008,19.5142 L55.7438,19.5142 L55.7438,24.4582 L50.4008,24.4582 C50.0008,24.4582 49.7288,24.5292 49.5858,24.6722 C49.4438,24.8152 49.3718,25.0672 49.3718,25.4292 L49.3718,27.2582 C49.3718,27.5622 49.4098,27.8102 49.4868,28.0002 C49.5618,28.1912 49.8678,28.3052 50.4008,28.3432 L55.6568,28.3432 L55.6568,33.4862 L48.8288,33.4862 C47.6288,33.4862 46.6898,33.3672 46.0148,33.1292 C45.3388,32.8902 44.8388,32.4432 44.5148,31.7862 C44.1898,31.1292 43.9968,30.2202 43.9288,29.0572 C43.8618,27.8952 43.8288,26.3912 43.8288,24.5442 L43.8288,18.0292 C43.8288,16.4292 43.8728,15.1392 43.9578,14.1582 C44.0438,13.1782 44.2488,12.4202 44.5728,11.8872 C44.8958,11.3532 45.3908,10.9962 46.0588,10.8152 C46.7248,10.6352 47.6478,10.5442 48.8288,10.5442 L55.5438,10.5442 L55.5438,15.6582 Z" id="Fill-36"></path>
                <path d="M68.828,15.6582 L63.685,15.6582 C63.418,15.6582 63.181,15.6862 62.97,15.7442 C62.761,15.8012 62.656,15.9912 62.656,16.3142 L62.656,18.7152 C62.656,19.0012 62.746,19.2062 62.928,19.3302 C63.109,19.4542 63.361,19.5142 63.685,19.5142 L69.028,19.5142 L69.028,24.4582 L63.685,24.4582 C63.285,24.4582 63.013,24.5292 62.87,24.6722 C62.728,24.8152 62.656,25.0672 62.656,25.4292 L62.656,27.2582 C62.656,27.5622 62.694,27.8102 62.771,28.0002 C62.846,28.1912 63.152,28.3052 63.685,28.3432 L68.941,28.3432 L68.941,33.4862 L62.113,33.4862 C60.913,33.4862 59.974,33.3672 59.299,33.1292 C58.623,32.8902 58.123,32.4432 57.799,31.7862 C57.474,31.1292 57.281,30.2202 57.213,29.0572 C57.146,27.8952 57.113,26.3912 57.113,24.5442 L57.113,18.0292 C57.113,16.4292 57.157,15.1392 57.242,14.1582 C57.328,13.1782 57.533,12.4202 57.857,11.8872 C58.18,11.3532 58.675,10.9962 59.343,10.8152 C60.009,10.6352 60.932,10.5442 62.113,10.5442 L68.828,10.5442 L68.828,15.6582 Z" id="Fill-38"></path>
                <polygon id="Fill-40" points="12.4452 50.4521 9.8172 50.4521 9.8172 59.4521 3.8172 59.4521 3.8172 36.5121 9.8172 36.5121 9.8172 45.5101 12.4452 45.5101 12.4452 36.5121 18.4452 36.5121 18.4452 59.4521 12.4452 59.4521"></polygon>
                <path d="M28.472,42.4248 C28.472,42.2158 28.368,42.0068 28.159,41.7958 C27.948,41.5868 27.558,41.4828 26.988,41.4828 C26.416,41.4828 26.031,41.5868 25.83,41.7958 C25.631,42.0068 25.531,42.2158 25.531,42.4248 L25.531,53.4518 C25.531,53.6808 25.631,53.8918 25.83,54.0808 C26.031,54.2728 26.416,54.3658 26.988,54.3658 C27.558,54.3658 27.948,54.2808 28.159,54.1098 C28.368,53.9378 28.472,53.7288 28.472,53.4808 L28.472,42.4248 Z M34.415,54.7948 C34.415,55.7678 34.22,56.5718 33.83,57.2098 C33.439,57.8488 32.916,58.3588 32.259,58.7378 C31.602,59.1188 30.835,59.3918 29.958,59.5528 C29.083,59.7138 28.168,59.7958 27.217,59.7958 C26.244,59.7958 25.311,59.7188 24.416,59.5678 C23.52,59.4148 22.735,59.1478 22.058,58.7678 C21.382,58.3868 20.84,57.8708 20.431,57.2248 C20.02,56.5758 19.816,55.7678 19.816,54.7948 L19.816,40.7678 C19.816,39.7968 20.049,39.0108 20.516,38.4108 C20.983,37.8108 21.573,37.3488 22.287,37.0258 C23.002,36.7008 23.777,36.4818 24.617,36.3678 C25.454,36.2528 26.253,36.1958 27.016,36.1958 C27.739,36.1958 28.535,36.2488 29.401,36.3538 C30.269,36.4588 31.074,36.6768 31.816,37.0098 C32.558,37.3448 33.178,37.8108 33.673,38.4108 C34.168,39.0108 34.415,39.7968 34.415,40.7678 L34.415,54.7948 Z" id="Fill-42"></path>
                <path d="M41.8148,52.167 C41.8148,52.548 41.8298,52.887 41.8578,53.181 C41.8868,53.477 41.9478,53.729 42.0438,53.938 C42.1388,54.148 42.2818,54.306 42.4718,54.41 C42.6628,54.515 42.9198,54.566 43.2438,54.566 C43.5858,54.566 43.8618,54.515 44.0728,54.41 C44.2818,54.306 44.4338,54.148 44.5298,53.938 C44.6248,53.729 44.6868,53.477 44.7148,53.181 C44.7428,52.887 44.7578,52.548 44.7578,52.167 L44.7578,36.512 L50.9298,36.512 L50.9298,54.338 C50.9298,55.139 50.7908,55.858 50.5148,56.496 C50.2378,57.134 49.8858,57.682 49.4578,58.139 C49.0288,58.596 48.5518,58.948 48.0298,59.195 C47.5058,59.443 47.0048,59.567 46.5288,59.567 L40.0718,59.567 C39.5388,59.567 39.0148,59.452 38.5018,59.224 C37.9858,58.995 37.5288,58.658 37.1288,58.21 C36.7298,57.762 36.4058,57.214 36.1578,56.567 C35.9098,55.92 35.7868,55.178 35.7868,54.338 L35.7868,36.512 L41.8148,36.512 L41.8148,52.167 Z" id="Fill-44"></path>
                <path d="M64.1004,41.624 L59.2424,41.624 C58.9184,41.624 58.7154,41.768 58.6284,42.053 C58.5434,42.34 58.5004,42.616 58.5004,42.882 L58.4434,42.882 L58.4434,44.452 C58.4434,44.892 58.5434,45.144 58.7444,45.21 C58.9444,45.277 59.2534,45.31 59.6714,45.31 C59.9574,45.31 60.2434,45.301 60.5284,45.281 C60.8154,45.264 61.1094,45.253 61.4154,45.253 C62.1004,45.253 62.6954,45.372 63.2004,45.61 C63.7044,45.849 64.0334,46.339 64.1854,47.082 C64.3574,47.881 64.4724,48.686 64.5284,49.495 C64.5854,50.305 64.6144,51.109 64.6144,51.91 C64.6144,53.415 64.5284,54.891 64.3574,56.339 C64.2814,56.966 64.1614,57.481 64.0004,57.882 C63.8384,58.282 63.6194,58.6 63.3434,58.839 C63.0664,59.076 62.7194,59.239 62.3004,59.324 C61.8814,59.409 61.3764,59.452 60.7864,59.452 L52.6724,59.452 C52.5764,59.053 52.5194,58.644 52.5004,58.224 C52.4814,57.806 52.4724,57.395 52.4724,56.996 C52.4724,56.557 52.4874,56.115 52.5154,55.667 C52.5434,55.219 52.5964,54.777 52.6724,54.338 L57.6154,54.338 C57.8624,54.338 58.1284,54.262 58.4154,54.109 C58.7004,53.957 58.8444,53.709 58.8444,53.367 L58.8444,50.968 C58.8444,50.757 58.7614,50.604 58.6004,50.51 C58.4374,50.415 58.2524,50.353 58.0434,50.324 C57.8324,50.296 57.6194,50.287 57.3994,50.296 C57.1824,50.305 57.0054,50.31 56.8714,50.31 L56.1854,50.31 C55.5764,50.329 54.9724,50.253 54.3714,50.081 C53.7724,49.91 53.3184,49.52 53.0154,48.91 C52.8614,48.605 52.7384,48.225 52.6434,47.768 C52.5484,47.311 52.4764,46.839 52.4294,46.353 C52.3814,45.868 52.3484,45.388 52.3294,44.911 C52.3094,44.435 52.3004,44.024 52.3004,43.682 C52.3004,43.32 52.3094,42.893 52.3294,42.396 C52.3484,41.9 52.3814,41.395 52.4294,40.882 C52.4764,40.367 52.5394,39.873 52.6154,39.396 C52.6904,38.92 52.7964,38.511 52.9294,38.167 C53.0814,37.787 53.2864,37.486 53.5424,37.269 C53.8014,37.049 54.0954,36.882 54.4304,36.769 C54.7634,36.653 55.1154,36.582 55.4874,36.553 C55.8574,36.524 56.2254,36.512 56.5864,36.512 L58.6724,36.512 L64.1004,36.512 L64.1004,41.624 Z" id="Fill-46"></path>
                <path d="M77.6995,41.6523 L72.5565,41.6523 C72.2895,41.6523 72.0525,41.6823 71.8415,41.7393 C71.6325,41.7963 71.5275,41.9873 71.5275,42.3093 L71.5275,44.7113 C71.5275,44.9963 71.6175,45.2013 71.7995,45.3243 C71.9805,45.4483 72.2325,45.5093 72.5565,45.5093 L77.8995,45.5093 L77.8995,50.4523 L72.5565,50.4523 C72.1565,50.4523 71.8845,50.5243 71.7415,50.6683 C71.5995,50.8093 71.5275,51.0613 71.5275,51.4243 L71.5275,53.2533 C71.5275,53.5563 71.5655,53.8043 71.6425,53.9963 C71.7175,54.1853 72.0235,54.3003 72.5565,54.3383 L77.8125,54.3383 L77.8125,59.4803 L70.9845,59.4803 C69.7845,59.4803 68.8455,59.3633 68.1705,59.1243 C67.4945,58.8863 66.9935,58.4383 66.6705,57.7813 C66.3455,57.1243 66.1525,56.2153 66.0845,55.0533 C66.0175,53.8913 65.9845,52.3863 65.9845,50.5393 L65.9845,44.0243 C65.9845,42.4243 66.0285,41.1343 66.1135,40.1533 C66.1995,39.1733 66.4045,38.4153 66.7285,37.8813 C67.0515,37.3483 67.5465,36.9923 68.2145,36.8093 C68.8805,36.6293 69.8035,36.5403 70.9845,36.5403 L77.6995,36.5403 L77.6995,41.6523 Z" id="Fill-48"></path>
                <path d="M4.9725,64.3633 L3.5605,65.6763 L4.6815,66.2673 L4.9725,64.3633 Z M1.7915,67.3473 L0.3255,66.5773 L5.0535,62.3403 L6.6335,63.1643 L5.8105,69.4663 L4.3245,68.6813 L4.4805,67.5153 L2.6575,66.5563 L1.7915,67.3473 Z" id="Fill-50"></path>
                <polygon id="Fill-52" points="8.2059 70.458 9.9219 66.239 8.7809 65.774 9.3159 64.459 13.1019 66 12.5669 67.314 11.4259 66.851 9.7089 71.069"></polygon>
                <path d="M16.1043,70.2305 C16.6083,68.3885 18.2233,67.4815 19.9153,67.9435 C20.5233,68.1095 20.8783,68.2885 21.3343,68.7195 C21.3343,68.7195 21.0923,69.6065 20.9063,70.2835 C20.6393,69.9025 20.3153,69.5805 19.6003,69.3855 C18.6233,69.1175 17.8863,69.6835 17.6193,70.6615 C17.3663,71.5855 17.8813,72.3905 18.7923,72.6375 C19.3483,72.7925 19.8203,72.6865 20.2743,72.5365 C20.2743,72.5365 19.9393,73.7595 19.8603,74.0465 C19.3293,74.1265 18.9063,74.1975 18.3053,74.0335 C16.6433,73.5785 15.6193,72.0045 16.1043,70.2305" id="Fill-54"></path>
                <path d="M25.1917,71.1943 L24.2257,72.8703 L25.4757,73.1053 L25.1917,71.1943 Z M23.0237,74.9943 L21.3907,74.6843 L24.6727,69.2313 L26.4297,69.5543 L27.5007,75.8373 L25.8447,75.5253 L25.6507,74.3623 L23.6197,73.9783 L23.0237,74.9943 Z" id="Fill-56"></path>
                <polygon id="Fill-58" points="30.4486 76.2168 28.8796 76.0628 30.3936 70.2068 31.9006 70.3548 32.8406 73.7228 34.4006 70.5988 35.9676 70.7518 36.3326 76.7918 34.7496 76.6368 34.6176 73.1758 32.9326 76.4588 32.2026 76.3888 31.2026 72.8258"></polygon>
                <path d="M39.7923,72.0859 L39.7593,73.6519 L40.3033,73.6629 C40.7783,73.6739 41.2263,73.5359 41.2403,72.8809 C41.2533,72.2899 40.8673,72.1089 40.3533,72.0989 L39.7923,72.0859 Z M39.7643,74.7979 L39.7183,76.8759 L38.1603,76.8419 L38.2923,70.8759 C38.2923,70.8759 40.0133,70.9139 40.9553,70.9359 C42.0153,70.9589 42.8173,71.6999 42.7893,72.9789 C42.7623,74.1919 41.9303,74.8449 40.9173,74.8229 C40.4803,74.8139 39.7643,74.7979 39.7643,74.7979 L39.7643,74.7979 Z" id="Fill-60"></path>
                <path d="M47.3001,73.8828 C47.1561,71.9818 48.3711,70.5848 50.1171,70.4528 C50.7451,70.4038 51.1401,70.4528 51.7131,70.7068 C51.7131,70.7068 51.7831,71.6218 51.8351,72.3208 C51.4551,72.0538 51.0431,71.8578 50.3051,71.9138 C49.2961,71.9898 48.7921,72.7698 48.8691,73.7788 C48.9411,74.7358 49.6971,75.3188 50.6351,75.2458 C51.2111,75.2018 51.6201,74.9448 51.9961,74.6528 C51.9961,74.6528 52.0921,75.9168 52.1141,76.2118 C51.6421,76.4668 51.2671,76.6738 50.6471,76.7208 C48.9301,76.8518 47.4381,75.7148 47.3001,73.8828" id="Fill-62"></path>
                <path d="M56.1956,71.7588 L55.8316,73.6578 L57.0906,73.4708 L56.1956,71.7588 Z M55.3946,76.0588 L53.7506,76.3038 L55.0606,70.0748 L56.8266,69.8038 L59.8996,75.3858 L58.2336,75.6348 L57.6686,74.5988 L55.6236,74.9048 L55.3946,76.0588 Z" id="Fill-64"></path>
                <polygon id="Fill-66" points="62.4793 71.1787 63.3193 74.6367 61.8053 75.0027 60.3993 69.2067 61.9123 68.8397 65.4563 71.6167 64.6223 68.1817 66.0893 67.8257 67.4973 73.6217 65.9843 73.9907"></polygon>
                <polygon id="Fill-68" points="73.0282 71.8164 69.7582 72.9114 67.8632 67.2444 69.3432 66.7514 70.8072 71.1294 72.5972 70.5294"></polygon>
                <polygon id="Fill-70" points="76.3011 70.5283 74.8561 71.1113 72.6241 65.5763 74.0671 64.9933"></polygon>
                <path d="M76.2869,65.9043 C75.7619,64.8373 76.3369,63.7663 77.2859,63.2993 C77.9769,62.9593 78.7699,62.9683 79.2779,63.0313 L79.2459,64.3463 C79.2459,64.3463 78.4799,64.1943 77.9629,64.4483 C77.6209,64.6163 77.5169,64.9013 77.6549,65.1793 C77.7959,65.4663 78.1729,65.4023 78.5029,65.3703 C78.7009,65.3503 79.0289,65.3293 79.1949,65.3163 C80.1559,65.2433 80.8079,65.5293 81.2009,66.3323 C81.7639,67.4763 80.9969,68.5983 79.9229,69.1253 C79.1689,69.4973 78.4849,69.4423 77.7539,69.3683 C77.7539,69.3683 77.7619,68.2723 77.7809,68.0123 C78.1519,68.1163 78.7829,68.1613 79.2919,67.9103 C79.6819,67.7193 80.0019,67.3983 79.8609,67.1113 C79.7509,66.8883 79.6649,66.8003 79.0459,66.8623 C78.8469,66.8823 78.3729,66.9253 78.0909,66.9323 C77.2639,66.9583 76.6569,66.6583 76.2869,65.9043" id="Fill-72"></path>
                <polygon id="Fill-74" points="34.6575 6.0195 34.6575 1.4985 33.4345 1.4985 33.4345 0.0915 37.4915 0.0915 37.4915 1.4985 36.2665 1.4985 36.2665 6.0195"></polygon>
                <polygon id="Fill-76" points="38.2342 6.0117 38.2342 0.0837 39.7812 0.0837 39.7812 2.3127 41.9492 2.3127 41.9492 0.0837 43.4962 0.0837 43.4962 6.0117 41.9492 6.0117 41.9492 3.6047 39.7812 3.6047 39.7812 6.0117"></polygon>
                <polygon id="Fill-78" points="44.8143 6.0117 44.8143 0.0837 48.2503 0.0837 48.2503 1.4297 46.3613 1.4297 46.3613 2.3897 48.1423 2.3897 48.1423 3.7057 46.3613 3.7057 46.3613 4.6967 48.2813 4.6967 48.2813 6.0117"></polygon>
            </g>
        </g>
    </g>
</svg>