<?xml version="1.0" encoding="UTF-8"?>
<svg width="230px" height="140px" viewBox="0 0 230 140" version="1.1" xmlns="http://www.w3.org/2000/svg" xmlns:xlink="http://www.w3.org/1999/xlink">
    <title>camp-location-1</title>
    <defs>
        <polygon id="path-1" points="0 126 225.262 126 225.262 0.911 0 0.911"></polygon>
    </defs>
    <g id="camp-location-1" stroke="none" stroke-width="1" fill="none" fill-rule="evenodd">
        <g id="Group-54" transform="translate(113.000000, 67.500000) rotate(4.000000) translate(-113.000000, -67.500000) translate(0.000000, 4.000000)">
            <polygon id="Fill-1" fill="#261100" points="12.8466 53.0297 -0.0004 52.8667 -0.0004 68.6297 41.1876 124.0547 224.7536 126.0887 224.4996 111.5967 42.7136 16.7637"></polygon>
            <polygon id="Fill-2" fill="#F9A31A" points="42.714 0.9998 0 52.8668 41.188 109.3088 224.5 111.8508 225.262 3.0338"></polygon>
            <path d="M42.714,0.9998 L0,52.8668 L41.188,109.3088 L224.5,111.8508 L225.262,3.0338 L42.714,0.9998 Z M44.328,103.2358 L7.737,53.0928 L45.573,7.1488 L219.103,9.0828 L218.426,105.6498 L44.328,103.2358 Z" id="Fill-3" fill="#885932"></path>
            <path d="M43.1057,105.2873 L221.1107,107.3083 L221.4437,6.9703 L44.2567,5.1173 L4.8657,52.8543 L43.1057,105.2873 Z M222.6337,108.8543 L42.3217,106.8073 L2.9307,52.7963 L43.5427,3.5813 L222.9787,5.4573 L222.6337,108.8543 Z" id="Fill-4" fill="#5F3D1C"></path>
            <polygon id="Fill-5" fill="#5F3D1C" points="41.1877 124.0549 41.1877 109.3089 38.6457 121.0479"></polygon>
            <g id="Group-20" transform="translate(39.000000, 15.089000)">
                <path d="M43.5271,27.3722 L33.1521,5.3492 C32.4341,4.0052 31.5101,3.2502 30.5661,3.2502 C29.6241,3.2502 28.7001,4.0052 27.9681,5.3762 L17.6071,27.3722 C17.2011,28.2342 16.9771,29.3592 16.9771,30.5422 L16.9771,62.6152 L30.1031,62.6152 C28.7701,59.6132 24.1191,56.9252 24.1191,56.9252 L24.2231,56.9252 C21.4851,55.0892 19.6961,51.7792 19.8531,46.7192 C19.9121,44.8092 20.2271,43.0072 20.8761,41.3862 L30.5131,12.1562 L30.5471,12.0532 L30.5811,12.1562 L40.1901,41.2982 C40.7641,43.0812 41.1831,44.7752 41.2491,46.7192 C41.4151,51.6392 39.5591,55.0352 36.7341,56.9252 L36.7771,56.9252 C36.7771,56.9252 32.1261,59.6132 30.7931,62.6152 L44.1561,62.6152 L44.1561,30.5422 C44.1561,29.3592 43.9321,28.2342 43.5271,27.3722" id="Fill-6" fill="#3B2314"></path>
                <path d="M52.3366,27.4845 L35.2446,5.4605 C34.8366,4.9975 34.3716,4.6285 33.8846,4.3035 C33.9946,4.4765 34.1156,4.6215 34.2186,4.8125 L44.6056,26.8645 C45.0856,27.8815 45.3486,29.1875 45.3486,30.5425 L45.3486,62.6155 L53.3416,62.6155 L53.3416,30.5425 C53.3416,29.4055 52.9846,28.3195 52.3366,27.4845" id="Fill-8" fill="#3B2314"></path>
                <path d="M16.5276,26.8644 L26.9026,4.8414 C27.0096,4.6394 27.1346,4.4884 27.2496,4.3084 C26.7566,4.6374 26.2836,5.0134 25.8656,5.4884 L8.7966,27.4844 C8.1496,28.3194 7.7916,29.4054 7.7916,30.5424 L7.7916,62.6154 L15.7846,62.6154 L15.7846,30.5424 C15.7846,29.1874 16.0486,27.8824 16.5276,26.8644" id="Fill-10" fill="#3B2314"></path>
                <path d="M7.8557,26.753 L24.9477,4.729 C26.4717,2.995 28.4587,2.057 30.5657,2.057 C32.6747,2.057 34.6627,2.995 36.1627,4.7 L53.2777,26.753 C54.0887,27.797 54.5347,29.142 54.5347,30.542 L54.5347,62.615 L60.4107,62.615 L60.4107,30.973 C60.4107,30.283 60.2817,29.606 60.0377,28.972 C59.7937,28.339 59.4337,27.75 58.9707,27.238 L52.1057,19.655 L52.0697,19.616 L37.2167,3.211 C33.5687,-0.34 27.7577,-0.34 24.1107,3.211 L2.3557,27.238 C1.4297,28.262 0.9167,29.593 0.9167,30.973 L0.9167,62.615 L6.5987,62.615 L6.5987,30.542 C6.5987,29.142 7.0447,27.797 7.8557,26.753" id="Fill-12" fill="#3B2314"></path>
                <polygon id="Fill-14" fill="#885932" points="31.5232 64.7189 31.0462 64.7189 30.8022 64.7189 30.3132 64.7189 30.0692 64.7189 29.5922 64.7189 29.5202 64.7189 16.9472 64.7189 16.9472 70.1819 28.1212 66.7189 19.3062 72.5869 22.3342 77.1339 29.5412 68.2749 27.4982 79.1219 30.3132 79.1219 30.8022 79.1219 33.6172 79.1219 31.5742 68.2749 38.7812 77.1339 41.8082 72.5869 32.9952 66.7189 44.1682 70.1819 44.1682 64.7189 31.5952 64.7189"></polygon>
                <path d="M36.2634,48.2013 C36.2194,47.1643 36.0564,46.1833 35.6974,45.3063 L30.5674,29.7453 L30.5494,29.6903 L30.5314,29.7453 L25.3844,45.3533 C25.0374,46.2193 24.8974,47.1833 24.8384,48.2013 C24.5304,53.5093 27.3964,54.9063 30.5514,54.9063 C33.7054,54.9063 36.4814,53.3103 36.2634,48.2013" id="Fill-16" fill="#885932"></path>
                <path d="M45.3488,62.6153 L45.3488,30.5423 C45.3488,29.1873 45.0858,27.8823 44.6058,26.8643 L34.2188,4.8123 C34.1158,4.6213 33.9948,4.4763 33.8848,4.3033 C34.3708,4.6283 34.8368,4.9973 35.2448,5.4603 L52.3368,27.4843 C52.9848,28.3193 53.3418,29.4053 53.3418,30.5423 L53.3418,62.6153 L45.3488,62.6153 Z" id="Fill-18" fill="#3B2314"></path>
            </g>
            <g id="Group-53" transform="translate(0.000000, 0.089000)">
                <path d="M130.3117,47.464 L130.3117,44.465 C128.9507,42.905 127.9217,41.206 127.2227,39.367 C126.5217,37.527 126.0527,35.649 125.8127,33.729 C125.7127,32.93 125.6627,32.1 125.6627,31.24 L125.6627,28.691 L125.6627,26.382 L132.0507,26.382 L132.0507,31.18 C132.0507,31.619 132.0557,32.14 132.0647,32.739 C132.0747,33.339 132.1237,33.959 132.2117,34.598 C132.2997,35.238 132.4367,35.884 132.6227,36.533 C132.8087,37.183 133.0667,37.777 133.3997,38.317 C133.7797,37.777 134.0697,37.183 134.2697,36.533 C134.4697,35.884 134.6147,35.229 134.7047,34.568 C134.7947,33.908 134.8397,33.279 134.8397,32.679 L134.8397,31.12 L134.8397,26.382 L141.1377,26.382 L141.1377,28.811 C141.1377,29.63 141.1467,30.46 141.1677,31.3 C141.1877,32.14 141.1467,32.949 141.0487,33.729 C140.9077,35.028 140.6927,36.213 140.4027,37.282 C140.1127,38.353 139.7727,39.327 139.3827,40.206 C138.9927,41.087 138.5587,41.876 138.0787,42.575 C137.5987,43.276 137.1087,43.905 136.6087,44.465 L136.6087,50.463 L130.3117,50.463 L130.3117,47.464 Z" id="Fill-21" fill="#3B2314"></path>
                <path d="M148.7854,42.8155 C148.7854,43.2155 148.8014,43.5705 148.8304,43.8805 C148.8604,44.1905 148.9254,44.4555 149.0254,44.6745 C149.1254,44.8955 149.2764,45.0595 149.4754,45.1695 C149.6764,45.2805 149.9454,45.3355 150.2854,45.3355 C150.6444,45.3355 150.9344,45.2805 151.1554,45.1695 C151.3744,45.0595 151.5354,44.8955 151.6354,44.6745 C151.7354,44.4555 151.7994,44.1905 151.8294,43.8805 C151.8594,43.5705 151.8744,43.2155 151.8744,42.8155 L151.8744,26.3815 L158.3534,26.3815 L158.3534,45.0945 C158.3534,45.9345 158.2074,46.6895 157.9174,47.3585 C157.6274,48.0285 157.2574,48.6035 156.8074,49.0845 C156.3574,49.5635 155.8574,49.9325 155.3094,50.1935 C154.7594,50.4535 154.2344,50.5835 153.7344,50.5835 L146.9564,50.5835 C146.3964,50.5835 145.8464,50.4625 145.3074,50.2225 C144.7664,49.9835 144.2864,49.6275 143.8674,49.1585 C143.4484,48.6885 143.1084,48.1145 142.8484,47.4335 C142.5874,46.7535 142.4574,45.9745 142.4574,45.0945 L142.4574,26.3815 L148.7854,26.3815 L148.7854,42.8155 Z" id="Fill-23" fill="#3B2314"></path>
                <path d="M169.2077,33.4288 C169.2077,32.9688 169.1067,32.5998 168.9087,32.3198 C168.7077,32.0388 168.3677,31.8788 167.8877,31.8398 C167.6067,31.7998 167.3487,31.7898 167.1087,31.8098 C166.8687,31.8288 166.5787,31.8398 166.2387,31.8398 L166.2387,36.0978 C166.5387,36.0978 166.8327,36.1178 167.1227,36.1578 C167.4127,36.1988 167.6867,36.1778 167.9477,36.0978 C168.3077,35.9978 168.6067,35.8538 168.8467,35.6628 C169.0867,35.4738 169.2077,35.1788 169.2077,34.7788 L169.2077,33.4288 Z M170.0177,50.4628 C169.6167,50.1038 169.4067,49.6628 169.3877,49.1438 C169.3677,48.6228 169.3577,48.1148 169.3577,47.6148 C169.3577,46.9748 169.3767,46.3658 169.4177,45.7848 C169.4567,45.2048 169.4677,44.6598 169.4477,44.1508 C169.4267,43.6408 169.3477,43.1598 169.2077,42.7098 C169.0677,42.2608 168.8267,41.8368 168.4877,41.4358 C168.1477,41.2168 167.7737,41.1118 167.3627,41.1208 C166.9537,41.1308 166.5787,41.1358 166.2387,41.1358 L166.2387,50.4628 L159.7907,50.4628 L159.7907,26.3818 L170.0777,26.3818 C170.3567,26.3818 170.7857,26.4018 171.3657,26.4418 C171.9457,26.4818 172.5307,26.5908 173.1217,26.7718 C173.7107,26.9508 174.2307,27.2268 174.6817,27.5958 C175.1307,27.9658 175.3547,28.4808 175.3547,29.1408 L175.3547,34.8988 C175.3547,35.4588 175.3207,35.9328 175.2497,36.3238 C175.1797,36.7128 175.0447,37.0418 174.8457,37.3128 C174.6447,37.5818 174.3797,37.8028 174.0507,37.9718 C173.7207,38.1418 173.3067,38.2968 172.8067,38.4368 C173.0857,38.5568 173.3207,38.6728 173.5117,38.7818 C173.7017,38.8918 173.8757,39.0068 174.0357,39.1268 C174.1947,39.2468 174.3507,39.3968 174.5007,39.5758 C174.6517,39.7568 174.8157,39.9768 174.9967,40.2368 C175.2747,40.8168 175.4597,41.4208 175.5507,42.0508 C175.6407,42.6808 175.6857,43.3218 175.6857,43.9698 C175.6857,44.6198 175.6597,45.2808 175.6107,45.9498 C175.5607,46.6188 175.5357,47.2838 175.5357,47.9448 C175.5357,48.3638 175.5407,48.7428 175.5507,49.0838 C175.5607,49.4238 175.6747,49.8828 175.8957,50.4628 L170.0177,50.4628 Z" id="Fill-25" fill="#3B2314"></path>
                <polygon id="Fill-27" fill="#3B2314" points="186.3318 50.463 180.6348 50.463 180.6348 31.749 176.5258 31.749 177.0058 26.382 190.2298 26.382 190.7408 31.749 186.3318 31.749"></polygon>
                <path d="M115.1218,64.9142 C115.1218,65.3542 115.1258,65.8592 115.1368,66.4282 C115.1458,66.9992 115.1948,67.5882 115.2828,68.1972 C115.3708,68.8082 115.5078,69.4172 115.6938,70.0272 C115.8798,70.6382 116.1378,71.2122 116.4718,71.7512 C116.8508,71.2122 117.1408,70.6322 117.3408,70.0132 C117.5398,69.3922 117.6858,68.7772 117.7758,68.1682 C117.8658,67.5592 117.9108,66.9632 117.9108,66.3832 L117.9108,64.8542 L117.9108,53.6682 L124.2088,53.6682 L124.2088,62.1242 C124.2088,62.9252 124.2178,63.7492 124.2388,64.5992 C124.2578,65.4482 124.2178,66.2642 124.1188,67.0422 C123.9778,68.3442 123.7178,69.6022 123.3388,70.8212 C122.9588,72.0412 122.5538,73.1422 122.1238,74.1212 C121.6938,75.1012 121.2848,75.9162 120.8938,76.5642 C120.5048,77.2152 120.2198,77.6102 120.0398,77.7502 L113.0818,77.7502 C112.5218,77.0302 112.0128,76.2452 111.5528,75.3952 C111.0928,74.5462 110.6838,73.6622 110.3228,72.7412 C109.9628,71.8212 109.6638,70.8832 109.4228,69.9222 C109.1838,68.9632 109.0038,68.0032 108.8838,67.0422 C108.7838,66.2232 108.7338,65.3842 108.7338,64.5232 L108.7338,62.0052 L108.7338,53.6682 L115.1218,53.6682 L115.1218,64.9142 Z" id="Fill-29" fill="#3B2314"></path>
                <mask id="mask-2" fill="white">
                    <use xlink:href="#path-1"></use>
                </mask>
                <g id="Clip-32"></g>
                <polygon id="Fill-31" fill="#3B2314" mask="url(#mask-2)" points="125.738 77.75 132.036 77.75 132.036 53.668 125.738 53.668"></polygon>
                <polygon id="Fill-33" fill="#3B2314" mask="url(#mask-2)" points="133.5647 53.6681 139.8637 53.6681 139.8637 72.3811 146.2207 72.3811 145.5907 77.6901 133.5647 77.7501"></polygon>
                <polygon id="Fill-34" fill="#3B2314" mask="url(#mask-2)" points="147.24 53.6681 153.538 53.6681 153.538 72.3811 159.896 72.3811 159.265 77.6901 147.24 77.7501"></polygon>
                <path d="M170.5134,60.7755 C170.5134,60.1955 170.3884,59.7195 170.1384,59.3505 C169.8884,58.9805 169.5044,58.7955 168.9834,58.7955 C168.4634,58.7955 168.0794,58.9705 167.8284,59.3205 C167.5794,59.6705 167.4534,60.1555 167.4534,60.7755 L167.4534,66.5335 L170.5134,66.5335 L170.5134,60.7755 Z M170.5134,77.7795 L170.5134,71.9315 L167.4534,71.9315 L167.4534,77.7795 L161.3364,77.7795 L161.3364,59.3355 C161.3364,58.2555 161.5614,57.3365 162.0114,56.5765 C162.4614,55.8165 163.0464,55.1965 163.7654,54.7165 C164.4854,54.2375 165.3054,53.8875 166.2244,53.6685 C167.1434,53.4475 168.0744,53.3385 169.0134,53.3385 C169.9334,53.3385 170.8534,53.4535 171.7724,53.6825 C172.6924,53.9125 173.5214,54.2715 174.2614,54.7615 C175.0004,55.2525 175.5964,55.8775 176.0464,56.6365 C176.4964,57.3965 176.7204,58.2965 176.7204,59.3355 L176.7204,77.7795 L170.5134,77.7795 Z" id="Fill-35" fill="#3B2314" mask="url(#mask-2)"></path>
                <path d="M185.2976,59.0353 C184.9366,59.0353 184.6566,59.1553 184.4576,59.3943 C184.2566,59.6353 184.1576,59.9453 184.1576,60.3253 L184.1576,71.0313 C184.1576,71.7123 184.3616,72.1523 184.7726,72.3513 C185.1816,72.5523 185.6676,72.6503 186.2266,72.6503 C186.9056,72.6503 187.4166,72.5463 187.7566,72.3373 C188.0956,72.1273 188.2666,71.7123 188.2666,71.0913 L188.2666,68.3033 L186.1966,68.3033 L186.1966,63.1743 L193.6936,63.1743 C193.6936,64.5543 193.6986,65.9193 193.7096,67.2683 C193.7196,68.6183 193.714564,69.9833 193.6936,71.3623 C193.6936,73.6413 193.2336,75.3103 192.3146,76.3703 C191.3946,77.4303 189.8446,77.9603 187.6656,77.9603 L183.9186,77.9603 C181.8976,77.9603 180.4336,77.4713 179.5246,76.4893 C178.6136,75.5123 178.1596,74.0823 178.1596,72.2013 L178.1596,58.7353 C178.2796,57.5163 178.5246,56.5663 178.8946,55.8863 C179.2646,55.2073 179.7436,54.7023 180.3336,54.3723 C180.9226,54.0423 181.6236,53.8423 182.4336,53.7713 C183.2426,53.7023 184.1376,53.6683 185.1166,53.6683 L192.4946,53.6683 L192.4946,59.0353 L185.2976,59.0353 Z" id="Fill-36" fill="#3B2314" mask="url(#mask-2)"></path>
                <path d="M207.4294,59.0655 L202.0314,59.0655 C201.7504,59.0655 201.5014,59.0955 201.2804,59.1555 C201.0614,59.2155 200.9514,59.4155 200.9514,59.7545 L200.9514,62.2745 C200.9514,62.5735 201.0454,62.7905 201.2364,62.9195 C201.4264,63.0495 201.6914,63.1145 202.0314,63.1145 L207.6394,63.1145 L207.6394,68.3025 L202.0314,68.3025 C201.6114,68.3025 201.3254,68.3785 201.1754,68.5285 C201.0264,68.6775 200.9514,68.9425 200.9514,69.3235 L200.9514,71.2415 C200.9514,71.5615 200.9904,71.8215 201.0724,72.0225 C201.1504,72.2215 201.4714,72.3415 202.0314,72.3805 L207.5484,72.3805 L207.5484,77.7795 L200.3814,77.7795 C199.1224,77.7795 198.1364,77.6555 197.4284,77.4055 C196.7184,77.1555 196.1924,76.6855 195.8524,75.9965 C195.5124,75.3055 195.3084,74.3515 195.2384,73.1315 C195.1674,71.9125 195.1334,70.3325 195.1334,68.3935 L195.1334,61.5535 C195.1334,59.8755 195.1784,58.5215 195.2674,57.4905 C195.3584,56.4615 195.5734,55.6675 195.9134,55.1065 C196.2524,54.5465 196.7724,54.1715 197.4734,53.9815 C198.1724,53.7925 199.1404,53.6975 200.3814,53.6975 L207.4294,53.6975 L207.4294,59.0655 Z" id="Fill-37" fill="#3B2314" mask="url(#mask-2)"></path>
                <path d="M122.301,82.9962 L120.888,84.3092 L122.01,84.9002 L122.301,82.9962 Z M119.12,85.9802 L117.654,85.2092 L122.382,80.9732 L123.962,81.7972 L123.139,88.0992 L121.653,87.3142 L121.809,86.1482 L119.986,85.1892 L119.12,85.9802 Z" id="Fill-38" fill="#3B2314" mask="url(#mask-2)"></path>
                <polygon id="Fill-39" fill="#3B2314" mask="url(#mask-2)" points="125.5344 89.0909 127.2504 84.8719 126.1094 84.4069 126.6444 83.0919 130.4304 84.6329 129.8954 85.9469 128.7544 85.4839 127.0374 89.7009"></polygon>
                <path d="M133.4328,88.8634 C133.9368,87.0214 135.5508,86.1144 137.2438,86.5764 C137.8518,86.7424 138.2068,86.9214 138.6618,87.3524 C138.6618,87.3524 138.4198,88.2394 138.2348,88.9164 C137.9678,88.5354 137.6438,88.2134 136.9288,88.0184 C135.9518,87.7504 135.2148,88.3164 134.9478,89.2944 C134.6948,90.2184 135.2098,91.0234 136.1208,91.2704 C136.6768,91.4244 137.1488,91.3194 137.6028,91.1694 C137.6028,91.1694 137.2668,92.3924 137.1888,92.6794 C136.6578,92.7594 136.2348,92.8304 135.6338,92.6664 C133.9718,92.2114 132.9478,90.6374 133.4328,88.8634" id="Fill-40" fill="#3B2314" mask="url(#mask-2)"></path>
                <path d="M142.5197,89.8273 L141.5547,91.5033 L142.8037,91.7373 L142.5197,89.8273 Z M140.3527,93.6273 L138.7187,93.3173 L142.0007,87.8643 L143.7577,88.1873 L144.8287,94.4703 L143.1737,94.1583 L142.9787,92.9953 L140.9477,92.6103 L140.3527,93.6273 Z" id="Fill-41" fill="#3B2314" mask="url(#mask-2)"></path>
                <polygon id="Fill-42" fill="#3B2314" mask="url(#mask-2)" points="147.7771 94.8487 146.2081 94.6957 147.7221 88.8397 149.2291 88.9877 150.1691 92.3557 151.7291 89.2317 153.2961 89.3847 153.6611 95.4247 152.0781 95.2697 151.9461 91.8087 150.2611 95.0917 149.5311 95.0217 148.5311 91.4587"></polygon>
                <path d="M157.1208,90.7189 L157.0878,92.2849 L157.6318,92.2959 C158.1068,92.3069 158.5548,92.1689 158.5688,91.5139 C158.5818,90.9229 158.1958,90.7419 157.6818,90.7319 L157.1208,90.7189 Z M157.0928,93.4309 L157.0468,95.5089 L155.4888,95.4749 L155.6208,89.5089 C155.6208,89.5089 157.3418,89.5469 158.2838,89.5689 C159.3438,89.5919 160.1458,90.3329 160.1178,91.6109 C160.0908,92.8249 159.2588,93.4779 158.2458,93.4559 C157.8088,93.4469 157.0928,93.4309 157.0928,93.4309 L157.0928,93.4309 Z" id="Fill-43" fill="#3B2314" mask="url(#mask-2)"></path>
                <path d="M164.6286,92.5157 C164.4846,90.6147 165.6996,89.2177 167.4456,89.0857 C168.0736,89.0367 168.4686,89.0857 169.0416,89.3397 C169.0416,89.3397 169.1116,90.2547 169.1636,90.9537 C168.7836,90.6857 168.3716,90.4907 167.6336,90.5467 C166.6246,90.6227 166.1206,91.4027 166.1976,92.4117 C166.2696,93.3687 167.0246,93.9517 167.9636,93.8787 C168.5396,93.8347 168.9486,93.5777 169.3246,93.2857 C169.3246,93.2857 169.4206,94.5497 169.4416,94.8447 C168.9706,95.0997 168.5956,95.3067 167.9756,95.3537 C166.2586,95.4847 164.7666,94.3477 164.6286,92.5157" id="Fill-44" fill="#3B2314" mask="url(#mask-2)"></path>
                <path d="M173.5241,90.3917 L173.1601,92.2907 L174.4191,92.1027 L173.5241,90.3917 Z M172.7231,94.6907 L171.0791,94.9367 L172.3891,88.7077 L174.1551,88.4367 L177.2281,94.0187 L175.5621,94.2677 L174.9971,93.2317 L172.9521,93.5377 L172.7231,94.6907 Z" id="Fill-45" fill="#3B2314" mask="url(#mask-2)"></path>
                <polygon id="Fill-46" fill="#3B2314" mask="url(#mask-2)" points="179.8078 89.8116 180.6478 93.2696 179.1338 93.6356 177.7278 87.8396 179.2408 87.4726 182.7848 90.2496 181.9508 86.8146 183.4178 86.4586 184.8248 92.2546 183.3128 92.6236"></polygon>
                <polygon id="Fill-47" fill="#3B2314" mask="url(#mask-2)" points="190.3567 90.4493 187.0867 91.5433 185.1917 85.8773 186.6717 85.3843 188.1357 89.7613 189.9257 89.1623"></polygon>
                <polygon id="Fill-48" fill="#3B2314" mask="url(#mask-2)" points="193.6296 89.1612 192.1846 89.7442 189.9526 84.2092 191.3956 83.6262"></polygon>
                <path d="M193.6154,84.5372 C193.0904,83.4702 193.6654,82.3992 194.6144,81.9322 C195.3044,81.5922 196.0984,81.6012 196.6064,81.6642 L196.5744,82.9782 C196.5744,82.9782 195.8084,82.8272 195.2904,83.0812 C194.9494,83.2482 194.8454,83.5342 194.9834,83.8122 C195.1244,84.0982 195.5014,84.0352 195.8314,84.0022 C196.0294,83.9832 196.3564,83.9622 196.5234,83.9492 C197.4834,83.8752 198.1364,84.1622 198.5294,84.9652 C199.0924,86.1092 198.3254,87.2312 197.2514,87.7582 C196.4974,88.1302 195.8124,88.0742 195.0824,88.0012 C195.0824,88.0012 195.0904,86.9052 195.1094,86.6452 C195.4804,86.7492 196.1104,86.7942 196.6204,86.5432 C197.0104,86.3512 197.3304,86.0302 197.1894,85.7442 C197.0794,85.5212 196.9934,85.4332 196.3744,85.4952 C196.1754,85.5152 195.7014,85.5582 195.4194,85.5652 C194.5924,85.5902 193.9854,85.2912 193.6154,84.5372" id="Fill-49" fill="#3B2314" mask="url(#mask-2)"></path>
                <polygon id="Fill-50" fill="#3B2314" mask="url(#mask-2)" points="151.9856 22.1456 151.9856 17.6246 150.7636 17.6246 150.7636 16.2166 154.8196 16.2166 154.8196 17.6246 153.5956 17.6246 153.5956 22.1456"></polygon>
                <polygon id="Fill-51" fill="#3B2314" mask="url(#mask-2)" points="155.5627 22.1378 155.5627 16.2088 157.1097 16.2088 157.1097 18.4388 159.2777 18.4388 159.2777 16.2088 160.8247 16.2088 160.8247 22.1378 159.2777 22.1378 159.2777 19.7298 157.1097 19.7298 157.1097 22.1378"></polygon>
                <polygon id="Fill-52" fill="#3B2314" mask="url(#mask-2)" points="162.1428 22.1378 162.1428 16.2088 165.5788 16.2088 165.5788 17.5558 163.6898 17.5558 163.6898 18.5148 165.4708 18.5148 165.4708 19.8318 163.6898 19.8318 163.6898 20.8228 165.6098 20.8228 165.6098 22.1378"></polygon>
            </g>
        </g>
    </g>
</svg>