<svg width="119" height="18" xmlns="http://www.w3.org/2000/svg"><path d="M14.036 16.396l.22-1.468-.097-.1c-.23.183-.51.395-.846.635-.334.24-.71.465-1.126.672a8.637 8.637 0 0 1-1.372.535 5.653 5.653 0 0 1-1.63.224 7.452 7.452 0 0 1-2.681-.473 5.704 5.704 0 0 1-2.156-1.455c-.612-.656-1.09-1.485-1.433-2.488-.343-1.004-.514-2.194-.514-3.57 0-1.378.171-2.568.514-3.571.343-1.004.82-1.833 1.433-2.488a5.704 5.704 0 0 1 2.156-1.456A7.452 7.452 0 0 1 9.186.921c.588 0 1.127.078 1.617.236.49.158.93.352 1.322.585.392.232.735.472 1.03.721.293.249.522.473.685.672l.147-.05c.049-.265.114-.597.196-.995s.188-.713.318-.946a13.649 13.649 0 0 0-2.363-.808C11.248.112 10.264 0 9.186 0 7.83 0 6.589.199 5.463.597 4.336.995 3.368 1.576 2.56 2.34 1.75 3.102 1.123 4.035.674 5.138.224 6.24 0 7.498 0 8.908c0 1.41.225 2.666.674 3.769.449 1.103 1.07 2.036 1.861 2.799a7.515 7.515 0 0 0 2.83 1.704c1.094.373 2.286.56 3.576.56.604 0 1.184-.05 1.74-.15a16.73 16.73 0 0 0 1.506-.335c.449-.125.832-.266 1.15-.423.32-.158.552-.303.699-.436zm13.08-6.718c.425 0 .866.009 1.323.025.458.017.899.025 1.323.025a75.641 75.641 0 0 0 2.744-.05l-2.72-6.32-2.67 6.32zm10.852 7.738a4.53 4.53 0 0 0-.649-.05H36.02c-.203 0-.42.017-.648.05-.115-.381-.27-.841-.466-1.38a53.913 53.913 0 0 0-.649-1.692 909.61 909.61 0 0 0-.722-1.792c-.245-.605-.474-1.182-.686-1.729a97.472 97.472 0 0 0-6.198 0 111.512 111.512 0 0 0-1.42 3.695 41.218 41.218 0 0 0-.956 2.898 7.665 7.665 0 0 0-.906-.05c-.327 0-.629.017-.906.05a650.406 650.406 0 0 0 3.87-8.658A1234.43 1234.43 0 0 0 30.13 0h.465l1.274 3.122a796.437 796.437 0 0 0 2.817 6.805 436.516 436.516 0 0 0 2.462 5.748c.334.763.608 1.343.82 1.741zm24.447.324h.343v-.821c0-.398-.004-.867-.012-1.406a866.024 866.024 0 0 1-.05-3.595c-.007-.614-.012-1.203-.012-1.767V8.658c0-.48.017-1.12.05-1.915a298.196 298.196 0 0 1 .232-4.777c.041-.73.078-1.278.11-1.643a3.368 3.368 0 0 1-.783.125 3.48 3.48 0 0 1-.833-.125c.081 1.46.134 3.015.159 4.666.024 1.65.037 3.346.037 5.088v3.383a123.958 123.958 0 0 1-2.634-2.774 1271.22 1271.22 0 0 1-3.184-3.458 815.72 815.72 0 0 1-3.38-3.707C51.322 2.268 50.256 1.095 49.26 0h-.392c.033.564.053 1.418.061 2.563.008 1.144.012 2.513.012 4.105 0 .547-.008 1.17-.024 1.866-.016.697-.037 1.41-.061 2.14-.025.73-.058 1.46-.098 2.19-.041.729-.078 1.405-.11 2.027-.033.622-.07 1.157-.11 1.605-.042.448-.078.754-.111.92.278-.033.58-.05.906-.05.31 0 .596.017.858.05a11.746 11.746 0 0 1-.05-.759 121.53 121.53 0 0 1-.048-1.306c-.017-.497-.033-1.036-.05-1.617-.016-.58-.028-1.153-.036-1.717-.008-.564-.016-1.103-.025-1.617a83.833 83.833 0 0 1-.012-1.294 138.178 138.178 0 0 1 .073-5.05c2.124 2.289 4.247 4.59 6.37 6.904a244.011 244.011 0 0 1 6.001 6.78zM75.52 6.767v4.28c0 1.095-.02 2.173-.061 3.234a342.46 342.46 0 0 1-.135 3.135c.784-.033 1.54-.05 2.266-.05h4.52c.75 0 1.502.017 2.253.05a2.36 2.36 0 0 1-.122-.671c0-.2.04-.448.122-.747a31.08 31.08 0 0 1-3.43.286c-1.06.025-2.171.038-3.33.038-.017-1.211-.033-2.584-.05-4.118a520.011 520.011 0 0 1-.024-5.437c0-1.094.02-2.168.061-3.222.04-1.053.086-2.127.135-3.222-.213.034-.417.063-.613.088a4.663 4.663 0 0 1-1.175 0c-.196-.025-.4-.054-.613-.088.05 1.095.094 2.17.135 3.222a83.2 83.2 0 0 1 .061 3.222zm20.087 0v4.28c0 1.095-.02 2.173-.062 3.234-.04 1.062-.085 2.107-.134 3.135.375-.033.775-.05 1.2-.05.425 0 .825.017 1.2.05a342.51 342.51 0 0 1-.134-3.135 84.171 84.171 0 0 1-.062-3.234v-4.28c0-1.094.02-2.168.062-3.222.04-1.053.085-2.127.134-3.222-.212.034-.416.063-.612.088a4.663 4.663 0 0 1-1.176 0c-.196-.025-.4-.054-.612-.088.049 1.095.094 2.17.134 3.222a83.2 83.2 0 0 1 .062 3.222zm14.11 7.415h-.295c-.049.48-.102.875-.159 1.182-.057.307-.16.65-.306 1.032.424.349.951.66 1.58.933.628.274 1.45.41 2.462.41.947 0 1.792-.136 2.535-.41a5.222 5.222 0 0 0 1.886-1.17 5.102 5.102 0 0 0 1.176-1.778c.27-.68.404-1.402.404-2.165 0-.912-.192-1.642-.576-2.19a4.751 4.751 0 0 0-1.433-1.343 10.32 10.32 0 0 0-1.85-.883 14.07 14.07 0 0 1-1.848-.821 4.936 4.936 0 0 1-1.433-1.132c-.384-.448-.576-1.062-.576-1.841 0-.448.077-.863.233-1.244.155-.382.375-.71.661-.983.286-.274.62-.485 1.004-.635.384-.149.805-.223 1.262-.223.457 0 .849.078 1.176.236.326.158.608.352.845.585.236.232.424.485.563.758.139.274.25.527.33.76h.295c.098-.482.196-.88.294-1.195.098-.315.22-.614.367-.896a5.043 5.043 0 0 0-1.592-.883c-.572-.19-1.25-.286-2.033-.286-.817 0-1.552.116-2.205.348a5.014 5.014 0 0 0-1.678.97c-.465.415-.82.909-1.065 1.481a4.788 4.788 0 0 0-.368 1.903c0 .979.192 1.759.576 2.34.384.58.861 1.057 1.433 1.43a9.467 9.467 0 0 0 1.85.933c.66.249 1.277.522 1.849.82.571.3 1.049.673 1.433 1.12.383.448.575 1.054.575 1.817 0 .497-.081.966-.245 1.405a3.38 3.38 0 0 1-.698 1.145 3.32 3.32 0 0 1-1.102.771c-.433.191-.919.286-1.458.286a4.058 4.058 0 0 1-3.343-1.679 5.002 5.002 0 0 1-.527-.908z" fill="#000000" fill-rule="evenodd"/></svg>
