<?xml version="1.0" encoding="UTF-8" standalone="no"?>
<svg width="491px" height="128px" viewBox="0 0 491 128" version="1.1" xmlns="http://www.w3.org/2000/svg" xmlns:xlink="http://www.w3.org/1999/xlink">
    <!-- Generator: Sketch 40.3 (33839) - http://www.bohemiancoding.com/sketch -->
    <title>JAMES BEARD AWARDS Copy</title>
    <desc>Created with Sketch.</desc>
    <defs></defs>
    <g id="Exports" stroke="none" stroke-width="1" fill="none" fill-rule="evenodd">
        <path d="M1.21386719,46.5126953 L9.41210938,37.3164062 C11.0992923,39.6451939 13.0121963,40.8095703 15.1508789,40.8095703 C16.4103253,40.8095703 17.4796506,40.3105519 18.3588867,39.3125 C19.2381229,38.3144481 19.6777344,36.7461044 19.6777344,34.6074219 L19.6777344,1.17285156 L33.543457,1.17285156 L33.543457,33.5737305 C33.543457,46.9999044 27.8522705,53.7128906 16.4697266,53.7128906 C13.5468604,53.7128906 10.7309706,53.100999 8.02197266,51.8771973 C5.31297474,50.6533956 3.04362894,48.8652461 1.21386719,46.5126953 L1.21386719,46.5126953 Z M35.9761719,53 L54.7964844,1.17285156 L68.0918945,1.17285156 L86.8409179,53 L72.4048828,53 L69.7671875,44.5878906 L53.1211914,44.5878906 L50.4834961,53 L35.9761719,53 Z M56.721289,33.003418 L66.2027344,33.003418 L61.5333008,18.0327148 L61.3907226,18.0327148 L56.721289,33.003418 Z M91.4835937,53 L91.4835937,1.17285156 L105.491894,1.17285156 L118.395215,26.8012695 L118.680371,26.8012695 L131.476758,1.17285156 L145.556348,1.17285156 L145.556348,53 L131.833203,53 L131.833203,27.4428711 L131.619336,27.4428711 L122.92207,43.6611328 L114.082227,43.6611328 L105.420605,27.371582 L105.206738,27.371582 L105.206738,53 L91.4835937,53 Z M154.084277,53 L154.084277,1.17285156 L188.552539,1.17285156 L188.552539,13.5058594 L167.522266,13.5058594 L167.522266,21.3120117 L183.954394,21.3120117 L183.954394,33.3598633 L167.522266,33.3598633 L167.522266,40.6669922 L190.085254,40.6669922 L190.085254,53 L154.084277,53 Z M193.658594,45.4077148 L201.57168,35.7836914 C203.496494,37.7322689 205.504449,39.1758579 207.595605,40.114502 C209.686762,41.053146 211.611547,41.5224609 213.370019,41.5224609 C214.867097,41.5224609 215.983948,41.189782 216.720605,40.5244141 C217.457263,39.8590462 217.825586,39.0748743 217.825586,38.171875 C217.825586,37.1025337 217.403796,36.2292514 216.560205,35.552002 C215.716614,34.8747525 213.952227,34.0965213 211.266992,33.2172852 C209.43723,32.5994435 207.868887,31.9994332 206.561914,31.4172363 C205.254941,30.8350394 203.858878,30.0568083 202.373682,29.0825195 C200.888485,28.1082308 199.682524,27.0567276 198.755762,25.9279785 C197.828999,24.7992294 197.056709,23.3972252 196.438867,21.7219238 C195.821025,20.0466225 195.512109,18.1871847 195.512109,16.1435547 C195.512109,11.7236107 197.151741,8.02849792 200.431055,5.05810547 C203.710368,2.08771301 207.833211,0.543132104 212.799707,0.424316406 L213.370019,0.424316406 C216.62557,0.424316406 219.726613,1.00650459 222.673242,2.17089844 C225.809977,3.4065817 228.625866,5.14126487 231.120996,7.375 L223.457422,17.2128906 C221.24745,15.5019446 219.382071,14.2959833 217.86123,13.5949707 C216.340389,12.8939581 214.914622,12.543457 213.583887,12.543457 C212.371967,12.543457 211.46304,12.816729 210.85708,13.3632812 C210.25112,13.9098335 209.948144,14.6583611 209.948144,15.6088867 C209.948144,16.5594123 210.387756,17.4267539 211.266992,18.2109375 C212.146228,18.9951211 213.821504,19.8624627 216.292871,20.8129883 C220.665289,22.4764081 223.57623,23.7001914 225.025781,24.484375 C228.210042,26.1715579 230.336811,28.2745642 231.406152,30.793457 C232.095283,32.4331137 232.439844,34.3578991 232.439844,36.5678711 C232.439844,39.0630008 232.035876,41.3145245 231.22793,43.3225098 C230.419983,45.3304951 229.36848,46.9701271 228.073389,48.2414551 C226.778297,49.512783 225.257479,50.5702269 223.510889,51.4138184 C221.764298,52.2574098 220.011793,52.8514794 218.25332,53.1960449 C216.494848,53.5406104 214.700758,53.7128906 212.870996,53.7128906 C209.401578,53.7128906 206.00944,53.0237699 202.694482,51.6455078 C199.379524,50.2672457 196.367592,48.1880022 193.658594,45.4077148 L193.658594,45.4077148 Z M256.232519,53 L256.232519,1.17285156 L276.585547,1.17285156 C282.35999,1.17285156 286.661053,2.27782098 289.488867,4.48779297 C292.316681,6.69776496 293.730566,9.79880816 293.730566,13.7910156 C293.730566,19.3278272 291.081016,23.1061097 285.781836,25.1259766 L285.781836,25.2685547 C289.607701,26.2666066 292.340421,27.8824758 293.980078,30.1162109 C295.619735,32.3499461 296.439551,35.1064289 296.439551,38.3857422 C296.439551,42.7581599 295.031606,46.2869332 292.215674,48.972168 C289.399742,51.6574027 285.330365,53 280.007422,53 L256.232519,53 Z M269.634863,41.0947266 L275.765723,41.0947266 C277.666774,41.0947266 279.193533,40.6848186 280.346045,39.8649902 C281.498557,39.0451619 282.074805,37.8748448 282.074805,36.3540039 C282.074805,34.9519787 281.546083,33.8351279 280.488623,33.003418 C279.431163,32.1717081 277.833116,31.7558594 275.694433,31.7558594 L269.634863,31.7558594 L269.634863,41.0947266 Z M269.634863,21.597168 L274.161719,21.597168 C275.872665,21.597168 277.239025,21.2347855 278.26084,20.5100098 C279.282655,19.785234 279.793555,18.769375 279.793555,17.4624023 C279.793555,16.1791928 279.306417,15.1514524 278.332129,14.3791504 C277.35784,13.6068484 275.920192,13.2207031 274.01914,13.2207031 L269.634863,13.2207031 L269.634863,21.597168 Z M302.721875,53 L302.721875,1.17285156 L337.190137,1.17285156 L337.190137,13.5058594 L316.159863,13.5058594 L316.159863,21.3120117 L332.591992,21.3120117 L332.591992,33.3598633 L316.159863,33.3598633 L316.159863,40.6669922 L338.722851,40.6669922 L338.722851,53 L302.721875,53 Z M341.583301,53 L360.403613,1.17285156 L373.699023,1.17285156 L392.448047,53 L378.012012,53 L375.374316,44.5878906 L358.72832,44.5878906 L356.090625,53 L341.583301,53 Z M362.328418,33.003418 L371.809863,33.003418 L367.140429,18.0327148 L366.997851,18.0327148 L362.328418,33.003418 Z M397.090722,53 L397.090722,1.17285156 L417.800195,1.17285156 C420.984456,1.17285156 423.800346,1.63028514 426.247949,2.54516602 C428.695552,3.46004689 430.673804,4.74323719 432.182763,6.39477539 C433.691723,8.0463136 434.826396,9.97703973 435.586816,12.1870117 C436.347237,14.3969837 436.727441,16.8564318 436.727441,19.5654297 C436.727441,23.2962426 435.961091,26.4566928 434.428369,29.046875 C432.895646,31.6370572 430.715411,33.6093682 427.887597,34.9638672 L427.887597,35.0351562 L439.650293,53 L423.50332,53 L413.701074,37.1738281 L410.493066,37.1738281 L410.493066,53 L397.090722,53 Z M410.493066,25.1972656 L414.734765,25.1972656 C416.992264,25.1972656 418.821998,24.6804251 420.224023,23.6467285 C421.626048,22.6130319 422.327051,21.1575615 422.327051,19.2802734 C422.327051,17.5930905 421.661693,16.1851456 420.330957,15.0563965 C419.000221,13.9276474 417.134843,13.3632812 414.734765,13.3632812 L410.493066,13.3632812 L410.493066,25.1972656 Z M444.756347,53 L444.756347,1.17285156 L463.434082,1.17285156 C468.804551,1.17285156 473.527405,2.27188029 477.602783,4.4699707 C481.678161,6.66806112 484.808908,9.72751946 486.995117,13.6484375 C489.181326,17.5693555 490.274414,22.072403 490.274414,27.1577148 C490.274414,30.9598172 489.668463,34.4470056 488.456543,37.6193848 C487.244623,40.7917639 485.51588,43.5185433 483.270263,45.7998047 C481.024647,48.0810661 478.226579,49.8513934 474.875976,51.1108398 C471.525374,52.3702862 467.782735,53 463.647949,53 L444.756347,53 Z M458.158691,40.6669922 L462.685547,40.6669922 C466.558938,40.6669922 469.707507,39.3659798 472.131347,36.763916 C474.555188,34.1618522 475.76709,30.9598172 475.76709,27.1577148 C475.76709,23.3080862 474.608654,20.070407 472.291748,17.4445801 C469.974842,14.8187531 467.117367,13.5058594 463.719238,13.5058594 L458.158691,13.5058594 L458.158691,40.6669922 Z M0.857421875,127 L19.6777344,75.1728516 L32.9731445,75.1728516 L51.722168,127 L37.2861328,127 L34.6484375,118.587891 L18.0024414,118.587891 L15.3647461,127 L0.857421875,127 Z M21.6025391,107.003418 L31.0839844,107.003418 L26.4145508,92.0327148 L26.2719727,92.0327148 L21.6025391,107.003418 Z M47.2041992,75.1728516 L62.0323242,75.1728516 L69.5533203,104.080566 L69.7671875,104.080566 L76.7178711,75.1728516 L91.2964844,75.1728516 L98.1045898,104.080566 L98.318457,104.080566 L105.839453,75.1728516 L120.667578,75.1728516 L104.520605,127 L91.9024414,127 L84.2388672,95.4545898 L84.096289,95.4545898 L75.9693359,127 L63.3511719,127 L47.2041992,75.1728516 Z M116.042676,127 L134.862988,75.1728516 L148.158398,75.1728516 L166.907422,127 L152.471387,127 L149.833691,118.587891 L133.187695,118.587891 L130.55,127 L116.042676,127 Z M136.787793,107.003418 L146.269238,107.003418 L141.599805,92.0327148 L141.457227,92.0327148 L136.787793,107.003418 Z M171.550098,127 L171.550098,75.1728516 L192.25957,75.1728516 C195.443831,75.1728516 198.259721,75.6302851 200.707324,76.545166 C203.154928,77.4600469 205.133179,78.7432372 206.642139,80.3947754 C208.151098,82.0463136 209.285771,83.9770397 210.046191,86.1870117 C210.806612,88.3969837 211.186816,90.8564318 211.186816,93.5654297 C211.186816,97.2962426 210.420467,100.456693 208.887744,103.046875 C207.355022,105.637057 205.174786,107.609368 202.346973,108.963867 L202.346973,109.035156 L214.109668,127 L197.962695,127 L188.160449,111.173828 L184.952441,111.173828 L184.952441,127 L171.550098,127 Z M184.952441,99.1972656 L189.194141,99.1972656 C191.451639,99.1972656 193.281373,98.6804251 194.683398,97.6467285 C196.085424,96.6130319 196.786426,95.1575615 196.786426,93.2802734 C196.786426,91.5930905 196.121068,90.1851456 194.790332,89.0563965 C193.459596,87.9276474 191.594218,87.3632812 189.194141,87.3632812 L184.952441,87.3632812 L184.952441,99.1972656 Z M219.215723,127 L219.215723,75.1728516 L237.893457,75.1728516 C243.263926,75.1728516 247.98678,76.2718803 252.062158,78.4699707 C256.137537,80.6680611 259.268283,83.7275195 261.454492,87.6484375 C263.640701,91.5693555 264.733789,96.072403 264.733789,101.157715 C264.733789,104.959817 264.127838,108.447006 262.915918,111.619385 C261.703998,114.791764 259.975255,117.518543 257.729639,119.799805 C255.484022,122.081066 252.685954,123.851393 249.335351,125.11084 C245.984749,126.370286 242.24211,127 238.107324,127 L219.215723,127 Z M232.618066,114.666992 L237.144922,114.666992 C241.018314,114.666992 244.166882,113.36598 246.590723,110.763916 C249.014563,108.161852 250.226465,104.959817 250.226465,101.157715 C250.226465,97.3080862 249.068029,94.070407 246.751123,91.4445801 C244.434217,88.8187531 241.576742,87.5058594 238.178613,87.5058594 L232.618066,87.5058594 L232.618066,114.666992 Z M268.378418,119.407715 L276.291504,109.783691 C278.216318,111.732269 280.224273,113.175858 282.31543,114.114502 C284.406586,115.053146 286.331371,115.522461 288.089844,115.522461 C289.586921,115.522461 290.703772,115.189782 291.44043,114.524414 C292.177087,113.859046 292.54541,113.074874 292.54541,112.171875 C292.54541,111.102534 292.123621,110.229251 291.280029,109.552002 C290.436438,108.874752 288.672051,108.096521 285.986816,107.217285 C284.157055,106.599444 282.588711,105.999433 281.281738,105.417236 C279.974765,104.835039 278.578702,104.056808 277.093506,103.08252 C275.60831,102.108231 274.402348,101.056728 273.475586,99.9279785 C272.548823,98.7992294 271.776533,97.3972252 271.158691,95.7219238 C270.54085,94.0466225 270.231933,92.1871847 270.231933,90.1435547 C270.231933,85.7236107 271.871566,82.0284979 275.150879,79.0581055 C278.430192,76.087713 282.553035,74.5431321 287.519531,74.4243164 L288.089844,74.4243164 C291.345394,74.4243164 294.446437,75.0065046 297.393066,76.1708984 C300.529801,77.4065817 303.345691,79.1412649 305.84082,81.375 L298.177246,91.2128906 C295.967274,89.5019446 294.101896,88.2959833 292.581055,87.5949707 C291.060214,86.8939581 289.634447,86.543457 288.303711,86.543457 C287.091791,86.543457 286.182864,86.816729 285.576904,87.3632812 C284.970944,87.9098335 284.667969,88.6583611 284.667969,89.6088867 C284.667969,90.5594123 285.10758,91.4267539 285.986816,92.2109375 C286.866052,92.9951211 288.541329,93.8624627 291.012695,94.8129883 C295.385113,96.4764081 298.296054,97.7001914 299.745605,98.484375 C302.929866,100.171558 305.056635,102.274564 306.125976,104.793457 C306.815107,106.433114 307.159668,108.357899 307.159668,110.567871 C307.159668,113.063001 306.755701,115.314524 305.947754,117.32251 C305.139807,119.330495 304.088304,120.970127 302.793213,122.241455 C301.498122,123.512783 299.977304,124.570227 298.230713,125.413818 C296.484122,126.25741 294.731617,126.851479 292.973144,127.196045 C291.214672,127.54061 289.420582,127.712891 287.59082,127.712891 C284.121402,127.712891 280.729265,127.02377 277.414307,125.645508 C274.099349,124.267246 271.087416,122.188002 268.378418,119.407715 L268.378418,119.407715 Z" id="JAMES-BEARD-AWARDS-Copy" fill="#000000"></path>
    </g>
</svg>