<svg xmlns="http://www.w3.org/2000/svg" width="60" height="25" viewBox="0 0 60 25" stroke-linejoin="round">
    <path d="M18.6 15.5l0-15.3 -8.4 0 0 16.3c0 1.1-0.4 1.7-1.4 1.7 -1 0-1.5-0.6-1.5-1.7l0-2.4 -7.2 0 0 2.4c0 4.4 2.7 7.9 8.9 7.9 6.9 0 9.6-3.8 9.6-8.9ZM40.1 17.8l0-1.2c0-2.4-1.1-4.2-4.3-4.9 3.1-0.6 4.3-2.7 4.3-4.9l0-0.8c0-3.4-2-5.9-7.1-5.9l-12.1 0 0 23.5 12.2 0c5 0 7-2.5 7-5.9ZM32.1 8.7c0 0.8-0.5 1.2-1.4 1.2l-1.3 0 0-4.3 1.3 0c1 0 1.4 0.4 1.4 1.2l0 1.8ZM32.1 17c0 0.9-0.5 1.3-1.4 1.3l-1.3 0 0-4.3 1.3 0c1 0 1.4 0.4 1.4 1.3l0 1.8ZM59.6 6.1l0-6 -17.5 0 0 23.5 8.4 0 0-8.6 5.3 0 0-5 -5.3 0 0-4 9.1 0Z" />
</svg>