<?xml version="1.0" standalone="no"?>
<!DOCTYPE svg PUBLIC "-//W3C//DTD SVG 1.1//EN" "http://www.w3.org/Graphics/SVG/1.1/DTD/svg11.dtd" >
<svg xmlns="http://www.w3.org/2000/svg" xmlns:xlink="http://www.w3.org/1999/xlink" version="1.1">
<metadata>
Created by FontForge 20190801 at Sun Jan 21 16:50:09 2018
 By www-data
Copyright (c) 2017 by Oliver Jeschke. All rights reserved.
</metadata>
<defs>
<font id="OGJTypeDesignSequel100Wide85" horiz-adv-x="811" >
  <font-face 
    font-family="OGJTypeDesignSequel100Wide85"
    font-weight="324"
    font-stretch="expanded"
    units-per-em="1000"
    panose-1="2 11 6 3 5 0 0 2 0 4"
    ascent="800"
    descent="-200"
    x-height="540"
    cap-height="714"
    bbox="-282 -439 2470 1069"
    underline-thickness="50"
    underline-position="-100"
    unicode-range="U+000D-FB02"
  />
<missing-glyph horiz-adv-x="683" 
d="M646 1069v-1508h-610v1508h610zM114 1004v-1377h454v1377h-454zM288 391h-134q11 152 184 152q78 0 128 -35.5t50 -100.5q0 -27 -11.5 -47.5t-24.5 -30t-36 -21.5q-31 -16 -41.5 -25.5t-10.5 -25.5v-3h-118v16q0 37 15.5 58t58.5 46q32 19 32 41q0 14 -11.5 23t-32.5 9
t-34.5 -14.5t-13.5 -41.5zM264 93v123h140v-123h-140z" />
    <glyph glyph-name="fi" unicode="fi" horiz-adv-x="797" 
d="M420 605q-41 0 -61.5 -5.5t-27.5 -19.5t-3 -40h139v-130h-139v-410h-226v410h-89v130h89v38q0 99 66 137t203 38q27 0 51 -1.5t38.5 -3t18.5 -2.5v-144q-44 3 -59 3zM523 604v124h230v-124h-230zM525 0v540h226v-540h-226z" />
    <glyph glyph-name="fl" unicode="fl" horiz-adv-x="812" 
d="M420 605q-41 0 -61.5 -5.5t-27.5 -19.5t-3 -40h139v-130h-139v-410h-226v410h-89v130h89v38q0 99 66 137t203 38q27 0 51 -1.5t38.5 -3t18.5 -2.5v-144q-44 3 -59 3zM540 0v724h226v-724h-226z" />
    <glyph glyph-name="f_f" unicode="ff" horiz-adv-x="934" 
d="M859 605q-41 0 -61.5 -5.5t-27.5 -19.5t-3 -40h139v-130h-139v-410h-226v410h-213v-410h-226v410h-89v130h89v38q0 99 66 137t203 38q27 0 51 -1.5t38.5 -3t18.5 -2.5v-144q-44 3 -59 3q-41 0 -61.5 -5.5t-27.5 -19.5t-3 -40h213v38q0 99 66 137t203 38q17 0 33.5 -0.5
t28 -1.5t20.5 -2t16 -1.5t10 -1.5v-144q-44 3 -59 3z" />
    <glyph glyph-name="f_f_i" unicode="ffi" horiz-adv-x="1236" 
d="M541 578q0 99 66 137t203 38q17 0 33.5 -0.5t28 -1.5t20.5 -2t16 -1.5t10 -1.5v-144q-44 3 -59 3q-60 0 -79 -13.5t-13 -51.5h139v-130h-139v-410h-226v410h-213v-410h-226v410h-89v130h89v38q0 99 66 137t203 38q27 0 51 -1.5t38.5 -3t18.5 -2.5v-144q-44 3 -59 3
q-60 0 -79 -13.5t-13 -51.5h213v38zM962 728h230v-124h-230v124zM964 0v540h226v-540h-226z" />
    <glyph glyph-name=".notdef" horiz-adv-x="683" 
d="M646 1069v-1508h-610v1508h610zM114 1004v-1377h454v1377h-454zM288 391h-134q11 152 184 152q78 0 128 -35.5t50 -100.5q0 -27 -11.5 -47.5t-24.5 -30t-36 -21.5q-31 -16 -41.5 -25.5t-10.5 -25.5v-3h-118v16q0 37 15.5 58t58.5 46q32 19 32 41q0 14 -11.5 23t-32.5 9
t-34.5 -14.5t-13.5 -41.5zM264 93v123h140v-123h-140z" />
    <glyph glyph-name=".null" horiz-adv-x="0" 
 />
    <glyph glyph-name="nonmarkingreturn" horiz-adv-x="333" 
 />
    <glyph glyph-name="CR" unicode="&#xd;" horiz-adv-x="135" 
 />
    <glyph glyph-name="space" unicode=" " horiz-adv-x="342" 
 />
    <glyph glyph-name="exclam" unicode="!" horiz-adv-x="365" 
d="M278 253h-191l-35 344v117h260v-117zM64 0v198h237v-198h-237z" />
    <glyph glyph-name="quotedbl" unicode="&#x22;" horiz-adv-x="521" 
d="M210 366h-176v348h176v-348zM487 366h-177v348h177v-348z" />
    <glyph glyph-name="numbersign" unicode="#" horiz-adv-x="787" 
d="M742 411h-122l-30 -123h125l-29 -107h-122l-45 -181h-142l45 181h-139l-44 -181h-142l44 181h-124l28 107h122l30 123h-125l27 109h125l45 180h142l-45 -180h139l44 180h141l-43 -180h122zM448 288l30 123h-139l-30 -123h139z" />
    <glyph glyph-name="dollar" unicode="$" horiz-adv-x="851" 
d="M824 218q0 -53 -17 -92.5t-48 -65t-79 -41t-104 -22.5t-130 -8v-106h-61v106q-70 1 -123.5 8.5t-100.5 24.5t-77.5 44.5t-48.5 70t-21 100.5h250q6 -49 35.5 -69.5t85.5 -24.5v131l-123 16q-115 15 -173 61.5t-59 140.5q0 60 26 103t75 67.5t111 35.5t143 13v83h61v-83
q80 -2 140.5 -14t109.5 -37t75.5 -68.5t28.5 -105.5h-249q-8 65 -105 74v-116l149 -17q114 -13 171.5 -63t57.5 -146zM359 454l26 -3v111q-104 -5 -104 -56q0 -24 19 -35.5t59 -16.5zM446 143q119 4 119 60q0 28 -22.5 41t-68.5 19l-28 4v-124z" />
    <glyph glyph-name="percent" unicode="%" horiz-adv-x="1158" 
d="M258.5 714q118.5 0 174.5 -49.5t56 -155.5t-56 -155.5t-174.5 -49.5t-174.5 49.5t-56 155.5t56 155.5t174.5 49.5zM743 700h128l-456 -700h-128zM259 413q23 0 38.5 8t25.5 30t10 58t-10 58t-25.5 30t-38.5 8q-36 0 -55.5 -21.5t-19.5 -74.5t19.5 -74.5t55.5 -21.5z
M899.5 396q118.5 0 174.5 -49.5t56 -155.5t-56 -155.5t-174.5 -49.5t-174.5 49.5t-56 155.5t56 155.5t174.5 49.5zM899 95q36 0 55.5 21.5t19.5 74.5t-19.5 74.5t-55.5 21.5t-55 -21.5t-19 -74.5t19 -74.5t55 -21.5z" />
    <glyph glyph-name="ampersand" unicode="&#x26;" horiz-adv-x="996" 
d="M999 0h-280l-49 41q-116 -55 -254 -55q-189 0 -287 50.5t-98 166.5q0 74 38 114t126 70l38 14l-6 5q-54 45 -73.5 74t-19.5 76q0 89 79.5 131.5t240.5 42.5q162 0 241.5 -42.5t79.5 -131.5q0 -23 -6 -42.5t-16 -33t-27 -26t-34.5 -21t-42.5 -18.5l-101 -42l115 -95
q24 49 24 100h209q0 -130 -80 -227zM422 477l8 -6l42 15q37 13 54 26.5t17 34.5q0 55 -89 55q-47 0 -67.5 -15.5t-20.5 -39.5q0 -15 12.5 -29.5t43.5 -40.5zM416 128q64 0 118 25l-174 144q-81 -34 -81 -88q0 -24 14.5 -41.5t46 -28.5t76.5 -11z" />
    <glyph glyph-name="quotesingle" unicode="'" horiz-adv-x="245" 
d="M210 366h-176v348h176v-348z" />
    <glyph glyph-name="parenleft" unicode="(" horiz-adv-x="443" 
d="M257 284q0 -48 6.5 -96t17.5 -88t26 -78.5t30.5 -68t31.5 -55t29.5 -42.5t25.5 -28h-200q-3 3 -28.5 29.5t-43.5 46.5t-45 62t-44.5 84t-30.5 104t-13 130t13 130t30.5 104t44.5 84t45 62t43.5 46t28.5 30h200q-22 -20 -48 -59.5t-54 -97.5t-46.5 -137.5t-18.5 -161.5z
" />
    <glyph glyph-name="parenright" unicode=")" horiz-adv-x="439" 
d="M186 284q0 82 -19 161.5t-47 137.5t-54 97.5t-47 59.5h200q3 -4 28.5 -30t43 -46t45 -62t44.5 -84t30.5 -104t13.5 -130q0 -58 -9 -111.5t-25.5 -95.5t-33.5 -76.5t-40 -64t-38.5 -47.5t-35 -37t-23.5 -24h-200q21 20 47 59.5t54 97.5t47 137.5t19 161.5z" />
    <glyph glyph-name="asterisk" unicode="*" horiz-adv-x="526" 
d="M498 565l-135 -85l135 -82l-70 -100l-104 80l2 -129h-127l2 129l-104 -80l-69 100l134 82l-134 85l69 99l104 -78l-2 128h127l-2 -128l104 78z" />
    <glyph glyph-name="plus" unicode="+" horiz-adv-x="650" 
d="M589 397v-142h-189v-194h-150v194h-189v142h189v192h150v-192h189z" />
    <glyph glyph-name="comma" unicode="," horiz-adv-x="352" 
d="M299 210v-157q0 -137 -59 -196t-188 -59v82q54 0 79 34t25 86h-104v210h247z" />
    <glyph glyph-name="hyphen" unicode="-" horiz-adv-x="439" 
d="M409 208h-380v162h380v-162z" />
    <glyph glyph-name="period" unicode="." horiz-adv-x="352" 
d="M52 0v210h247v-210h-247z" />
    <glyph glyph-name="slash" unicode="/" horiz-adv-x="517" 
d="M325 714h173l-314 -714h-173z" />
    <glyph glyph-name="zero" unicode="0" horiz-adv-x="929" 
d="M464.5 722q433.5 0 433.5 -372t-433.5 -372t-433.5 372t433.5 372zM464 149q68 0 110.5 24t60.5 67.5t18 109.5q0 100 -44 150.5t-144.5 50.5t-144.5 -50.5t-44 -150.5t44 -150.5t144 -50.5z" />
    <glyph glyph-name="one" unicode="1" horiz-adv-x="521" 
d="M469 700v-700h-233v411h-215v154h57q89 0 132.5 34.5t61.5 100.5h197z" />
    <glyph glyph-name="two" unicode="2" horiz-adv-x="865" 
d="M402 221q-43 -10 -74 -26t-40 -30h539v-165h-804v21q0 43 8 80.5t23.5 67t33.5 54t43.5 44.5t48.5 35t52.5 27.5t52 20.5t49.5 17l129 41q39 13 60.5 23.5t34 26t12.5 38.5q0 64 -133 64q-139 0 -148 -106h-253q9 142 105 205t286 63q99 0 169.5 -10.5t124.5 -35
t80.5 -67.5t26.5 -105q0 -53 -17.5 -93t-52.5 -68t-80 -47t-108 -33z" />
    <glyph glyph-name="three" unicode="3" horiz-adv-x="864" 
d="M702 364q45 -10 74 -29t45 -52.5t16 -81.5q0 -81 -39.5 -129t-130 -71t-246.5 -23q-112 0 -187.5 14t-123 45t-69.5 77.5t-26 114.5h250q4 -46 42.5 -67t113.5 -21q77 0 118 16t41 55q0 27 -15 44t-42 23.5t-69 6.5h-139v145h143q115 0 115 69q0 66 -152 66
q-136 0 -144 -82h-237q5 86 46.5 138t123 76t211.5 24q211 0 303 -46t92 -163q0 -122 -114 -143v-6z" />
    <glyph glyph-name="four" unicode="4" horiz-adv-x="847" 
d="M480 138h-464v171l410 391h279v-410h120v-152h-120v-138h-225v138zM480 290v229h-6l-234 -223v-6h240z" />
    <glyph glyph-name="five" unicode="5" horiz-adv-x="864" 
d="M785 700v-154h-514l-5 -95h6q91 40 199 40q130 0 209.5 -25t117.5 -80.5t38 -146.5q0 -69 -21.5 -117.5t-70 -81t-125.5 -47.5t-190 -15q-144 0 -232.5 26.5t-126.5 76t-42 128.5h254q11 -68 147 -68q80 0 117 22t37 72.5t-36.5 72.5t-114.5 22q-86 0 -141 -23h-240
l23 393h711z" />
    <glyph glyph-name="six" unicode="6" horiz-adv-x="881" 
d="M482 455q189 0 280 -54.5t91 -172.5q0 -250 -397 -250q-225 0 -325 86t-100 285q0 187 101 280t320 93q85 0 153 -13t111.5 -35t73 -52t42.5 -60t16 -64h-250q-12 71 -141 71q-86 0 -132.5 -35.5t-53.5 -127.5h6q33 22 92.5 35.5t112.5 13.5zM447 306q-158 0 -158 -86
q0 -89 158 -89q153 0 153 89q0 46 -39 66t-114 20z" />
    <glyph glyph-name="seven" unicode="7" horiz-adv-x="819" 
d="M13 700h784v-89q0 -46 -12 -78t-38 -67q-23 -30 -63.5 -78t-68.5 -83t-58.5 -83t-48.5 -103.5t-23 -118.5h-308q3 42 17 85t31 78t47.5 76t53.5 68.5t63 67.5t62.5 60.5t65.5 58.5q15 14 23 21v6h-527v179z" />
    <glyph glyph-name="eight" unicode="8" horiz-adv-x="898" 
d="M449 722q210 0 306.5 -48t96.5 -161q0 -111 -120 -143v-6q68 -16 101.5 -55t33.5 -114q0 -116 -98.5 -166.5t-320 -50.5t-319.5 50.5t-98 166.5q0 75 33 114t102 55v6q-120 32 -120 143q0 113 96.5 161t306.5 48zM449 566q-54 0 -88 -6t-53 -21.5t-19 -41.5
q0 -38 39.5 -53.5t120 -15.5t120.5 15.5t40 53.5t-39.5 53.5t-120.5 15.5zM449 133q55 0 89 6.5t53 23.5t19 46q0 43 -40 60.5t-121 17.5q-54 0 -88 -7t-53.5 -24t-19.5 -47q0 -29 19 -46t53 -23.5t89 -6.5z" />
    <glyph glyph-name="nine" unicode="9" horiz-adv-x="871" 
d="M389 245q-189 0 -280 54.5t-91 172.5q0 250 398 250q225 0 325 -86t100 -285q0 -187 -101.5 -280t-319.5 -93q-86 0 -154 13t-111 35t-72.5 52t-43 60t-16.5 64h251q12 -71 140 -71q86 0 133 35.5t53 127.5h-6q-33 -22 -92.5 -35.5t-112.5 -13.5zM424 394q158 0 158 86
q0 89 -158 89q-153 0 -153 -89q0 -46 39 -66t114 -20z" />
    <glyph glyph-name="colon" unicode=":" horiz-adv-x="341" 
d="M52 342v198h236v-198h-236zM52 0v198h236v-198h-236z" />
    <glyph glyph-name="semicolon" unicode=";" horiz-adv-x="341" 
d="M52 342v198h236v-198h-236zM288 198v-145q0 -136 -57.5 -195.5t-178.5 -59.5v82q32 0 53 17.5t30 44t9 58.5h-92v198h236z" />
    <glyph glyph-name="less" unicode="&#x3c;" horiz-adv-x="648" 
d="M61 380l526 212v-148l-307 -119v-6l307 -119v-148l-526 212v116z" />
    <glyph glyph-name="equal" unicode="=" horiz-adv-x="650" 
d="M589 507v-141h-528v141h528zM589 284v-141h-528v141h528z" />
    <glyph glyph-name="greater" unicode="&#x3e;" horiz-adv-x="650" 
d="M589 380v-116l-528 -212v148l307 119v6l-307 119v148z" />
    <glyph glyph-name="question" unicode="?" horiz-adv-x="784" 
d="M260 476h-240q2 59 20.5 103.5t50 73t80 46t103.5 24.5t125 7q88 0 153.5 -10.5t114 -34t73 -63t24.5 -95.5q0 -64 -32.5 -101t-96.5 -66l-57 -25q-30 -13 -46.5 -27.5t-20.5 -22.5t-5 -19l-1 -13h-224v23q0 30 5.5 52t18 39.5t31.5 31t48 27.5l72 33q30 14 43.5 27
t13.5 30q0 54 -114 54q-65 0 -101 -21t-38 -73zM275 0v198h237v-198h-237z" />
    <glyph glyph-name="at" unicode="@" horiz-adv-x="1054" 
d="M630 492h136l-61 -311q-3 -17 2.5 -25t22.5 -8q31 0 57.5 10t51 32t38.5 64t14 100q0 132 -97 210.5t-258 78.5q-62 0 -119 -19t-103 -54.5t-80 -83.5t-53 -108.5t-19 -127.5q0 -155 94 -246.5t260 -91.5q51 0 95 8t84 24.5t80 42.5h153q-37 -52 -96 -92.5t-143 -66
t-177 -25.5q-220 0 -350.5 124.5t-130.5 327.5q0 105 40 198t108 158.5t162 103.5t199 38q136 0 247 -50t174 -137t63 -192q0 -57 -13 -105t-35.5 -83t-52.5 -62t-65.5 -43t-72.5 -24.5t-76 -8.5q-106 0 -122 57h-6q-52 -57 -145 -57q-78 0 -124.5 47.5t-46.5 130.5
q0 59 21.5 117t60.5 96q64 65 152 64q90 -2 115 -63h6zM527 402q-48 0 -80 -43q-42 -55 -42 -128q0 -41 19 -61.5t54 -20.5q48 0 81 43q42 55 42 128q0 41 -19.5 61.5t-54.5 20.5z" />
    <glyph glyph-name="A" unicode="A" horiz-adv-x="958" 
d="M710 0l-49 112h-364l-49 -112h-252l332 714h304l329 -714h-251zM369 278h220l-107 244h-6z" />
    <glyph glyph-name="B" unicode="B" horiz-adv-x="916" 
d="M758 383q38 -9 64.5 -27t44 -55t17.5 -91q0 -105 -59 -157.5t-192 -52.5h-581v714h562q244 0 244 -185q0 -110 -100 -140v-6zM541 435q67 0 67 58t-67 58h-259v-116h259zM555 162q41 0 59 15.5t18 49.5t-18 50t-59 16h-273v-131h273z" />
    <glyph glyph-name="C" unicode="C" horiz-adv-x="970" 
d="M667 436q-1 12 -5 24.5t-12.5 26t-22.5 25t-32.5 20.5t-45.5 14.5t-60 5.5q-100 0 -152.5 -51.5t-52.5 -143.5t52.5 -143.5t152.5 -51.5q168 0 176 132h275q-4 -154 -122.5 -236t-328.5 -82q-141 0 -242 40.5t-158.5 127t-57.5 213.5t57.5 213.5t158.5 127t242 40.5
q208 0 326.5 -79.5t122.5 -222.5h-271z" />
    <glyph glyph-name="D" unicode="D" horiz-adv-x="927" 
d="M491 714q204 0 304.5 -83.5t100.5 -273.5t-100.5 -273.5t-304.5 -83.5h-439v714h439zM444 533h-162v-352h162q100 0 149.5 41.5t49.5 134.5t-49.5 134.5t-149.5 41.5z" />
    <glyph glyph-name="E" unicode="E" horiz-adv-x="820" 
d="M282 542v-100h469v-158h-469v-114h500v-170h-730v714h719v-172h-489z" />
    <glyph glyph-name="F" unicode="F" horiz-adv-x="805" 
d="M773 535h-491v-128h469v-168h-469v-239h-230v714h721v-179z" />
    <glyph glyph-name="G" unicode="G" horiz-adv-x="992" 
d="M945 398v-398h-163v77q-97 -101 -276 -101q-226 0 -350.5 95t-124.5 286q0 190 123 285.5t344 95.5q107 0 190 -20t137 -56t83.5 -85.5t33.5 -110.5h-270q-25 86 -173 86q-107 0 -161 -51t-54 -144q0 -98 55 -150t167 -52q49 0 86.5 11t57.5 27.5t29.5 31t9.5 25.5h-165
v148h421z" />
    <glyph glyph-name="H" unicode="H" horiz-adv-x="931" 
d="M648 714h230v-714h-230v274h-366v-274h-230v714h230v-260h366v260z" />
    <glyph glyph-name="I" unicode="I" horiz-adv-x="335" 
d="M282 0h-230v714h230v-714z" />
    <glyph glyph-name="J" unicode="J" horiz-adv-x="848" 
d="M796 714v-400q0 -79 -18.5 -138t-51 -96.5t-83 -60.5t-107 -32t-130 -9t-130 9t-106 32t-81.5 60.5t-50 96.5t-18 138v46h230v-50q0 -80 40.5 -113.5t114.5 -33.5q75 0 117.5 33.5t42.5 113.5v404h230z" />
    <glyph glyph-name="K" unicode="K" horiz-adv-x="917" 
d="M590 462l330 -462h-279l-218 314l-141 -124v-190h-230v714h230v-286l309 286h282z" />
    <glyph glyph-name="L" unicode="L" horiz-adv-x="798" 
d="M771 0h-719v714h230v-534h489v-180z" />
    <glyph glyph-name="M" unicode="M" horiz-adv-x="1118" 
d="M1066 714v-714h-230v497h-6l-184 -497h-182l-186 505h-6v-505h-220v714h364l137 -417h6l135 417h372z" />
    <glyph glyph-name="N" unicode="N" horiz-adv-x="931" 
d="M659 714h219v-714h-264l-336 439h-6v-439h-220v714h272l329 -430h6v430z" />
    <glyph glyph-name="O" unicode="O" horiz-adv-x="1001" 
d="M500.5 738q222.5 0 346 -95.5t123.5 -285.5t-123.5 -285.5t-346 -95.5t-346 95.5t-123.5 285.5t123.5 285.5t346 95.5zM500.5 162q108.5 0 163 51t54.5 144t-54.5 144t-163 51t-162.5 -51t-54 -144t54 -144t162.5 -51z" />
    <glyph glyph-name="P" unicode="P" horiz-adv-x="882" 
d="M581 714q150 0 215.5 -59.5t65.5 -182.5q0 -124 -65.5 -183t-215.5 -59h-299v-230h-230v714h529zM525 392q45 0 65 18t20 55q0 25 -8.5 41t-27.5 24t-49 8h-243v-146h243z" />
    <glyph glyph-name="Q" unicode="Q" horiz-adv-x="1001" 
d="M970 357q0 -234 -190 -327l49 -81l-138 -57l-56 95q-62 -11 -135 -11q-222 0 -345.5 95.5t-123.5 285.5t123.5 285.5t346 95.5t346 -95.5t123.5 -285.5zM611 314l57 -96q49 50 49 139q0 93 -54 144t-162.5 51t-163 -51t-54.5 -144t54.5 -144t162.5 -51q15 0 29 1l-56 94z
" />
    <glyph glyph-name="R" unicode="R" horiz-adv-x="910" 
d="M726 271l172 -271h-262l-137 230h-217v-230h-230v714h546q149 0 215 -58.5t66 -176.5q0 -90 -39.5 -135.5t-113.5 -64.5v-8zM543 393q42 0 61 17t19 52q0 23 -8 38t-26 22.5t-46 7.5h-261v-137h261z" />
    <glyph glyph-name="S" unicode="S" horiz-adv-x="895" 
d="M580 500q-6 80 -154 80q-130 0 -130 -59q0 -25 20 -37.5t62 -17.5l249 -28q120 -13 180.5 -66t60.5 -154q0 -59 -20 -101.5t-54.5 -69.5t-90.5 -43t-119 -22t-147 -6q-81 0 -141 6.5t-114 24t-88.5 46.5t-55.5 75t-24 110h264q4 -59 45.5 -79.5t122.5 -20.5q149 0 149 64
q0 29 -24 43.5t-72 20.5l-223 28q-60 7 -103.5 21.5t-76 39.5t-48.5 63t-16 89q-1 53 19 93.5t54.5 66t86.5 42t110.5 23t131.5 6.5t131 -6.5t110 -23t87.5 -43t57 -68t23.5 -97.5h-263z" />
    <glyph glyph-name="T" unicode="T" 
d="M791 714v-182h-270v-532h-230v532h-271v182h771z" />
    <glyph glyph-name="U" unicode="U" horiz-adv-x="926" 
d="M643 714h230v-404q0 -65 -12.5 -116t-38.5 -87.5t-60.5 -61.5t-82 -40t-99.5 -21t-117 -6q-78 0 -138.5 9t-113 32t-86.5 60t-53.5 95.5t-19.5 135.5v404h230v-404q0 -83 46 -115.5t135 -32.5t134.5 32.5t45.5 115.5v404z" />
    <glyph glyph-name="V" unicode="V" horiz-adv-x="899" 
d="M260 714l186 -464h6l187 464h268l-322 -714h-270l-322 714h267z" />
    <glyph glyph-name="W" unicode="W" horiz-adv-x="1193" 
d="M988 0h-283l-105 438h-6l-105 -438h-288l-206 714h254l107 -445h6l107 445h255l108 -445h6l107 445h252z" />
    <glyph glyph-name="X" unicode="X" horiz-adv-x="909" 
d="M601 378l315 -378h-296l-165 218l-165 -218h-296l314 378l-276 336h289l135 -190l132 190h289z" />
    <glyph glyph-name="Y" unicode="Y" horiz-adv-x="889" 
d="M899 714l-339 -476v-238h-231v238l-339 476h273l182 -280l181 280h273z" />
    <glyph glyph-name="Z" unicode="Z" horiz-adv-x="835" 
d="M798 532l-401 -342h401v-190h-768v182l400 342h-377v190h745v-182z" />
    <glyph glyph-name="bracketleft" unicode="[" horiz-adv-x="449" 
d="M272 601v-634h148v-139h-368v912h368v-139h-148z" />
    <glyph glyph-name="backslash" unicode="\" horiz-adv-x="525" 
d="M192 714l314 -714h-173l-314 714h173z" />
    <glyph glyph-name="bracketright" unicode="]" horiz-adv-x="454" 
d="M182 601h-148v139h368v-912h-368v139h148v634z" />
    <glyph glyph-name="asciicircum" unicode="^" horiz-adv-x="609" 
d="M384 700l198 -347h-159l-115 214h-6l-115 -214h-159l198 347h158z" />
    <glyph glyph-name="underscore" unicode="_" horiz-adv-x="746" 
d="M748 -105v-60h-750v60h750z" />
    <glyph glyph-name="grave" unicode="`" horiz-adv-x="489" 
d="M52 749h304l80 -149h-192z" />
    <glyph glyph-name="a" unicode="a" horiz-adv-x="780" 
d="M737 87q0 -62 16 -81v-6h-222q-16 16 -16 53v20q-39 -47 -105.5 -71t-148.5 -24q-36 0 -69.5 6t-64 20t-53.5 34.5t-36.5 51t-13.5 67.5q0 86 47.5 126t138.5 48l235 23q31 3 44 10.5t13 24.5q0 38 -100 38q-26 0 -47.5 -4.5t-36 -16t-16.5 -28.5h-238q8 185 336 185
q79 0 136.5 -8t105 -26.5t71.5 -53t24 -85.5v-303zM511 234v18q-13 -9 -55 -15l-131 -21q-33 -6 -49.5 -19t-16.5 -38q0 -51 81 -51q28 0 56.5 7t55 21t43 39.5t16.5 58.5z" />
    <glyph glyph-name="b" unicode="b" horiz-adv-x="820" 
d="M278 481q78 73 204 73q71 0 128.5 -18.5t98 -54.5t62.5 -91t22 -124q0 -138 -83.5 -213t-227.5 -75q-132 0 -208 80h-6v-58h-222v724h226v-243h6zM414 137q72 0 108 33.5t36 95.5t-36 95.5t-108 33.5q-74 0 -112 -34.5t-38 -94.5t38 -94.5t112 -34.5z" />
    <glyph glyph-name="c" unicode="c" horiz-adv-x="810" 
d="M400 137q68 0 99 22.5t36 54.5h248q-5 -54 -27.5 -95.5t-66.5 -74t-116.5 -49.5t-172.5 -17q-186 0 -279.5 75.5t-93.5 216.5t93.5 217t279.5 76q100 0 172.5 -17t115.5 -49.5t65.5 -73t28.5 -93.5h-248q-2 13 -9.5 25t-22 23.5t-41 18t-61.5 6.5q-68 0 -103 -35
t-35 -97.5t35 -98t103 -35.5z" />
    <glyph glyph-name="d" unicode="d" horiz-adv-x="820" 
d="M542 481h6v243h226v-724h-222v58h-6q-76 -80 -208 -80q-145 0 -228 75t-83 213.5t83 213t228 74.5q126 0 204 -73zM406 137q74 0 111.5 34.5t37.5 94.5t-37.5 94.5t-111.5 34.5q-72 0 -108 -33.5t-36 -95.5t36 -95.5t108 -33.5z" />
    <glyph glyph-name="e" unicode="e" 
d="M784 270q0 -30 -3 -53h-518q8 -51 42.5 -75.5t100.5 -24.5q100 0 128 51h242q-2 -30 -12.5 -55.5t-36.5 -51t-66 -43.5t-105.5 -29t-149.5 -11q-190 0 -284.5 75.5t-94.5 216.5t94.5 217t284 76t284 -76t94.5 -217zM405.5 424q-113.5 0 -137.5 -78h275q-24 78 -137.5 78z
" />
    <glyph glyph-name="f" unicode="f" horiz-adv-x="495" 
d="M420 605q-41 0 -61.5 -5.5t-27.5 -19.5t-3 -40h139v-130h-139v-410h-226v410h-89v130h89v38q0 99 66 137t203 38q27 0 51 -1.5t38.5 -3t18.5 -2.5v-144q-44 3 -59 3z" />
    <glyph glyph-name="g" unicode="g" horiz-adv-x="810" 
d="M542 540h222v-507q0 -46 -7 -78.5t-29.5 -62.5t-61.5 -48t-104.5 -29t-158.5 -11q-88 0 -153.5 11.5t-103.5 29t-61.5 44.5t-32 52.5t-11.5 58.5h246q1 -11 6 -19.5t16.5 -18t35.5 -14.5t58 -5q57 0 87 11t39 29t9 50v83h-6q-67 -72 -201 -72q-142 0 -223 65.5t-81 190
t81 189.5t223 65q138 0 205 -76h6v62zM400 199q48 0 80.5 12.5t47.5 34.5t15 53q0 47 -36 74t-107 27q-69 0 -103.5 -26.5t-34.5 -74.5t34.5 -74t103.5 -26z" />
    <glyph glyph-name="h" unicode="h" horiz-adv-x="797" 
d="M510 554q110 0 175.5 -53t65.5 -158v-343h-226v274q0 104 -113 104q-26 0 -49.5 -6.5t-44.5 -20.5t-33.5 -42t-12.5 -66v-243h-226v724h226v-251h6q87 81 232 81z" />
    <glyph glyph-name="i" unicode="i" horiz-adv-x="318" 
d="M44 604v124h230v-124h-230zM46 0v540h226v-540h-226z" />
    <glyph glyph-name="j" unicode="j" horiz-adv-x="318" 
d="M44 604v124h230v-124h-230zM5 -19q20 0 30.5 9t10.5 35v515h226v-573q0 -96 -47.5 -129.5t-178.5 -33.5q-50 0 -87 4v174q1 0 17.5 -0.5t28.5 -0.5z" />
    <glyph glyph-name="k" unicode="k" horiz-adv-x="751" 
d="M488 328l264 -328h-268l-145 196l-67 -60v-136h-226v724h226v-367l197 183h259z" />
    <glyph glyph-name="l" unicode="l" horiz-adv-x="318" 
d="M46 0v724h226v-724h-226z" />
    <glyph glyph-name="m" unicode="m" horiz-adv-x="1208" 
d="M268 540v-70h6q35 42 96 63t127 21q72 0 121.5 -19t76.5 -67q81 86 241 86q101 0 163.5 -53t62.5 -158v-343h-226v289q0 89 -98 89q-23 0 -43 -5.5t-38.5 -18t-29 -36.5t-10.5 -57v-261h-226v289q0 89 -98 89q-23 0 -43 -5.5t-38.5 -18t-29 -36.5t-10.5 -57v-261h-226
v540h222z" />
    <glyph glyph-name="n" unicode="n" horiz-adv-x="797" 
d="M268 540v-67h6q92 81 236 81q110 0 175.5 -53t65.5 -158v-343h-226v274q0 104 -113 104q-26 0 -49.5 -6.5t-44.5 -20.5t-33.5 -42t-12.5 -66v-243h-226v540h222z" />
    <glyph glyph-name="o" unicode="o" 
d="M405.5 563q189.5 0 284 -76t94.5 -217t-94.5 -216.5t-284 -75.5t-284 75.5t-94.5 216.5t94.5 217t284 76zM406 137q71 0 107 35t36 98t-36 98t-107 35q-49 0 -81.5 -16.5t-47.5 -45.5t-15 -70.5t15 -71t47.5 -46t81.5 -16.5z" />
    <glyph glyph-name="p" unicode="p" horiz-adv-x="820" 
d="M278 51h-6v-233h-226v722h222v-66h6q76 80 208 80q144 0 227.5 -75t83.5 -213q0 -92 -38.5 -157.5t-108 -98t-164.5 -32.5q-126 0 -204 73zM414 395q-74 0 -112 -34.5t-38 -94.5t38 -94.5t112 -34.5q72 0 108 33.5t36 95.5t-36 95.5t-108 33.5z" />
    <glyph glyph-name="q" unicode="q" horiz-adv-x="820" 
d="M542 51q-78 -73 -204 -73q-145 0 -228 74.5t-83 213t83 213.5t228 75q132 0 208 -80h6v66h222v-722h-226v233h-6zM406 395q-72 0 -108 -33.5t-36 -95.5t36 -95.5t108 -33.5q74 0 111.5 34.5t37.5 94.5t-37.5 94.5t-111.5 34.5z" />
    <glyph glyph-name="r" unicode="r" horiz-adv-x="580" 
d="M46 540h222v-72h6q42 45 101 65.5t142 20.5q23 0 42 -3v-216q-50 11 -96 11q-26 0 -48 -2.5t-44.5 -8t-39.5 -17t-31 -28t-21 -41t-7 -55.5v-194h-226v540z" />
    <glyph glyph-name="s" unicode="s" horiz-adv-x="778" 
d="M489 381q-5 51 -121 51q-95 0 -95 -36q0 -16 11.5 -23t44.5 -10l209 -23q112 -12 162.5 -50t50.5 -125q0 -45 -16 -77.5t-45 -53.5t-75.5 -33.5t-101.5 -17.5t-130 -5q-69 0 -120.5 4.5t-99 17.5t-78 34t-49.5 55.5t-21 81.5h249q3 -34 31 -47t93 -13q33 0 55.5 3t35 9
t17.5 13t5 16q0 17 -13 25t-47 12l-191 24q-55 7 -93 18t-68 30t-44 49t-14 72q0 53 25 89t73 55.5t106 28t135 8.5q64 0 115 -5.5t97 -18t77 -33t50 -52t21 -73.5h-241z" />
    <glyph glyph-name="t" unicode="t" horiz-adv-x="491" 
d="M387 168q46 0 73 2v-170q-76 -9 -132 -9q-133 0 -183 38.5t-50 137.5v243h-89v130h89v146h226v-146h139v-130h-139v-200q0 -24 16 -33t50 -9z" />
    <glyph glyph-name="u" unicode="u" horiz-adv-x="797" 
d="M529 0v68h-6q-93 -82 -236 -82q-110 0 -175.5 53t-65.5 158v343h226v-274q0 -104 113 -104q21 0 39.5 3.5t37.5 13.5t32.5 24.5t22 38.5t8.5 55v243h226v-540h-222z" />
    <glyph glyph-name="v" unicode="v" horiz-adv-x="784" 
d="M528 540h256l-272 -540h-241l-271 540h256l133 -313h6z" />
    <glyph glyph-name="w" unicode="w" horiz-adv-x="1152" 
d="M1149 540l-220 -540h-247l-100 308h-6l-100 -308h-249l-223 540h251l104 -305h6l99 305h227l104 -304h6l98 304h250z" />
    <glyph glyph-name="x" unicode="x" horiz-adv-x="802" 
d="M551 280l248 -280h-287l-110 150l-112 -150h-288l248 280l-222 260h272l102 -142l99 142h273z" />
    <glyph glyph-name="y" unicode="y" horiz-adv-x="784" 
d="M784 540l-276 -549q-21 -42 -38 -69.5t-37.5 -49.5t-41 -34.5t-49.5 -20.5t-61 -10.5t-78 -2.5h-116v179h85q41 0 57 6t25 24l8 17l-262 510h256l133 -313h6l133 313h256z" />
    <glyph glyph-name="z" unicode="z" horiz-adv-x="690" 
d="M653 0h-627v163l297 221h-276v156h606v-161l-298 -222h298v-157z" />
    <glyph glyph-name="braceleft" unicode="{" horiz-adv-x="483" 
d="M342 412q0 -106 -108 -125v-6q108 -19 108 -126v-130q0 -14 1.5 -22.5t7 -18t18 -13.5t33.5 -4h53v-139h-156q-172 0 -172 125v165q0 53 -24.5 71t-74.5 18v154q50 0 74.5 18t24.5 71v166q0 124 172 124h156v-139h-53q-21 0 -33.5 -4t-18 -13.5t-7 -18t-1.5 -22.5v-131z
" />
    <glyph glyph-name="bar" unicode="|" horiz-adv-x="321" 
d="M268 798v-1024h-216v1024h216z" />
    <glyph glyph-name="braceright" unicode="}" horiz-adv-x="478" 
d="M141 412v131q0 14 -1.5 22.5t-7 18t-18.5 13.5t-34 4h-53v139h157q172 0 172 -124v-166q0 -53 24 -71t74 -18v-154q-50 0 -74 -18t-24 -71v-165q0 -125 -172 -125h-157v139h53q21 0 34 4t18.5 13.5t7 18t1.5 22.5v130q0 107 107 126v6q-107 19 -107 125z" />
    <glyph glyph-name="asciitilde" unicode="~" horiz-adv-x="650" 
d="M464 350q26 0 55 20t70 65v-147q-61 -69 -125 -69q-47 0 -109 31l-72 36q-1 0 -10 5t-12 6t-12 5t-14.5 5.5t-14.5 4t-17.5 3.5t-16.5 1q-26 0 -55 -20.5t-70 -64.5v147q62 69 125 69q47 0 109 -31l72 -36q1 -1 10 -5.5l12 -6t12 -5.5t14.5 -5.5t14 -4t17 -3t17.5 -0.5z
" />
    <glyph glyph-name="uni00A0" unicode="&#xa0;" horiz-adv-x="135" 
 />
    <glyph glyph-name="exclamdown" unicode="&#xa1;" horiz-adv-x="365" 
d="M64 540h237v-198h-237v198zM278 287l34 -343v-118h-260v118l35 343h191z" />
    <glyph glyph-name="cent" unicode="&#xa2;" horiz-adv-x="810" 
d="M783 214q-5 -52 -26 -92.5t-61.5 -72.5t-107.5 -50t-158 -21v-109h-61v109q-171 7 -256.5 82.5t-85.5 210t85.5 210t256.5 81.5v94h61v-94q91 -2 157.5 -20.5t106.5 -50t61 -71t27 -90.5h-248q-4 26 -28.5 46.5t-75.5 25.5v-263q52 5 76.5 26t28.5 49h248zM262 270
q0 -36 11.5 -63t35.5 -44.5t60 -22.5v261q-36 -5 -60 -22.5t-35.5 -45t-11.5 -63.5z" />
    <glyph glyph-name="sterling" unicode="&#xa3;" horiz-adv-x="814" 
d="M584 164q59 0 101.5 10.5t82.5 40.5v-201q-14 -9 -39.5 -15.5t-53.5 -9.5t-56 -3q-112 0 -235 71q-60 -71 -187 -71q-77 0 -123 34.5t-46 105.5q0 29 8 52.5t21.5 38.5t32 25t37 14t38.5 4q36 0 76 -17q-7 22 -29 50h-160v84h96q-56 66 -56 129q0 59 23.5 100.5t68 64.5
t100.5 32.5t130 9.5q51 0 92 -4.5t81 -14.5t70.5 -28t55.5 -44.5t41 -65t21 -87.5h-226q-12 87 -124 87q-102 0 -102 -66q0 -19 10 -41t18 -33.5t29 -38.5h179v-84h-121q24 -33 24 -68q0 -25 -7 -42q73 -18 129 -19zM187 83q20 0 36 14t21 44q-36 24 -56 24t-33 -11.5
t-13 -30.5q0 -18 13 -29t32 -11z" />
    <glyph glyph-name="currency" unicode="&#xa4;" horiz-adv-x="661" 
d="M609 368q0 -81 -47 -148l62 -60l-84 -74l-59 57q-68 -43 -151 -43q-82 0 -151 42l-58 -56l-83 74l60 59q-47 69 -47 149t47 149l-60 59l83 74l58 -56q69 42 151 42q83 0 151 -43l59 57l84 -74l-62 -60q47 -67 47 -148zM330 230q55 0 94.5 40.5t39.5 97.5t-39.5 97.5
t-94.5 40.5t-95 -40.5t-40 -97.5t40 -97.5t95 -40.5z" />
    <glyph glyph-name="yen" unicode="&#xa5;" horiz-adv-x="871" 
d="M880 700l-201 -285h87v-83h-147l-39 -56h186v-83h-217v-193h-227v193h-234v83h203l-39 56h-164v83h104l-202 285h268l178 -274l178 274h266z" />
    <glyph glyph-name="brokenbar" unicode="&#xa6;" horiz-adv-x="321" 
d="M268 798v-437h-216v437h216zM268 210v-436h-216v436h216z" />
    <glyph glyph-name="section" unicode="&#xa7;" horiz-adv-x="882" 
d="M874 244q0 -101 -96 -148q23 -35 23 -87t-17.5 -90t-48 -62t-78 -38t-100.5 -19t-123 -5q-68 0 -118.5 5.5t-96.5 20.5t-75 41t-46.5 67t-19.5 97h218q1 -22 9 -38t20.5 -26t32 -15.5t39.5 -7.5t47 -2q65 0 96 13t31 43q0 24 -16.5 34.5t-42.5 16.5l-320 71
q-102 23 -143 63.5t-41 118.5q0 107 113 153q-18 28 -18 76t17 84.5t45.5 59t72 36t90.5 19t106 5.5q58 0 104.5 -5.5t90 -20t73 -37.5t47.5 -60.5t20 -86.5h-219q-5 73 -124 73q-99 0 -99 -53q0 -19 12 -27.5t34 -13.5l310 -67q101 -22 146 -63.5t45 -124.5zM286 267
l326 -72q22 -5 40 -11q13 13 13 33q0 12 -5 22t-12.5 16t-20.5 11.5t-24.5 8.5t-28.5 7l-288 65q-15 3 -52 15q-24 -14 -24 -39t18.5 -36.5t57.5 -19.5z" />
    <glyph glyph-name="dieresis" unicode="&#xa8;" horiz-adv-x="608" 
d="M52 604v124h208v-124h-208zM348 604v124h208v-124h-208z" />
    <glyph glyph-name="copyright" unicode="&#xa9;" horiz-adv-x="832" 
d="M416 -16q-105 0 -193.5 50t-140 136t-51.5 187t51.5 187t140 136t193.5 50t193.5 -50t140 -136t51.5 -187t-51.5 -187t-140 -136t-193.5 -50zM416 48q132 0 225 90.5t93 218.5t-93 218.5t-225 90.5t-225 -90.5t-93 -218.5t93 -218.5t225 -90.5zM616 303
q-4 -68 -55.5 -114t-143.5 -46q-94 0 -151 55.5t-57 159.5q0 103 57 158t151 55q46 0 82.5 -12t59.5 -32.5t36 -45t15 -52.5h-100q-11 63 -93 63q-31 0 -54.5 -13t-38 -44t-14.5 -77q0 -48 14.5 -79t37.5 -44t55 -13q89 0 98 81h101z" />
    <glyph glyph-name="ordfeminine" unicode="&#xaa;" horiz-adv-x="505" 
d="M471 439q0 -37 11 -49v-3h-145q-11 10 -11 31v12q-21 -28 -62 -42.5t-91 -14.5q-39 0 -71 10t-54 35t-22 62q0 52 29.5 76t84.5 29l143 12q13 1 20.5 3.5t11 6.5t3.5 11q0 23 -57 23q-55 0 -58 -30h-155q7 112 211 112q50 0 86.5 -4.5t66 -15.5t44.5 -32t15 -51v-181z
M324 526v10q-6 -4 -31 -9l-77 -12q-38 -6 -38 -33q0 -29 47 -29q39 0 69 18.5t30 54.5zM19 114h470v-114h-470v114z" />
    <glyph glyph-name="guillemotleft" unicode="&#xab;" horiz-adv-x="539" 
d="M39 385l206 141v-176l-114 -75v-5l114 -75v-177l-206 141v226zM294 385l207 141v-176l-114 -75v-5l114 -75v-177l-207 141v226z" />
    <glyph glyph-name="logicalnot" unicode="&#xac;" horiz-adv-x="649" 
d="M589 440v-286h-149v146h-379v140h528z" />
    <glyph glyph-name="registered" unicode="&#xae;" horiz-adv-x="832" 
d="M416 730q105 0 193.5 -50t140 -136t51.5 -187t-51.5 -187t-140 -136t-193.5 -50t-193.5 50t-140 136t-51.5 187t51.5 187t140 136t193.5 50zM415.5 48q64.5 0 123.5 24.5t102 66t68 98.5t25 120q0 83 -42.5 154.5t-116 113t-159.5 41.5t-159.5 -41.5t-116 -113
t-42.5 -154.5q0 -63 25 -120t68 -98.5t101.5 -66t123 -24.5zM601 431q0 -97 -87 -123l98 -156h-112l-88 146h-77v-146h-98v410h210q73 0 113.5 -35t40.5 -96zM335 489v-119h94q35 0 53.5 16t18.5 45q0 27 -18.5 42.5t-53.5 15.5h-94z" />
    <glyph glyph-name="macron" unicode="&#xaf;" horiz-adv-x="584" 
d="M532 612h-480v122h480v-122z" />
    <glyph glyph-name="degree" unicode="&#xb0;" horiz-adv-x="353" 
d="M176.5 401q-67.5 0 -112.5 43.5t-45 112.5q0 34 12.5 63t33.5 49t50 31.5t62 11.5q67 0 112 -43.5t45 -112t-45 -112t-112.5 -43.5zM176.5 475q35.5 0 56.5 23t21 58.5t-21 58.5t-56.5 23t-56.5 -23t-21 -58.5t21 -58.5t56.5 -23z" />
    <glyph glyph-name="plusminus" unicode="&#xb1;" horiz-adv-x="649" 
d="M589 441v-131h-190v-148h-149v148h-189v131h189v148h149v-148h190zM61 120h528v-120h-528v120z" />
    <glyph glyph-name="uni00B2" unicode="&#xb2;" horiz-adv-x="553" 
d="M257 431q-56 -13 -68 -31h325v-102h-491v13q0 41 13 74.5t31.5 54.5t47 38.5t50.5 25.5t51 16l86 25q18 5 29 10.5t17.5 14t6.5 21.5q0 35 -75 35q-84 0 -91 -59h-157q6 85 63.5 122.5t174.5 37.5q124 0 184.5 -28.5t60.5 -101.5q0 -62 -34 -92.5t-104 -46.5z" />
    <glyph glyph-name="uni00B3" unicode="&#xb3;" horiz-adv-x="544" 
d="M436 513q81 -12 81 -95q0 -72 -56.5 -102.5t-197.5 -30.5q-91 0 -144.5 15.5t-77 47t-26.5 86.5h156q5 -48 92 -48q46 0 70 8.5t24 30.5q0 42 -73 42h-86v89h88q68 0 68 37q0 39 -91 39q-82 0 -85 -48h-146q3 77 57 110t174 33q129 0 186 -27.5t57 -97.5q0 -73 -70 -85
v-4z" />
    <glyph glyph-name="acute" unicode="&#xb4;" horiz-adv-x="489" 
d="M436 749l-190 -149h-194l81 149h303z" />
    <glyph glyph-name="paragraph" unicode="&#xb6;" horiz-adv-x="739" 
d="M686 713v-897h-146v776h-89v-776h-146v455h-15q-130 0 -196 57t-66 164t66.5 164t197.5 57h394z" />
    <glyph glyph-name="periodcentered" unicode="&#xb7;" horiz-adv-x="335" 
d="M168 174q-58 0 -99 40.5t-41 99t41 99t99 40.5q38 0 70 -18.5t50.5 -50.5t18.5 -70q0 -59 -40.5 -99.5t-98.5 -40.5z" />
    <glyph glyph-name="cedilla" unicode="&#xb8;" horiz-adv-x="462" 
d="M52 -236v82h6q43 -13 69.5 -17.5t67.5 -4.5q59 0 59 29t-59 29q-50 0 -83 -8h-6v49l83 102h101l-60 -75q9 2 24 2q82 0 118.5 -22.5t36.5 -75.5q0 -59 -47.5 -83.5t-158.5 -24.5q-86 0 -151 18z" />
    <glyph glyph-name="uni00B9" unicode="&#xb9;" horiz-adv-x="354" 
d="M301 714v-416h-146v237h-134v96h36q55 0 82 21t39 62h123z" />
    <glyph glyph-name="ordmasculine" unicode="&#xba;" horiz-adv-x="508" 
d="M254 723q119 0 177 -45.5t58 -129.5q0 -175 -235 -175t-235 175q0 84 58 129.5t177 45.5zM253.5 472q82.5 0 82.5 76q0 75 -82 75q-42 0 -62.5 -20t-20.5 -55q0 -76 82.5 -76zM19 114h470v-114h-470v114z" />
    <glyph glyph-name="guillemotright" unicode="&#xbb;" horiz-adv-x="531" 
d="M245 385v-226l-207 -141v177l114 75v5l-114 75v176zM500 385v-226l-206 -141v177l114 75v5l-114 75v176z" />
    <glyph glyph-name="questiondown" unicode="&#xbf;" horiz-adv-x="783" 
d="M508 540v-198h-237v198h237zM523 64h240q-1 -49 -14 -88.5t-37 -67t-56 -47t-75.5 -30.5t-91 -16t-105.5 -5q-179 0 -272 47.5t-93 155.5q0 64 32.5 101t96.5 66l57 25q23 11 38 21t21.5 19t9 15t2.5 14l2 13h224v-23q0 -58 -23 -90.5t-81 -59.5l-71 -33
q-30 -14 -43.5 -26.5t-13.5 -30.5q0 -54 114 -54q64 0 100.5 21t38.5 73z" />
    <glyph glyph-name="Agrave" unicode="&#xc0;" horiz-adv-x="958" 
d="M580 777h-193l-191 149h304zM710 0l-49 112h-364l-49 -112h-252l332 714h304l329 -714h-251zM369 278h220l-107 244h-6z" />
    <glyph glyph-name="Aacute" unicode="&#xc1;" horiz-adv-x="958" 
d="M774 926l-191 -149h-193l80 149h304zM710 0l-49 112h-364l-49 -112h-252l332 714h304l329 -714h-251zM369 278h220l-107 244h-6z" />
    <glyph glyph-name="Acircumflex" unicode="&#xc2;" horiz-adv-x="958" 
d="M478 848l-56 -71h-230l132 147h314l131 -147h-229l-56 71h-6zM710 0l-49 112h-364l-49 -112h-252l332 714h304l329 -714h-251zM369 278h220l-107 244h-6z" />
    <glyph glyph-name="Atilde" unicode="&#xc3;" horiz-adv-x="958" 
d="M395 806q-18 0 -24.5 -8t-7.5 -28h-148q0 42 14.5 75.5t37.5 53t50 29.5t54 10q37 0 107 -23t87 -23q19 0 25 7.5t8 28.5h147q0 -42 -14.5 -75.5t-38.5 -53t-51 -30t-54 -10.5q-36 0 -105.5 23.5t-86.5 23.5zM710 0l-49 112h-364l-49 -112h-252l332 714h304l329 -714
h-251zM369 278h220l-107 244h-6z" />
    <glyph glyph-name="Adieresis" unicode="&#xc4;" horiz-adv-x="958" 
d="M436 902v-124h-207v124h207zM732 902v-124h-207v124h207zM710 0l-49 112h-364l-49 -112h-252l332 714h304l329 -714h-251zM369 278h220l-107 244h-6z" />
    <glyph glyph-name="Aring" unicode="&#xc5;" horiz-adv-x="958" 
d="M482 742q-37 0 -69 9.5t-55.5 27t-37 43.5t-13.5 57q0 62 50 99.5t124.5 37.5t124.5 -37.5t50 -99.5t-50 -99.5t-124 -37.5zM481.5 926q-23.5 0 -40 -12.5t-16.5 -34t16.5 -34.5t40 -13t40 13t16.5 34.5t-16.5 34t-40 12.5zM710 0l-49 112h-364l-49 -112h-252l332 714
h304l329 -714h-251zM369 278h220l-107 244h-6z" />
    <glyph glyph-name="AE" unicode="&#xc6;" horiz-adv-x="1404" 
d="M915 170h450v-170h-670v112h-345l-76 -112h-274l507 714h848v-172h-440v-100h419v-158h-419v-114zM462 278h233v264h-53z" />
    <glyph glyph-name="Ccedilla" unicode="&#xc7;" horiz-adv-x="970" 
d="M940 294q-2 -72 -30 -129t-79.5 -96.5t-124.5 -62.5t-165 -28l-22 -28q10 2 25 2q81 0 118 -22.5t37 -75.5q0 -59 -47.5 -83.5t-159.5 -24.5q-86 0 -150 18v82h6q22 -7 37.5 -11t31.5 -6.5t31 -3.5t36 -1q60 0 60 29t-60 29q-49 0 -82 -8h-6v49l45 55q-193 10 -301.5 105
t-108.5 274q0 127 57.5 213.5t158.5 127t242 40.5q208 0 326.5 -79.5t122.5 -222.5h-271q-1 12 -5 24.5t-12.5 26t-22.5 25t-32.5 20.5t-45.5 14.5t-60 5.5q-100 0 -152.5 -51.5t-52.5 -143.5t52.5 -143.5t152.5 -51.5q168 0 176 132h275z" />
    <glyph glyph-name="Egrave" unicode="&#xc8;" horiz-adv-x="820" 
d="M128 926h303l81 -149h-193zM282 542v-100h469v-158h-469v-114h500v-170h-730v714h719v-172h-489z" />
    <glyph glyph-name="Eacute" unicode="&#xc9;" horiz-adv-x="820" 
d="M706 926l-192 -149h-192l80 149h304zM282 542v-100h469v-158h-469v-114h500v-170h-730v714h719v-172h-489z" />
    <glyph glyph-name="Ecircumflex" unicode="&#xca;" horiz-adv-x="820" 
d="M471 777l-56 71h-6l-56 -71h-229l131 147h314l131 -147h-229zM282 542v-100h469v-158h-469v-114h500v-170h-730v714h719v-172h-489z" />
    <glyph glyph-name="Edieresis" unicode="&#xcb;" horiz-adv-x="820" 
d="M160 778v124h208v-124h-208zM456 778v124h208v-124h-208zM282 542v-100h469v-158h-469v-114h500v-170h-730v714h719v-172h-489z" />
    <glyph glyph-name="Igrave" unicode="&#xcc;" horiz-adv-x="335" 
d="M-117 926h304l80 -149h-193zM282 0h-230v714h230v-714z" />
    <glyph glyph-name="Iacute" unicode="&#xcd;" horiz-adv-x="335" 
d="M461 926l-191 -149h-193l80 149h304zM282 0h-230v714h230v-714z" />
    <glyph glyph-name="Icircumflex" unicode="&#xce;" horiz-adv-x="335" 
d="M226 777l-56 71h-6l-56 -71h-229l131 147h314l132 -147h-230zM282 0h-230v714h230v-714z" />
    <glyph glyph-name="Idieresis" unicode="&#xcf;" horiz-adv-x="335" 
d="M-84 778v124h207v-124h-207zM212 778v124h207v-124h-207zM282 0h-230v714h230v-714z" />
    <glyph glyph-name="Eth" unicode="&#xd0;" horiz-adv-x="944" 
d="M508 714q204 0 304.5 -83.5t100.5 -273.5t-100.5 -273.5t-304.5 -83.5h-438v295h-74v125h74v294h438zM461 181q101 0 150 41.5t49 134.5t-49 134.5t-150 41.5h-161v-113h157v-125h-157v-114h161z" />
    <glyph glyph-name="Ntilde" unicode="&#xd1;" horiz-adv-x="931" 
d="M572 759q-36 0 -105.5 23.5t-86.5 23.5q-18 0 -24.5 -8t-7.5 -28h-147q0 42 14 75.5t37.5 53t50 29.5t54.5 10q37 0 107 -23t86 -23q13 0 20 4t9.5 11t3.5 21h147q0 -42 -14.5 -75.5t-38 -53t-50.5 -30t-55 -10.5zM659 714h219v-714h-264l-336 439h-6v-439h-220v714h272
l329 -430h6v430z" />
    <glyph glyph-name="Ograve" unicode="&#xd2;" horiz-adv-x="1001" 
d="M216 926h304l80 -149h-193zM500.5 738q222.5 0 346 -95.5t123.5 -285.5t-123.5 -285.5t-346 -95.5t-346 95.5t-123.5 285.5t123.5 285.5t346 95.5zM500.5 162q108.5 0 163 51t54.5 144t-54.5 144t-163 51t-162.5 -51t-54 -144t54 -144t162.5 -51z" />
    <glyph glyph-name="Oacute" unicode="&#xd3;" horiz-adv-x="1001" 
d="M794 926l-191 -149h-193l80 149h304zM500.5 738q222.5 0 346 -95.5t123.5 -285.5t-123.5 -285.5t-346 -95.5t-346 95.5t-123.5 285.5t123.5 285.5t346 95.5zM500.5 162q108.5 0 163 51t54.5 144t-54.5 144t-163 51t-162.5 -51t-54 -144t54 -144t162.5 -51z" />
    <glyph glyph-name="Ocircumflex" unicode="&#xd4;" horiz-adv-x="1001" 
d="M560 777l-56 71h-6l-56 -71h-230l132 147h314l131 -147h-229zM500.5 738q222.5 0 346 -95.5t123.5 -285.5t-123.5 -285.5t-346 -95.5t-346 95.5t-123.5 285.5t123.5 285.5t346 95.5zM500.5 162q108.5 0 163 51t54.5 144t-54.5 144t-163 51t-162.5 -51t-54 -144t54 -144
t162.5 -51z" />
    <glyph glyph-name="Otilde" unicode="&#xd5;" horiz-adv-x="1001" 
d="M607 759q-37 0 -106 23.5t-86 23.5q-10 0 -16 -2t-9.5 -6.5t-5 -11t-2.5 -16.5h-147q0 42 14.5 75.5t37.5 53t50 29.5t54 10q37 0 107 -23t87 -23q18 0 24.5 7.5t8.5 28.5h147q0 -42 -14.5 -75.5t-38.5 -53t-51 -30t-54 -10.5zM500.5 738q222.5 0 346 -95.5t123.5 -285.5
t-123.5 -285.5t-346 -95.5t-346 95.5t-123.5 285.5t123.5 285.5t346 95.5zM500.5 162q108.5 0 163 51t54.5 144t-54.5 144t-163 51t-162.5 -51t-54 -144t54 -144t162.5 -51z" />
    <glyph glyph-name="Odieresis" unicode="&#xd6;" horiz-adv-x="1001" 
d="M249 778v124h207v-124h-207zM545 778v124h207v-124h-207zM500.5 738q222.5 0 346 -95.5t123.5 -285.5t-123.5 -285.5t-346 -95.5t-346 95.5t-123.5 285.5t123.5 285.5t346 95.5zM500.5 162q108.5 0 163 51t54.5 144t-54.5 144t-163 51t-162.5 -51t-54 -144t54 -144
t162.5 -51z" />
    <glyph glyph-name="multiply" unicode="&#xd7;" horiz-adv-x="633" 
d="M572 483l-156 -157l156 -157l-100 -99l-156 156l-156 -156l-99 99l156 157l-156 157l99 99l156 -156l156 156z" />
    <glyph glyph-name="Oslash" unicode="&#xd8;" horiz-adv-x="1001" 
d="M875 618q95 -96 95 -261q0 -190 -123.5 -285.5t-345.5 -95.5q-181 0 -295 62l-91 -78l-79 58l90 78q-95 96 -95 261q0 190 123.5 285.5t346.5 95.5q180 0 294 -62l91 78l79 -58zM284 357q0 -61 23 -104l317 274q-50 25 -123 25q-109 0 -163 -51t-54 -144zM501 162
q108 0 162.5 51t54.5 144q0 61 -24 104l-317 -274q50 -25 124 -25z" />
    <glyph glyph-name="Ugrave" unicode="&#xd9;" horiz-adv-x="926" 
d="M178 926h304l80 -149h-192zM643 714h230v-404q0 -65 -12.5 -116t-38.5 -87.5t-60.5 -61.5t-82 -40t-99.5 -21t-117 -6q-78 0 -138.5 9t-113 32t-86.5 60t-53.5 95.5t-19.5 135.5v404h230v-404q0 -83 46 -115.5t135 -32.5t134.5 32.5t45.5 115.5v404z" />
    <glyph glyph-name="Uacute" unicode="&#xda;" horiz-adv-x="926" 
d="M756 926l-191 -149h-193l81 149h303zM643 714h230v-404q0 -65 -12.5 -116t-38.5 -87.5t-60.5 -61.5t-82 -40t-99.5 -21t-117 -6q-78 0 -138.5 9t-113 32t-86.5 60t-53.5 95.5t-19.5 135.5v404h230v-404q0 -83 46 -115.5t135 -32.5t134.5 32.5t45.5 115.5v404z" />
    <glyph glyph-name="Ucircumflex" unicode="&#xdb;" horiz-adv-x="926" 
d="M522 777l-56 71h-6l-56 -71h-229l131 147h314l131 -147h-229zM643 714h230v-404q0 -65 -12.5 -116t-38.5 -87.5t-60.5 -61.5t-82 -40t-99.5 -21t-117 -6q-78 0 -138.5 9t-113 32t-86.5 60t-53.5 95.5t-19.5 135.5v404h230v-404q0 -83 46 -115.5t135 -32.5t134.5 32.5
t45.5 115.5v404z" />
    <glyph glyph-name="Udieresis" unicode="&#xdc;" horiz-adv-x="926" 
d="M211 778v124h208v-124h-208zM507 778v124h207v-124h-207zM643 714h230v-404q0 -65 -12.5 -116t-38.5 -87.5t-60.5 -61.5t-82 -40t-99.5 -21t-117 -6q-78 0 -138.5 9t-113 32t-86.5 60t-53.5 95.5t-19.5 135.5v404h230v-404q0 -83 46 -115.5t135 -32.5t134.5 32.5
t45.5 115.5v404z" />
    <glyph glyph-name="Yacute" unicode="&#xdd;" horiz-adv-x="889" 
d="M738 926l-191 -149h-193l80 149h304zM899 714l-339 -476v-238h-231v238l-339 476h273l182 -280l181 280h273z" />
    <glyph glyph-name="Thorn" unicode="&#xde;" horiz-adv-x="896" 
d="M581 620q150 0 215.5 -59t65.5 -183q0 -123 -65.5 -182.5t-215.5 -59.5h-299v-136h-230v714h230v-94h299zM525 299q45 0 65 18t20 55q0 18 -5 31.5t-15 23t-26 14t-39 4.5h-243v-146h243z" />
    <glyph glyph-name="germandbls" unicode="&#xdf;" horiz-adv-x="855" 
d="M657 420v-6q59 -5 97.5 -30t56 -64.5t17.5 -93.5q0 -61 -17.5 -104.5t-57 -75.5t-108 -47t-168.5 -15q-91 0 -130 14v162q50 -14 116 -14q53 0 91.5 23t38.5 66q0 86 -154 86h-92v130h83q46 0 74.5 17t28.5 49q0 58 -114 58q-31 0 -53.5 -4.5t-45.5 -16.5t-35 -38
t-12 -64v-452h-227v458q0 151 88 215t285 64q100 0 169.5 -13t108 -39t55 -58.5t16.5 -76.5q0 -108 -111 -130z" />
    <glyph glyph-name="agrave" unicode="&#xe0;" horiz-adv-x="780" 
d="M116 749h304l80 -149h-193zM737 87q0 -62 16 -81v-6h-222q-16 16 -16 53v20q-39 -47 -105.5 -71t-148.5 -24q-36 0 -69.5 6t-64 20t-53.5 34.5t-36.5 51t-13.5 67.5q0 86 47.5 126t138.5 48l235 23q31 3 44 10.5t13 24.5q0 38 -100 38q-26 0 -47.5 -4.5t-36 -16
t-16.5 -28.5h-238q8 185 336 185q79 0 136.5 -8t105 -26.5t71.5 -53t24 -85.5v-303zM511 234v18q-13 -9 -55 -15l-131 -21q-33 -6 -49.5 -19t-16.5 -38q0 -51 81 -51q28 0 56.5 7t55 21t43 39.5t16.5 58.5z" />
    <glyph glyph-name="aacute" unicode="&#xe1;" horiz-adv-x="780" 
d="M684 749l-192 -149h-192l80 149h304zM737 87q0 -62 16 -81v-6h-222q-16 16 -16 53v20q-39 -47 -105.5 -71t-148.5 -24q-36 0 -69.5 6t-64 20t-53.5 34.5t-36.5 51t-13.5 67.5q0 86 47.5 126t138.5 48l235 23q31 3 44 10.5t13 24.5q0 38 -100 38q-26 0 -47.5 -4.5t-36 -16
t-16.5 -28.5h-238q8 185 336 185q79 0 136.5 -8t105 -26.5t71.5 -53t24 -85.5v-303zM511 234v18q-13 -9 -55 -15l-131 -21q-33 -6 -49.5 -19t-16.5 -38q0 -51 81 -51q28 0 56.5 7t55 21t43 39.5t16.5 58.5z" />
    <glyph glyph-name="acircumflex" unicode="&#xe2;" horiz-adv-x="780" 
d="M459 600l-56 72h-6l-56 -72h-229l131 148h314l131 -148h-229zM737 87q0 -62 16 -81v-6h-222q-16 16 -16 53v20q-39 -47 -105.5 -71t-148.5 -24q-36 0 -69.5 6t-64 20t-53.5 34.5t-36.5 51t-13.5 67.5q0 86 47.5 126t138.5 48l235 23q31 3 44 10.5t13 24.5q0 38 -100 38
q-26 0 -47.5 -4.5t-36 -16t-16.5 -28.5h-238q8 185 336 185q79 0 136.5 -8t105 -26.5t71.5 -53t24 -85.5v-303zM511 234v18q-13 -9 -55 -15l-131 -21q-33 -6 -49.5 -19t-16.5 -38q0 -51 81 -51q28 0 56.5 7t55 21t43 39.5t16.5 58.5z" />
    <glyph glyph-name="atilde" unicode="&#xe3;" horiz-adv-x="780" 
d="M507 583q-36 0 -105.5 23t-85.5 23q-19 0 -25.5 -7.5t-7.5 -27.5h-147q0 42 14 75t37.5 53t50 30t54.5 10q37 0 107 -23.5t86 -23.5q13 0 20 4t9.5 11t3.5 21h147q0 -42 -14.5 -75.5t-38 -53t-50.5 -29.5t-55 -10zM737 87q0 -62 16 -81v-6h-222q-16 16 -16 53v20
q-39 -47 -105.5 -71t-148.5 -24q-36 0 -69.5 6t-64 20t-53.5 34.5t-36.5 51t-13.5 67.5q0 86 47.5 126t138.5 48l235 23q31 3 44 10.5t13 24.5q0 38 -100 38q-26 0 -47.5 -4.5t-36 -16t-16.5 -28.5h-238q8 185 336 185q79 0 136.5 -8t105 -26.5t71.5 -53t24 -85.5v-303z
M511 234v18q-13 -9 -55 -15l-131 -21q-33 -6 -49.5 -19t-16.5 -38q0 -51 81 -51q28 0 56.5 7t55 21t43 39.5t16.5 58.5z" />
    <glyph glyph-name="adieresis" unicode="&#xe4;" horiz-adv-x="780" 
d="M148 604v124h208v-124h-208zM444 604v124h208v-124h-208zM737 87q0 -62 16 -81v-6h-222q-16 16 -16 53v20q-39 -47 -105.5 -71t-148.5 -24q-36 0 -69.5 6t-64 20t-53.5 34.5t-36.5 51t-13.5 67.5q0 86 47.5 126t138.5 48l235 23q31 3 44 10.5t13 24.5q0 38 -100 38
q-26 0 -47.5 -4.5t-36 -16t-16.5 -28.5h-238q8 185 336 185q79 0 136.5 -8t105 -26.5t71.5 -53t24 -85.5v-303zM511 234v18q-13 -9 -55 -15l-131 -21q-33 -6 -49.5 -19t-16.5 -38q0 -51 81 -51q28 0 56.5 7t55 21t43 39.5t16.5 58.5z" />
    <glyph glyph-name="aring" unicode="&#xe5;" horiz-adv-x="780" 
d="M400 588q-49 0 -88.5 16t-63 47.5t-23.5 73.5q0 62 50 99.5t125 37.5t125 -37.5t50 -100t-50 -99.5t-125 -37zM400 678q24 0 40 12.5t16 34t-16 34.5t-40 13t-40 -13t-16 -34q0 -14 7.5 -25t20.5 -16.5t28 -5.5zM737 87q0 -62 16 -81v-6h-222q-16 16 -16 53v20
q-39 -47 -105.5 -71t-148.5 -24q-36 0 -69.5 6t-64 20t-53.5 34.5t-36.5 51t-13.5 67.5q0 86 47.5 126t138.5 48l235 23q31 3 44 10.5t13 24.5q0 38 -100 38q-26 0 -47.5 -4.5t-36 -16t-16.5 -28.5h-238q8 185 336 185q79 0 136.5 -8t105 -26.5t71.5 -53t24 -85.5v-303z
M511 234v18q-13 -9 -55 -15l-131 -21q-33 -6 -49.5 -19t-16.5 -38q0 -51 81 -51q28 0 56.5 7t55 21t43 39.5t16.5 58.5z" />
    <glyph glyph-name="ae" unicode="&#xe6;" horiz-adv-x="1257" 
d="M1230 270q0 -30 -3 -53h-499q7 -51 39 -75.5t93 -24.5q96 0 120 51h242q-11 -190 -362 -190q-95 0 -164 25t-99 71q-44 -50 -114 -73t-182 -23q-81 0 -141.5 17.5t-98 58.5t-37.5 103q0 86 47.5 126t138.5 48l235 23q31 3 44 10.5t13 24.5q0 38 -100 38q-41 0 -69.5 -12
t-30.5 -37h-238q8 185 336 185q188 0 237 -59q64 59 224 59q186 0 277.5 -76t91.5 -217zM861 424q-106 0 -128 -78h256q-22 78 -128 78zM511 234v18q-13 -9 -55 -15l-131 -21q-33 -6 -49.5 -19t-16.5 -38q0 -51 81 -51q28 0 56.5 7t55 21t43 39.5t16.5 58.5z" />
    <glyph glyph-name="ccedilla" unicode="&#xe7;" horiz-adv-x="810" 
d="M783 214q-11 -104 -87 -164.5t-240 -69.5l-23 -30q9 2 25 2q81 0 117.5 -22.5t36.5 -75.5q0 -59 -47.5 -83.5t-158.5 -24.5q-86 0 -150 18v82h6q42 -13 68.5 -17.5t67.5 -4.5q59 0 59 29t-59 29q-50 0 -82 -8h-6v49l44 56q-109 6 -182.5 42.5t-109 99t-35.5 149.5
q0 141 93.5 217t279.5 76q100 0 172.5 -17t115.5 -49.5t65.5 -73t28.5 -93.5h-248q-2 13 -9.5 25t-22 23.5t-41 18t-61.5 6.5q-68 0 -103 -35t-35 -97.5t35 -98t103 -35.5t99 22.5t36 54.5h248z" />
    <glyph glyph-name="egrave" unicode="&#xe8;" 
d="M506 600h-193l-191 149h303zM784 270q0 -30 -3 -53h-518q8 -51 42.5 -75.5t100.5 -24.5q100 0 128 51h242q-2 -30 -12.5 -55.5t-36.5 -51t-66 -43.5t-105.5 -29t-149.5 -11q-190 0 -284.5 75.5t-94.5 216.5t94.5 217t284 76t284 -76t94.5 -217zM405.5 424
q-113.5 0 -137.5 -78h275q-24 78 -137.5 78z" />
    <glyph glyph-name="eacute" unicode="&#xe9;" 
d="M689 749l-191 -149h-193l80 149h304zM784 270q0 -30 -3 -53h-518q8 -51 42.5 -75.5t100.5 -24.5q100 0 128 51h242q-2 -30 -12.5 -55.5t-36.5 -51t-66 -43.5t-105.5 -29t-149.5 -11q-190 0 -284.5 75.5t-94.5 216.5t94.5 217t284 76t284 -76t94.5 -217zM405.5 424
q-113.5 0 -137.5 -78h275q-24 78 -137.5 78z" />
    <glyph glyph-name="ecircumflex" unicode="&#xea;" 
d="M402 672l-56 -72h-229l131 148h314l132 -148h-230l-56 72h-6zM784 270q0 -30 -3 -53h-518q8 -51 42.5 -75.5t100.5 -24.5q100 0 128 51h242q-2 -30 -12.5 -55.5t-36.5 -51t-66 -43.5t-105.5 -29t-149.5 -11q-190 0 -284.5 75.5t-94.5 216.5t94.5 217t284 76t284 -76
t94.5 -217zM405.5 424q-113.5 0 -137.5 -78h275q-24 78 -137.5 78z" />
    <glyph glyph-name="edieresis" unicode="&#xeb;" 
d="M361 728v-124h-207v124h207zM657 728v-124h-207v124h207zM784 270q0 -30 -3 -53h-518q8 -51 42.5 -75.5t100.5 -24.5q100 0 128 51h242q-2 -30 -12.5 -55.5t-36.5 -51t-66 -43.5t-105.5 -29t-149.5 -11q-190 0 -284.5 75.5t-94.5 216.5t94.5 217t284 76t284 -76
t94.5 -217zM405.5 424q-113.5 0 -137.5 -78h275q-24 78 -137.5 78z" />
    <glyph glyph-name="igrave" unicode="&#xec;" horiz-adv-x="318" 
d="M-125 749h304l80 -149h-193zM46 0v540h226v-540h-226z" />
    <glyph glyph-name="iacute" unicode="&#xed;" horiz-adv-x="318" 
d="M442 749l-191 -149h-193l80 149h304zM46 0v540h226v-540h-226z" />
    <glyph glyph-name="icircumflex" unicode="&#xee;" horiz-adv-x="318" 
d="M218 600l-56 72h-6l-56 -72h-230l132 148h314l131 -148h-229zM46 0v540h226v-540h-226z" />
    <glyph glyph-name="idieresis" unicode="&#xef;" horiz-adv-x="318" 
d="M-93 604v124h208v-124h-208zM203 604v124h207v-124h-207zM46 0v540h226v-540h-226z" />
    <glyph glyph-name="eth" unicode="&#xf0;" horiz-adv-x="804" 
d="M514 664q263 -111 263 -352q0 -94 -26.5 -159.5t-79.5 -103.5t-124 -55t-167 -17q-57 0 -106.5 7t-96 25t-79 45.5t-52 72t-19.5 102.5q0 48 14 87.5t39 66.5t56.5 46.5t70.5 30t76.5 15.5t77.5 5q85 0 149 -37l4 2q-36 69 -184 114l-127 -72l-74 52l87 49
q-77 14 -138 22l90 136q135 -16 244 -46l114 64l74 -51zM398 135q136 0 136 94q0 93 -136 93t-136 -93q0 -94 136 -94z" />
    <glyph glyph-name="ntilde" unicode="&#xf1;" horiz-adv-x="797" 
d="M506 583q-37 0 -106 23t-86 23q-13 0 -20 -4t-9.5 -11t-3.5 -20h-147q0 42 14.5 75t37.5 53t50 30t54 10q29 0 68.5 -11.5t74.5 -23.5t51 -12q18 0 24.5 8t7.5 28h148q0 -42 -15 -75.5t-38.5 -53t-50.5 -29.5t-54 -10zM268 540v-67h6q92 81 236 81q110 0 175.5 -53
t65.5 -158v-343h-226v274q0 104 -113 104q-26 0 -49.5 -6.5t-44.5 -20.5t-33.5 -42t-12.5 -66v-243h-226v540h222z" />
    <glyph glyph-name="ograve" unicode="&#xf2;" 
d="M122 749h303l81 -149h-193zM405.5 563q189.5 0 284 -76t94.5 -217t-94.5 -216.5t-284 -75.5t-284 75.5t-94.5 216.5t94.5 217t284 76zM406 137q71 0 107 35t36 98t-36 98t-107 35q-49 0 -81.5 -16.5t-47.5 -45.5t-15 -70.5t15 -71t47.5 -46t81.5 -16.5z" />
    <glyph glyph-name="oacute" unicode="&#xf3;" 
d="M689 749l-191 -149h-193l80 149h304zM405.5 563q189.5 0 284 -76t94.5 -217t-94.5 -216.5t-284 -75.5t-284 75.5t-94.5 216.5t94.5 217t284 76zM406 137q71 0 107 35t36 98t-36 98t-107 35q-49 0 -81.5 -16.5t-47.5 -45.5t-15 -70.5t15 -71t47.5 -46t81.5 -16.5z" />
    <glyph glyph-name="ocircumflex" unicode="&#xf4;" 
d="M464 600l-56 72h-6l-56 -72h-229l131 148h314l132 -148h-230zM405.5 563q189.5 0 284 -76t94.5 -217t-94.5 -216.5t-284 -75.5t-284 75.5t-94.5 216.5t94.5 217t284 76zM406 137q71 0 107 35t36 98t-36 98t-107 35q-49 0 -81.5 -16.5t-47.5 -45.5t-15 -70.5t15 -71
t47.5 -46t81.5 -16.5z" />
    <glyph glyph-name="otilde" unicode="&#xf5;" 
d="M513 583q-37 0 -106 23t-86 23q-19 0 -25 -7.5t-8 -27.5h-147q0 42 14.5 75t37.5 53t50 30t54 10q37 0 107 -23.5t87 -23.5q13 0 19.5 4t9 11t3.5 21h148q0 -42 -15 -75.5t-38.5 -53t-50.5 -29.5t-54 -10zM405.5 563q189.5 0 284 -76t94.5 -217t-94.5 -216.5t-284 -75.5
t-284 75.5t-94.5 216.5t94.5 217t284 76zM406 137q71 0 107 35t36 98t-36 98t-107 35q-49 0 -81.5 -16.5t-47.5 -45.5t-15 -70.5t15 -71t47.5 -46t81.5 -16.5z" />
    <glyph glyph-name="odieresis" unicode="&#xf6;" 
d="M154 604v124h207v-124h-207zM450 604v124h207v-124h-207zM405.5 563q189.5 0 284 -76t94.5 -217t-94.5 -216.5t-284 -75.5t-284 75.5t-94.5 216.5t94.5 217t284 76zM406 137q71 0 107 35t36 98t-36 98t-107 35q-49 0 -81.5 -16.5t-47.5 -45.5t-15 -70.5t15 -71t47.5 -46
t81.5 -16.5z" />
    <glyph glyph-name="divide" unicode="&#xf7;" horiz-adv-x="650" 
d="M325 456q-39 0 -67 28t-28 67.5t28 67.5t67 28t67 -28t28 -67.5t-28 -67.5t-67 -28zM589 396v-140h-528v140h528zM325 5q-39 0 -67 28t-28 67.5t28 67.5t67 28t67 -28t28 -67.5t-28 -67.5t-67 -28z" />
    <glyph glyph-name="oslash" unicode="&#xf8;" 
d="M710 469q74 -73 74 -199q0 -141 -94.5 -216.5t-283.5 -75.5q-152 0 -244 49l-60 -49l-63 43l62 50q-74 73 -74 199q0 141 94.5 217t284.5 76q151 0 243 -50l60 49l63 -42zM262 270q0 -34 11 -61l217 176q-34 18 -84 18q-49 0 -81.5 -16.5t-47.5 -45.5t-15 -71zM406 137
q71 0 107 35t36 98q0 35 -11 61l-217 -175q34 -19 85 -19z" />
    <glyph glyph-name="ugrave" unicode="&#xf9;" horiz-adv-x="797" 
d="M114 749h304l80 -149h-192zM529 0v68h-6q-93 -82 -236 -82q-110 0 -175.5 53t-65.5 158v343h226v-274q0 -104 113 -104q21 0 39.5 3.5t37.5 13.5t32.5 24.5t22 38.5t8.5 55v243h226v-540h-222z" />
    <glyph glyph-name="uacute" unicode="&#xfa;" horiz-adv-x="797" 
d="M682 749l-191 -149h-193l80 149h304zM529 0v68h-6q-93 -82 -236 -82q-110 0 -175.5 53t-65.5 158v343h226v-274q0 -104 113 -104q21 0 39.5 3.5t37.5 13.5t32.5 24.5t22 38.5t8.5 55v243h226v-540h-222z" />
    <glyph glyph-name="ucircumflex" unicode="&#xfb;" horiz-adv-x="797" 
d="M457 600l-56 72h-6l-56 -72h-229l131 148h314l132 -148h-230zM529 0v68h-6q-93 -82 -236 -82q-110 0 -175.5 53t-65.5 158v343h226v-274q0 -104 113 -104q21 0 39.5 3.5t37.5 13.5t32.5 24.5t22 38.5t8.5 55v243h226v-540h-222z" />
    <glyph glyph-name="udieresis" unicode="&#xfc;" horiz-adv-x="797" 
d="M147 604v124h207v-124h-207zM442 604v124h208v-124h-208zM529 0v68h-6q-93 -82 -236 -82q-110 0 -175.5 53t-65.5 158v343h226v-274q0 -104 113 -104q21 0 39.5 3.5t37.5 13.5t32.5 24.5t22 38.5t8.5 55v243h226v-540h-222z" />
    <glyph glyph-name="yacute" unicode="&#xfd;" horiz-adv-x="784" 
d="M675 749l-191 -149h-193l81 149h303zM784 540l-276 -549q-21 -42 -38 -69.5t-37.5 -49.5t-41 -34.5t-49.5 -20.5t-61 -10.5t-78 -2.5h-116v179h85q41 0 57 6t25 24l8 17l-262 510h256l133 -313h6l133 313h256z" />
    <glyph glyph-name="thorn" unicode="&#xfe;" horiz-adv-x="820" 
d="M278 51h-6v-233h-226v906h226v-243h6q78 73 204 73q144 0 227.5 -75t83.5 -213q0 -92 -38.5 -157.5t-108 -98t-164.5 -32.5q-126 0 -204 73zM414 395q-74 0 -112 -34.5t-38 -94.5t38 -94.5t112 -34.5q72 0 108 33.5t36 95.5t-36 95.5t-108 33.5z" />
    <glyph glyph-name="ydieresis" unicode="&#xff;" horiz-adv-x="784" 
d="M140 604v124h208v-124h-208zM436 604v124h207v-124h-207zM784 540l-276 -549q-21 -42 -38 -69.5t-37.5 -49.5t-41 -34.5t-49.5 -20.5t-61 -10.5t-78 -2.5h-116v179h85q41 0 57 6t25 24l8 17l-262 510h256l133 -313h6l133 313h256z" />
    <glyph glyph-name="Amacron" unicode="&#x100;" horiz-adv-x="958" 
d="M720 902v-122h-479v122h479zM710 0l-49 112h-364l-49 -112h-252l332 714h304l329 -714h-251zM369 278h220l-107 244h-6z" />
    <glyph glyph-name="amacron" unicode="&#x101;" horiz-adv-x="780" 
d="M640 612h-480v122h480v-122zM737 87q0 -62 16 -81v-6h-222q-16 16 -16 53v20q-39 -47 -105.5 -71t-148.5 -24q-36 0 -69.5 6t-64 20t-53.5 34.5t-36.5 51t-13.5 67.5q0 86 47.5 126t138.5 48l235 23q31 3 44 10.5t13 24.5q0 38 -100 38q-26 0 -47.5 -4.5t-36 -16
t-16.5 -28.5h-238q8 185 336 185q79 0 136.5 -8t105 -26.5t71.5 -53t24 -85.5v-303zM511 234v18q-13 -9 -55 -15l-131 -21q-33 -6 -49.5 -19t-16.5 -38q0 -51 81 -51q28 0 56.5 7t55 21t43 39.5t16.5 58.5z" />
    <glyph glyph-name="Abreve" unicode="&#x102;" horiz-adv-x="958" 
d="M481 766q-59 0 -111 16.5t-89 54.5t-39 91h176q6 -42 62.5 -42t62.5 42h177q-1 -40 -22.5 -72t-56.5 -51.5t-76 -29t-84 -9.5zM710 0l-49 112h-364l-49 -112h-252l332 714h304l329 -714h-251zM369 278h220l-107 244h-6z" />
    <glyph glyph-name="abreve" unicode="&#x103;" horiz-adv-x="780" 
d="M639 750q-2 -53 -39 -91t-89.5 -54.5t-111.5 -16.5t-111 16.5t-89 54.5t-39 91h177q5 -42 62 -42t62 42h178zM737 87q0 -62 16 -81v-6h-222q-16 16 -16 53v20q-39 -47 -105.5 -71t-148.5 -24q-36 0 -69.5 6t-64 20t-53.5 34.5t-36.5 51t-13.5 67.5q0 86 47.5 126
t138.5 48l235 23q31 3 44 10.5t13 24.5q0 38 -100 38q-26 0 -47.5 -4.5t-36 -16t-16.5 -28.5h-238q8 185 336 185q79 0 136.5 -8t105 -26.5t71.5 -53t24 -85.5v-303zM511 234v18q-13 -9 -55 -15l-131 -21q-33 -6 -49.5 -19t-16.5 -38q0 -51 81 -51q28 0 56.5 7t55 21
t43 39.5t16.5 58.5z" />
    <glyph glyph-name="Aogonek" unicode="&#x104;" horiz-adv-x="958" 
d="M849 -94q0 -38 53 -38q23 0 59 8v-108q-39 -9 -103 -9q-100 0 -150 29t-50 83q0 38 35.5 73.5t90.5 55.5h-74l-49 112h-364l-49 -112h-252l332 714h304l329 -714q-51 -16 -81.5 -43t-30.5 -51zM369 278h220l-107 244h-6z" />
    <glyph glyph-name="aogonek" unicode="&#x105;" horiz-adv-x="780" 
d="M753 0q-51 -16 -82 -43t-31 -51q0 -38 54 -38q23 0 59 8v-108q-40 -9 -104 -9q-67 0 -111.5 13.5t-65.5 38t-21 60.5q0 38 35 73.5t89 55.5h-44q-16 16 -16 53v20q-39 -47 -105.5 -71t-148.5 -24q-36 0 -69.5 6t-64 20t-53.5 34.5t-36.5 51t-13.5 67.5q0 86 47.5 126
t138.5 48l235 23q31 3 44 10.5t13 24.5q0 38 -100 38q-26 0 -47.5 -4.5t-36 -16t-16.5 -28.5h-238q8 185 336 185q79 0 136.5 -8t105 -26.5t71.5 -53t24 -85.5v-303q0 -62 16 -81v-6zM511 234v18q-13 -9 -55 -15l-131 -21q-33 -6 -49.5 -19t-16.5 -38q0 -51 81 -51
q28 0 56.5 7t55 21t43 39.5t16.5 58.5z" />
    <glyph glyph-name="Cacute" unicode="&#x106;" horiz-adv-x="970" 
d="M782 926l-191 -149h-193l81 149h303zM667 436q-1 12 -5 24.5t-12.5 26t-22.5 25t-32.5 20.5t-45.5 14.5t-60 5.5q-100 0 -152.5 -51.5t-52.5 -143.5t52.5 -143.5t152.5 -51.5q168 0 176 132h275q-4 -154 -122.5 -236t-328.5 -82q-141 0 -242 40.5t-158.5 127t-57.5 213.5
t57.5 213.5t158.5 127t242 40.5q208 0 326.5 -79.5t122.5 -222.5h-271z" />
    <glyph glyph-name="cacute" unicode="&#x107;" horiz-adv-x="810" 
d="M684 749l-191 -149h-193l80 149h304zM400 137q68 0 99 22.5t36 54.5h248q-5 -54 -27.5 -95.5t-66.5 -74t-116.5 -49.5t-172.5 -17q-186 0 -279.5 75.5t-93.5 216.5t93.5 217t279.5 76q100 0 172.5 -17t115.5 -49.5t65.5 -73t28.5 -93.5h-248q-2 13 -9.5 25t-22 23.5
t-41 18t-61.5 6.5q-68 0 -103 -35t-35 -97.5t35 -98t103 -35.5z" />
    <glyph glyph-name="Ccircumflex" unicode="&#x108;" horiz-adv-x="970" 
d="M548 777l-56 71h-6l-56 -71h-229l131 147h314l131 -147h-229zM667 436q-1 12 -5 24.5t-12.5 26t-22.5 25t-32.5 20.5t-45.5 14.5t-60 5.5q-100 0 -152.5 -51.5t-52.5 -143.5t52.5 -143.5t152.5 -51.5q168 0 176 132h275q-4 -154 -122.5 -236t-328.5 -82q-141 0 -242 40.5
t-158.5 127t-57.5 213.5t57.5 213.5t158.5 127t242 40.5q208 0 326.5 -79.5t122.5 -222.5h-271z" />
    <glyph glyph-name="ccircumflex" unicode="&#x109;" horiz-adv-x="810" 
d="M459 600l-56 72h-6l-56 -72h-229l131 148h314l131 -148h-229zM400 137q68 0 99 22.5t36 54.5h248q-5 -54 -27.5 -95.5t-66.5 -74t-116.5 -49.5t-172.5 -17q-186 0 -279.5 75.5t-93.5 216.5t93.5 217t279.5 76q100 0 172.5 -17t115.5 -49.5t65.5 -73t28.5 -93.5h-248
q-2 13 -9.5 25t-22 23.5t-41 18t-61.5 6.5q-68 0 -103 -35t-35 -97.5t35 -98t103 -35.5z" />
    <glyph glyph-name="Cdotaccent" unicode="&#x10a;" horiz-adv-x="970" 
d="M374 778v124h230v-124h-230zM667 436q-1 12 -5 24.5t-12.5 26t-22.5 25t-32.5 20.5t-45.5 14.5t-60 5.5q-100 0 -152.5 -51.5t-52.5 -143.5t52.5 -143.5t152.5 -51.5q168 0 176 132h275q-4 -154 -122.5 -236t-328.5 -82q-141 0 -242 40.5t-158.5 127t-57.5 213.5
t57.5 213.5t158.5 127t242 40.5q208 0 326.5 -79.5t122.5 -222.5h-271z" />
    <glyph glyph-name="cdotaccent" unicode="&#x10b;" horiz-adv-x="810" 
d="M285 604v124h230v-124h-230zM400 137q68 0 99 22.5t36 54.5h248q-5 -54 -27.5 -95.5t-66.5 -74t-116.5 -49.5t-172.5 -17q-186 0 -279.5 75.5t-93.5 216.5t93.5 217t279.5 76q100 0 172.5 -17t115.5 -49.5t65.5 -73t28.5 -93.5h-248q-2 13 -9.5 25t-22 23.5t-41 18
t-61.5 6.5q-68 0 -103 -35t-35 -97.5t35 -98t103 -35.5z" />
    <glyph glyph-name="Ccaron" unicode="&#x10c;" horiz-adv-x="970" 
d="M548 926h229l-131 -148h-314l-131 148h229l56 -72h6zM667 436q-1 12 -5 24.5t-12.5 26t-22.5 25t-32.5 20.5t-45.5 14.5t-60 5.5q-100 0 -152.5 -51.5t-52.5 -143.5t52.5 -143.5t152.5 -51.5q168 0 176 132h275q-4 -154 -122.5 -236t-328.5 -82q-141 0 -242 40.5
t-158.5 127t-57.5 213.5t57.5 213.5t158.5 127t242 40.5q208 0 326.5 -79.5t122.5 -222.5h-271z" />
    <glyph glyph-name="ccaron" unicode="&#x10d;" horiz-adv-x="810" 
d="M459 748h229l-131 -148h-314l-131 148h229l56 -72h6zM400 137q68 0 99 22.5t36 54.5h248q-5 -54 -27.5 -95.5t-66.5 -74t-116.5 -49.5t-172.5 -17q-186 0 -279.5 75.5t-93.5 216.5t93.5 217t279.5 76q100 0 172.5 -17t115.5 -49.5t65.5 -73t28.5 -93.5h-248
q-2 13 -9.5 25t-22 23.5t-41 18t-61.5 6.5q-68 0 -103 -35t-35 -97.5t35 -98t103 -35.5z" />
    <glyph glyph-name="Dcaron" unicode="&#x10e;" horiz-adv-x="927" 
d="M484 925h230l-132 -147h-314l-131 147h229l56 -71h6zM491 714q204 0 304.5 -83.5t100.5 -273.5t-100.5 -273.5t-304.5 -83.5h-439v714h439zM444 533h-162v-352h162q100 0 149.5 41.5t49.5 134.5t-49.5 134.5t-149.5 41.5z" />
    <glyph glyph-name="dcaron" unicode="&#x10f;" horiz-adv-x="1017" 
d="M542 481h6v243h226v-724h-222v58h-6q-76 -80 -208 -80q-145 0 -228 75t-83 213.5t83 213t228 74.5q126 0 204 -73zM1005 724v-87q0 -63 -18.5 -101.5t-59.5 -57t-109 -18.5v67q49 0 68.5 15.5t19.5 50.5h-88v131h187zM406 137q74 0 111.5 34.5t37.5 94.5t-37.5 94.5
t-111.5 34.5q-72 0 -108 -33.5t-36 -95.5t36 -95.5t108 -33.5z" />
    <glyph glyph-name="Dcroat" unicode="&#x110;" horiz-adv-x="951" 
d="M508 714q204 0 304.5 -83.5t100.5 -273.5t-100.5 -273.5t-304.5 -83.5h-438v295h-74v125h74v294h438zM461 181q101 0 150 41.5t49 134.5t-49 134.5t-150 41.5h-161v-113h157v-125h-157v-114h161z" />
    <glyph glyph-name="dcroat" unicode="&#x111;" horiz-adv-x="842" 
d="M774 675h74v-102h-74v-573h-222v58h-6q-76 -80 -208 -80q-145 0 -228 75t-83 213.5t83 213t228 74.5q126 0 204 -73h6v92h-134v102h134v49h226v-49zM406 137q74 0 111.5 34.5t37.5 94.5t-37.5 94.5t-111.5 34.5q-72 0 -108 -33.5t-36 -95.5t36 -95.5t108 -33.5z" />
    <glyph glyph-name="Emacron" unicode="&#x112;" horiz-adv-x="820" 
d="M652 780h-480v122h480v-122zM282 542v-100h469v-158h-469v-114h500v-170h-730v714h719v-172h-489z" />
    <glyph glyph-name="emacron" unicode="&#x113;" 
d="M645 734v-122h-479v122h479zM784 270q0 -30 -3 -53h-518q8 -51 42.5 -75.5t100.5 -24.5q100 0 128 51h242q-2 -30 -12.5 -55.5t-36.5 -51t-66 -43.5t-105.5 -29t-149.5 -11q-190 0 -284.5 75.5t-94.5 216.5t94.5 217t284 76t284 -76t94.5 -217zM405.5 424
q-113.5 0 -137.5 -78h275q-24 78 -137.5 78z" />
    <glyph glyph-name="Ebreve" unicode="&#x114;" horiz-adv-x="820" 
d="M652 928q-2 -40 -23.5 -72t-56 -51.5t-76 -29t-84.5 -9.5q-59 0 -111 16.5t-89 54.5t-39 91h177q5 -42 62 -42t62 42h178zM282 542v-100h469v-158h-469v-114h500v-170h-730v714h719v-172h-489z" />
    <glyph glyph-name="ebreve" unicode="&#x115;" 
d="M405 588q-59 0 -111 16.5t-89 54.5t-39 91h176q6 -42 62.5 -42t62.5 42h177q-1 -53 -38.5 -91t-89.5 -54.5t-111 -16.5zM784 270q0 -30 -3 -53h-518q8 -51 42.5 -75.5t100.5 -24.5q100 0 128 51h242q-2 -30 -12.5 -55.5t-36.5 -51t-66 -43.5t-105.5 -29t-149.5 -11
q-190 0 -284.5 75.5t-94.5 216.5t94.5 217t284 76t284 -76t94.5 -217zM405.5 424q-113.5 0 -137.5 -78h275q-24 78 -137.5 78z" />
    <glyph glyph-name="Edotaccent" unicode="&#x116;" horiz-adv-x="820" 
d="M297 778v124h230v-124h-230zM282 542v-100h469v-158h-469v-114h500v-170h-730v714h719v-172h-489z" />
    <glyph glyph-name="edotaccent" unicode="&#x117;" 
d="M520 728v-124h-230v124h230zM784 270q0 -30 -3 -53h-518q8 -51 42.5 -75.5t100.5 -24.5q100 0 128 51h242q-2 -30 -12.5 -55.5t-36.5 -51t-66 -43.5t-105.5 -29t-149.5 -11q-190 0 -284.5 75.5t-94.5 216.5t94.5 217t284 76t284 -76t94.5 -217zM405.5 424
q-113.5 0 -137.5 -78h275q-24 78 -137.5 78z" />
    <glyph glyph-name="Eogonek" unicode="&#x118;" horiz-adv-x="820" 
d="M782 0q-51 -16 -81.5 -43t-30.5 -51q0 -38 52 -38q24 0 60 8v-108q-40 -9 -104 -9q-100 0 -149.5 29t-49.5 83q0 38 35 73.5t90 55.5h-552v714h719v-172h-489v-100h469v-158h-469v-114h500v-170z" />
    <glyph glyph-name="eogonek" unicode="&#x119;" 
d="M784 270q0 -30 -3 -53h-518q8 -51 42.5 -75.5t100.5 -24.5q100 0 128 51h242q-8 -128 -177 -171q-48 -16 -77 -42t-29 -49q0 -19 13.5 -28.5t30.5 -9.5q32 0 69 8v-108q-40 -9 -104 -9q-100 0 -149 29t-49 83q0 29 21 57t56 50q-178 5 -266 80.5t-88 211.5
q0 141 94.5 217t284 76t284 -76t94.5 -217zM405.5 424q-113.5 0 -137.5 -78h275q-24 78 -137.5 78z" />
    <glyph glyph-name="Ecaron" unicode="&#x11a;" horiz-adv-x="820" 
d="M471 926h229l-131 -148h-314l-131 148h229l56 -72h6zM282 542v-100h469v-158h-469v-114h500v-170h-730v714h719v-172h-489z" />
    <glyph glyph-name="ecaron" unicode="&#x11b;" 
d="M562 600h-314l-131 148h229l56 -72h6l56 72h230zM784 270q0 -30 -3 -53h-518q8 -51 42.5 -75.5t100.5 -24.5q100 0 128 51h242q-2 -30 -12.5 -55.5t-36.5 -51t-66 -43.5t-105.5 -29t-149.5 -11q-190 0 -284.5 75.5t-94.5 216.5t94.5 217t284 76t284 -76t94.5 -217z
M405.5 424q-113.5 0 -137.5 -78h275q-24 78 -137.5 78z" />
    <glyph glyph-name="Gcircumflex" unicode="&#x11c;" horiz-adv-x="992" 
d="M557 777l-56 71h-6l-56 -71h-229l131 147h314l132 -147h-230zM945 398v-398h-163v77q-97 -101 -276 -101q-226 0 -350.5 95t-124.5 286q0 190 123 285.5t344 95.5q107 0 190 -20t137 -56t83.5 -85.5t33.5 -110.5h-270q-25 86 -173 86q-107 0 -161 -51t-54 -144
q0 -98 55 -150t167 -52q49 0 86.5 11t57.5 27.5t29.5 31t9.5 25.5h-165v148h421z" />
    <glyph glyph-name="gcircumflex" unicode="&#x11d;" horiz-adv-x="810" 
d="M454 600l-56 72h-6l-56 -72h-229l131 148h314l132 -148h-230zM542 540h222v-507q0 -46 -7 -78.5t-29.5 -62.5t-61.5 -48t-104.5 -29t-158.5 -11q-88 0 -153.5 11.5t-103.5 29t-61.5 44.5t-32 52.5t-11.5 58.5h246q1 -11 6 -19.5t16.5 -18t35.5 -14.5t58 -5q57 0 87 11
t39 29t9 50v83h-6q-67 -72 -201 -72q-142 0 -223 65.5t-81 190t81 189.5t223 65q138 0 205 -76h6v62zM400 199q48 0 80.5 12.5t47.5 34.5t15 53q0 47 -36 74t-107 27q-69 0 -103.5 -26.5t-34.5 -74.5t34.5 -74t103.5 -26z" />
    <glyph glyph-name="Gbreve" unicode="&#x11e;" horiz-adv-x="992" 
d="M738 928q-1 -40 -23 -72t-56.5 -51.5t-75.5 -29t-85 -9.5q-59 0 -111 16.5t-89 54.5t-38 91h176q6 -42 62.5 -42t62.5 42h177zM945 398v-398h-163v77q-97 -101 -276 -101q-226 0 -350.5 95t-124.5 286q0 190 123 285.5t344 95.5q107 0 190 -20t137 -56t83.5 -85.5
t33.5 -110.5h-270q-25 86 -173 86q-107 0 -161 -51t-54 -144q0 -98 55 -150t167 -52q49 0 86.5 11t57.5 27.5t29.5 31t9.5 25.5h-165v148h421z" />
    <glyph glyph-name="gbreve" unicode="&#x11f;" horiz-adv-x="810" 
d="M634 750q-1 -53 -38.5 -91t-89.5 -54.5t-111 -16.5t-111 16.5t-89 54.5t-39 91h176q6 -42 62.5 -42t62.5 42h177zM542 540h222v-507q0 -46 -7 -78.5t-29.5 -62.5t-61.5 -48t-104.5 -29t-158.5 -11q-88 0 -153.5 11.5t-103.5 29t-61.5 44.5t-32 52.5t-11.5 58.5h246
q1 -11 6 -19.5t16.5 -18t35.5 -14.5t58 -5q57 0 87 11t39 29t9 50v83h-6q-67 -72 -201 -72q-142 0 -223 65.5t-81 190t81 189.5t223 65q138 0 205 -76h6v62zM400 199q48 0 80.5 12.5t47.5 34.5t15 53q0 47 -36 74t-107 27q-69 0 -103.5 -26.5t-34.5 -74.5t34.5 -74
t103.5 -26z" />
    <glyph glyph-name="Gdotaccent" unicode="&#x120;" horiz-adv-x="992" 
d="M383 778v124h230v-124h-230zM945 398v-398h-163v77q-97 -101 -276 -101q-226 0 -350.5 95t-124.5 286q0 190 123 285.5t344 95.5q107 0 190 -20t137 -56t83.5 -85.5t33.5 -110.5h-270q-25 86 -173 86q-107 0 -161 -51t-54 -144q0 -98 55 -150t167 -52q49 0 86.5 11
t57.5 27.5t29.5 31t9.5 25.5h-165v148h421z" />
    <glyph glyph-name="gdotaccent" unicode="&#x121;" horiz-adv-x="810" 
d="M280 604v124h230v-124h-230zM542 540h222v-507q0 -46 -7 -78.5t-29.5 -62.5t-61.5 -48t-104.5 -29t-158.5 -11q-88 0 -153.5 11.5t-103.5 29t-61.5 44.5t-32 52.5t-11.5 58.5h246q1 -11 6 -19.5t16.5 -18t35.5 -14.5t58 -5q57 0 87 11t39 29t9 50v83h-6q-67 -72 -201 -72
q-142 0 -223 65.5t-81 190t81 189.5t223 65q138 0 205 -76h6v62zM400 199q48 0 80.5 12.5t47.5 34.5t15 53q0 47 -36 74t-107 27q-69 0 -103.5 -26.5t-34.5 -74.5t34.5 -74t103.5 -26z" />
    <glyph glyph-name="Gcommaaccent" unicode="&#x122;" horiz-adv-x="992" 
d="M945 398v-398h-163v77q-97 -101 -276 -101q-226 0 -350.5 95t-124.5 286q0 190 123 285.5t344 95.5q107 0 190 -20t137 -56t83.5 -85.5t33.5 -110.5h-270q-25 86 -173 86q-107 0 -161 -51t-54 -144q0 -98 55 -150t167 -52q49 0 86.5 11t57.5 27.5t29.5 31t9.5 25.5h-165
v148h421zM621 -61v-93q0 -24 -1.5 -39t-6.5 -31t-15 -25.5t-26.5 -19t-41 -14t-59 -7.5t-80.5 -3v58q28 0 47.5 3t30 7t16 11t6.5 13t1 16h-101v124h230z" />
    <glyph glyph-name="gcommaaccent" unicode="&#x123;" horiz-adv-x="810" 
d="M280 604v78q0 53 13 87t42 54t70.5 28t104.5 8v-58q-56 0 -78.5 -19t-22.5 -54h101v-124h-230zM542 540h222v-507q0 -46 -7 -78.5t-29.5 -62.5t-61.5 -48t-104.5 -29t-158.5 -11q-88 0 -153.5 11.5t-103.5 29t-61.5 44.5t-32 52.5t-11.5 58.5h246q1 -11 6 -19.5t16.5 -18
t35.5 -14.5t58 -5q57 0 87 11t39 29t9 50v83h-6q-67 -72 -201 -72q-142 0 -223 65.5t-81 190t81 189.5t223 65q138 0 205 -76h6v62zM400 199q48 0 80.5 12.5t47.5 34.5t15 53q0 47 -36 74t-107 27q-69 0 -103.5 -26.5t-34.5 -74.5t34.5 -74t103.5 -26z" />
    <glyph glyph-name="Hcircumflex" unicode="&#x124;" horiz-adv-x="931" 
d="M525 777l-56 71h-6l-56 -71h-229l131 147h314l131 -147h-229zM648 714h230v-714h-230v274h-366v-274h-230v714h230v-260h366v260z" />
    <glyph glyph-name="hcircumflex" unicode="&#x125;" horiz-adv-x="797" 
d="M218 777l-56 71h-6l-56 -71h-230l132 147h314l131 -147h-229zM510 554q110 0 175.5 -53t65.5 -158v-343h-226v274q0 104 -113 104q-26 0 -49.5 -6.5t-44.5 -20.5t-33.5 -42t-12.5 -66v-243h-226v724h226v-251h6q87 81 232 81z" />
    <glyph glyph-name="Hbar" unicode="&#x126;" horiz-adv-x="968" 
d="M970 646v-126h-73v-520h-230v274h-366v-274h-230v520h-73v126h73v68h230v-68h366v68h230v-68h73zM667 454v66h-366v-66h366z" />
    <glyph glyph-name="hbar" unicode="&#x127;" horiz-adv-x="820" 
d="M533 554q110 0 175.5 -53t65.5 -158v-343h-226v274q0 104 -113 104q-26 0 -49 -6.5t-44.5 -20.5t-34 -42t-12.5 -66v-243h-226v573h-73v102h73v49h226v-49h134v-102h-134v-100h6q87 81 232 81z" />
    <glyph glyph-name="Itilde" unicode="&#x128;" horiz-adv-x="335" 
d="M274 759q-37 0 -106 23.5t-86 23.5q-19 0 -25 -8t-7 -28h-148q0 42 14.5 75.5t37.5 53t50 29.5t54 10q37 0 107 -23t87 -23q18 0 24.5 7.5t7.5 28.5h148q0 -42 -14.5 -75.5t-38.5 -53t-51 -30t-54 -10.5zM282 0h-230v714h230v-714z" />
    <glyph glyph-name="itilde" unicode="&#x129;" horiz-adv-x="318" 
d="M266 583q-36 0 -105.5 23t-86.5 23q-18 0 -24.5 -7.5t-7.5 -27.5h-148q0 42 14.5 75t37.5 53t50 30t54 10q37 0 107 -23.5t87 -23.5q13 0 20 4t9.5 11t3.5 21h147q0 -34 -10 -62.5t-25.5 -47.5t-36.5 -32.5t-42.5 -19.5t-43.5 -6zM46 0v540h226v-540h-226z" />
    <glyph glyph-name="Imacron" unicode="&#x12a;" horiz-adv-x="335" 
d="M407 780h-479v122h479v-122zM282 0h-230v714h230v-714z" />
    <glyph glyph-name="imacron" unicode="&#x12b;" horiz-adv-x="318" 
d="M398 612h-479v122h479v-122zM46 0v540h226v-540h-226z" />
    <glyph glyph-name="Ibreve" unicode="&#x12c;" horiz-adv-x="335" 
d="M407 928q-1 -40 -22.5 -72t-56.5 -51.5t-76 -29t-84 -9.5q-60 0 -112 16.5t-89 54.5t-38 91h176q6 -42 62.5 -42t62.5 42h177zM282 0h-230v714h230v-714z" />
    <glyph glyph-name="ibreve" unicode="&#x12d;" horiz-adv-x="318" 
d="M397 750q-1 -53 -38.5 -91t-89.5 -54.5t-111 -16.5t-111 16.5t-89 54.5t-39 91h177q5 -42 62 -42t62 42h177zM46 0v540h226v-540h-226z" />
    <glyph glyph-name="Iogonek" unicode="&#x12e;" horiz-adv-x="335" 
d="M282 0q-50 -16 -81 -43t-31 -51q0 -38 53 -38q23 0 59 8v-108q-39 -9 -103 -9q-100 0 -150 29t-50 83q0 38 35.5 73.5t90.5 55.5h-53v714h230v-714z" />
    <glyph glyph-name="iogonek" unicode="&#x12f;" horiz-adv-x="318" 
d="M44 728h230v-124h-230v124zM46 0v540h226v-540q-51 -16 -81.5 -43t-30.5 -51q0 -38 53 -38q23 0 59 8v-108q-40 -9 -104 -9q-99 0 -148.5 29t-49.5 83q0 38 35 73.5t89 55.5h-48z" />
    <glyph glyph-name="Idotaccent" unicode="&#x130;" horiz-adv-x="335" 
d="M52 778v124h230v-124h-230zM282 0h-230v714h230v-714z" />
    <glyph glyph-name="dotlessi" unicode="&#x131;" horiz-adv-x="318" 
d="M46 0v540h226v-540h-226z" />
    <glyph glyph-name="IJ" unicode="&#x132;" horiz-adv-x="1183" 
d="M282 0h-230v714h230v-714zM1131 714v-400q0 -79 -18.5 -138t-51 -96.5t-83 -60.5t-107 -32t-130.5 -9q-61 0 -110 6t-93.5 21t-76.5 40.5t-56.5 62t-36.5 88.5t-12 118v46h230v-50q0 -80 40.5 -113.5t114.5 -33.5q75 0 117.5 33.5t42.5 113.5v404h230z" />
    <glyph glyph-name="ij" unicode="&#x133;" horiz-adv-x="635" 
d="M44 604v124h230v-124h-230zM361 604v124h230v-124h-230zM46 0v540h226v-540h-226zM322 -19q21 0 31 9t10 35v515h226v-573q0 -96 -47.5 -129.5t-178.5 -33.5q-50 0 -87 4v174q1 0 18 -0.5t28 -0.5z" />
    <glyph glyph-name="Jcircumflex" unicode="&#x134;" horiz-adv-x="848" 
d="M740 777l-56 71h-6l-56 -71h-229l131 147h314l131 -147h-229zM796 714v-400q0 -79 -18.5 -138t-51 -96.5t-83 -60.5t-107 -32t-130 -9t-130 9t-106 32t-81.5 60.5t-50 96.5t-18 138v46h230v-50q0 -80 40.5 -113.5t114.5 -33.5q75 0 117.5 33.5t42.5 113.5v404h230z" />
    <glyph glyph-name="jcircumflex" unicode="&#x135;" horiz-adv-x="318" 
d="M218 600l-56 72h-6l-56 -72h-230l132 148h314l131 -148h-229zM5 -19q20 0 30.5 9t10.5 35v515h226v-573q0 -96 -47.5 -129.5t-178.5 -33.5q-50 0 -87 4v174q1 0 17.5 -0.5t28.5 -0.5z" />
    <glyph glyph-name="Kcommaaccent" unicode="&#x136;" horiz-adv-x="917" 
d="M590 462l330 -462h-279l-218 314l-141 -124v-190h-230v714h230v-286l309 286h282zM577 -61v-93q0 -28 -2 -44.5t-9.5 -34.5t-22.5 -27.5t-40.5 -17.5t-63.5 -11.5t-92 -3.5v58q28 0 47.5 3t30 7t16 11t7 13t1.5 16h-102v124h230z" />
    <glyph glyph-name="kcommaaccent" unicode="&#x137;" horiz-adv-x="751" 
d="M488 328l264 -328h-268l-145 196l-67 -60v-136h-226v724h226v-367l197 183h259zM493 -61v-93q0 -24 -1.5 -39t-6.5 -31t-15 -25.5t-26.5 -19t-41.5 -14t-59 -7.5t-80 -3v58q28 0 47.5 3t30 7t16 11t6.5 13t1 16h-101v124h230z" />
    <glyph glyph-name="kgreenlandic" unicode="&#x138;" horiz-adv-x="751" 
d="M488 328l264 -328h-268l-145 196l-67 -60v-136h-226v540h226v-183l197 183h259z" />
    <glyph glyph-name="Lacute" unicode="&#x139;" horiz-adv-x="798" 
d="M461 926l-191 -149h-193l80 149h304zM771 0h-719v714h230v-534h489v-180z" />
    <glyph glyph-name="lacute" unicode="&#x13a;" horiz-adv-x="318" 
d="M452 926l-191 -149h-193l80 149h304zM46 0v724h226v-724h-226z" />
    <glyph glyph-name="Lcommaaccent" unicode="&#x13b;" horiz-adv-x="798" 
d="M771 0h-719v714h230v-534h489v-180zM527 -61v-93q0 -24 -1.5 -39t-6.5 -31t-15 -25.5t-26.5 -19t-41 -14t-59 -7.5t-80.5 -3v58q28 0 47.5 3t30 7t16 11t6.5 13t1 16h-101v124h230z" />
    <glyph glyph-name="lcommaaccent" unicode="&#x13c;" horiz-adv-x="318" 
d="M46 0v724h226v-724h-226zM274 -61v-93q0 -28 -2.5 -44.5t-10 -34.5t-22.5 -27.5t-40.5 -17.5t-63.5 -11.5t-91 -3.5v58q28 0 47.5 3t30 7t16 11t6.5 13t1 16h-101v124h230z" />
    <glyph glyph-name="Lcaron" unicode="&#x13d;" horiz-adv-x="798" 
d="M646 724v-128q0 -119 -53 -169t-172 -50v70q54 0 77.5 29t23.5 74h-101v174h225zM771 0h-719v714h230v-534h489v-180z" />
    <glyph glyph-name="lcaron" unicode="&#x13e;" horiz-adv-x="515" 
d="M46 0v724h226v-724h-226zM503 724v-87q0 -63 -18.5 -101.5t-59.5 -57t-109 -18.5v67q49 0 68 15.5t19 50.5h-87v131h187z" />
    <glyph glyph-name="Ldot" unicode="&#x13f;" horiz-adv-x="798" 
d="M771 0h-719v714h231v-535h488v-179zM543.5 275q-52.5 0 -89 36t-36.5 88.5t36.5 89t89 36.5t88.5 -36.5t36 -89t-36 -88.5t-88.5 -36z" />
    <glyph glyph-name="ldot" unicode="&#x140;" horiz-adv-x="597" 
d="M46 0v724h226v-724h-226zM445.5 235q-52.5 0 -89 36.5t-36.5 89t36.5 88.5t89.5 36q34 0 62.5 -16.5t45 -45t16.5 -63.5q0 -52 -36 -88.5t-88.5 -36.5z" />
    <glyph glyph-name="Lslash" unicode="&#x141;" horiz-adv-x="803" 
d="M288 180h488v-180h-718v190l-46 -19v167l46 19v357h230v-264l290 117v-167l-290 -117v-103z" />
    <glyph glyph-name="lslash" unicode="&#x142;" horiz-adv-x="403" 
d="M384 544v-144l-70 -29v-371h-226v280l-70 -28v144l70 29v299h226v-208z" />
    <glyph glyph-name="Nacute" unicode="&#x143;" horiz-adv-x="931" 
d="M759 926l-191 -149h-193l81 149h303zM659 714h219v-714h-264l-336 439h-6v-439h-220v714h272l329 -430h6v430z" />
    <glyph glyph-name="nacute" unicode="&#x144;" horiz-adv-x="797" 
d="M682 749l-191 -149h-193l80 149h304zM268 540v-67h6q92 81 236 81q110 0 175.5 -53t65.5 -158v-343h-226v274q0 104 -113 104q-26 0 -49.5 -6.5t-44.5 -20.5t-33.5 -42t-12.5 -66v-243h-226v540h222z" />
    <glyph glyph-name="Ncommaaccent" unicode="&#x145;" horiz-adv-x="931" 
d="M659 714h219v-714h-264l-336 439h-6v-439h-220v714h272l329 -430h6v430zM581 -61v-93q0 -28 -2 -44.5t-10 -34.5t-23 -27.5t-40.5 -17.5t-63.5 -11.5t-91 -3.5v58q28 0 47.5 3t30 7t16 11t6.5 13t1 16h-101v124h230z" />
    <glyph glyph-name="ncommaaccent" unicode="&#x146;" horiz-adv-x="797" 
d="M268 540v-67h6q92 81 236 81q110 0 175.5 -53t65.5 -158v-343h-226v274q0 104 -113 104q-26 0 -49.5 -6.5t-44.5 -20.5t-33.5 -42t-12.5 -66v-243h-226v540h222zM513 -61v-93q0 -24 -1.5 -39t-6.5 -31t-15 -25.5t-26.5 -19t-41 -14t-59 -7.5t-80.5 -3v58q28 0 48 3t30 7
t15.5 11t7 13t1.5 16h-102v124h230z" />
    <glyph glyph-name="Ncaron" unicode="&#x147;" horiz-adv-x="931" 
d="M525 926h229l-131 -148h-314l-131 148h229l56 -72h6zM659 714h219v-714h-264l-336 439h-6v-439h-220v714h272l329 -430h6v430z" />
    <glyph glyph-name="ncaron" unicode="&#x148;" horiz-adv-x="797" 
d="M457 748h230l-132 -148h-314l-131 148h229l56 -72h6zM268 540v-67h6q92 81 236 81q110 0 175.5 -53t65.5 -158v-343h-226v274q0 104 -113 104q-26 0 -49.5 -6.5t-44.5 -20.5t-33.5 -42t-12.5 -66v-243h-226v540h222z" />
    <glyph glyph-name="napostrophe" unicode="&#x149;" horiz-adv-x="1003" 
d="M215 724v-87q0 -63 -18.5 -101.5t-59 -57t-108.5 -18.5v67q49 0 68 15.5t19 50.5h-87v131h186zM474 540v-67h6q92 81 235 81q111 0 176.5 -53t65.5 -158v-343h-226v274q0 104 -113 104q-27 0 -50 -6.5t-44 -20.5t-33.5 -42t-12.5 -66v-243h-226v540h222z" />
    <glyph glyph-name="Eng" unicode="&#x14a;" horiz-adv-x="931" 
d="M659 714h219v-709q0 -101 -69.5 -151.5t-223.5 -50.5q-294 0 -294 197q0 12 1 19h208v-15q0 -22 19.5 -36t60.5 -14q67 0 78 38l-380 452h-6v-444h-220v714h272l329 -391h6v391z" />
    <glyph glyph-name="eng" unicode="&#x14b;" horiz-adv-x="797" 
d="M510 554q110 0 175.5 -53t65.5 -158v-376q0 -96 -47.5 -129.5t-178.5 -33.5q-50 0 -87 4v174q1 0 17.5 -0.5t28.5 -0.5q14 0 22 3t13.5 13t5.5 28v249q0 104 -113 104q-26 0 -49.5 -6.5t-44.5 -20.5t-33.5 -42t-12.5 -66v-243h-226v540h222v-67h6q92 81 236 81z" />
    <glyph glyph-name="Omacron" unicode="&#x14c;" horiz-adv-x="1001" 
d="M740 780h-479v122h479v-122zM500.5 738q222.5 0 346 -95.5t123.5 -285.5t-123.5 -285.5t-346 -95.5t-346 95.5t-123.5 285.5t123.5 285.5t346 95.5zM500.5 162q108.5 0 163 51t54.5 144t-54.5 144t-163 51t-162.5 -51t-54 -144t54 -144t162.5 -51z" />
    <glyph glyph-name="omacron" unicode="&#x14d;" 
d="M645 612h-479v122h479v-122zM405.5 563q189.5 0 284 -76t94.5 -217t-94.5 -216.5t-284 -75.5t-284 75.5t-94.5 216.5t94.5 217t284 76zM406 137q71 0 107 35t36 98t-36 98t-107 35q-49 0 -81.5 -16.5t-47.5 -45.5t-15 -70.5t15 -71t47.5 -46t81.5 -16.5z" />
    <glyph glyph-name="Obreve" unicode="&#x14e;" horiz-adv-x="1001" 
d="M740 928q-1 -40 -22.5 -72t-56.5 -51.5t-76 -29t-85 -9.5q-59 0 -111 16.5t-89 54.5t-38 91h176q6 -42 62.5 -42t62.5 42h177zM500.5 738q222.5 0 346 -95.5t123.5 -285.5t-123.5 -285.5t-346 -95.5t-346 95.5t-123.5 285.5t123.5 285.5t346 95.5zM500.5 162
q108.5 0 163 51t54.5 144t-54.5 144t-163 51t-162.5 -51t-54 -144t54 -144t162.5 -51z" />
    <glyph glyph-name="obreve" unicode="&#x14f;" 
d="M644 750q-1 -53 -38.5 -91t-89.5 -54.5t-111 -16.5t-111 16.5t-89 54.5t-39 91h176q6 -42 62.5 -42t62.5 42h177zM405.5 563q189.5 0 284 -76t94.5 -217t-94.5 -216.5t-284 -75.5t-284 75.5t-94.5 216.5t94.5 217t284 76zM406 137q71 0 107 35t36 98t-36 98t-107 35
q-49 0 -81.5 -16.5t-47.5 -45.5t-15 -70.5t15 -71t47.5 -46t81.5 -16.5z" />
    <glyph glyph-name="Ohungarumlaut" unicode="&#x150;" horiz-adv-x="1001" 
d="M576 925l-130 -148h-181l74 148h237zM866 925l-131 -148h-181l74 148h238zM500.5 738q222.5 0 346 -95.5t123.5 -285.5t-123.5 -285.5t-346 -95.5t-346 95.5t-123.5 285.5t123.5 285.5t346 95.5zM500.5 162q108.5 0 163 51t54.5 144t-54.5 144t-163 51t-162.5 -51
t-54 -144t54 -144t162.5 -51z" />
    <glyph glyph-name="ohungarumlaut" unicode="&#x151;" 
d="M481 749l-130 -149h-181l74 149h237zM771 749l-131 -149h-181l74 149h238zM405.5 563q189.5 0 284 -76t94.5 -217t-94.5 -216.5t-284 -75.5t-284 75.5t-94.5 216.5t94.5 217t284 76zM406 137q71 0 107 35t36 98t-36 98t-107 35q-49 0 -81.5 -16.5t-47.5 -45.5t-15 -70.5
t15 -71t47.5 -46t81.5 -16.5z" />
    <glyph glyph-name="OE" unicode="&#x152;" horiz-adv-x="1426" 
d="M938 170h450v-170h-670v67h-6q-39 -43 -106.5 -67t-154.5 -24q-91 0 -166.5 23.5t-133 69.5t-89 119.5t-31.5 168.5t31.5 168.5t89 119.5t133 69.5t166.5 23.5q87 0 154.5 -24t106.5 -67h6v67h659v-172h-439v-100h419v-158h-419v-114zM500 166q103 0 160.5 49.5
t57.5 141.5t-57.5 141.5t-160 49.5t-159.5 -49.5t-57 -141.5q0 -46 14.5 -82t42.5 -60t68.5 -36.5t90.5 -12.5z" />
    <glyph glyph-name="oe" unicode="&#x153;" horiz-adv-x="1275" 
d="M1248 270q0 -30 -3 -53h-499q7 -51 39 -75.5t93 -24.5q96 0 120 51h242q-11 -190 -362 -190q-154 0 -240 67q-87 -67 -242 -67q-186 0 -277.5 75.5t-91.5 216.5t91.5 217t277.5 76q155 0 242 -68q86 68 241 68q186 0 277.5 -76t91.5 -217zM879 424q-106 0 -128 -78h257
q-23 78 -129 78zM395.5 137q67.5 0 100.5 35t33 98t-33 98t-100.5 35t-100.5 -35t-33 -98t33 -98t100.5 -35z" />
    <glyph glyph-name="Racute" unicode="&#x154;" horiz-adv-x="910" 
d="M744 924l-191 -148h-193l81 148h303zM726 271l172 -271h-262l-137 230h-217v-230h-230v714h546q149 0 215 -58.5t66 -176.5q0 -90 -39.5 -135.5t-113.5 -64.5v-8zM543 393q42 0 61 17t19 52q0 23 -8 38t-26 22.5t-46 7.5h-261v-137h261z" />
    <glyph glyph-name="racute" unicode="&#x155;" horiz-adv-x="580" 
d="M586 749l-190 -149h-194l81 149h303zM46 540h222v-72h6q42 45 101 65.5t142 20.5q23 0 42 -3v-216q-50 11 -96 11q-26 0 -48 -2.5t-44.5 -8t-39.5 -17t-31 -28t-21 -41t-7 -55.5v-194h-226v540z" />
    <glyph glyph-name="Rcommaaccent" unicode="&#x156;" horiz-adv-x="910" 
d="M726 271l172 -271h-262l-137 230h-217v-230h-230v714h546q149 0 215 -58.5t66 -176.5q0 -90 -39.5 -135.5t-113.5 -64.5v-8zM543 393q42 0 61 17t19 52q0 23 -8 38t-26 22.5t-46 7.5h-261v-137h261zM574 -61v-93q0 -28 -2 -44.5t-10 -34.5t-22.5 -27.5t-40 -17.5
t-63.5 -11.5t-92 -3.5v58q28 0 47.5 3t30 7t16 11t7 13t1.5 16h-102v124h230z" />
    <glyph glyph-name="rcommaaccent" unicode="&#x157;" horiz-adv-x="580" 
d="M46 540h222v-72h6q42 45 101 65.5t142 20.5q23 0 42 -3v-216q-50 11 -96 11q-26 0 -48 -2.5t-44.5 -8t-39.5 -17t-31 -28t-21 -41t-7 -55.5v-194h-226v540zM274 -61v-93q0 -28 -2.5 -44.5t-10 -34.5t-22.5 -27.5t-40.5 -17.5t-63.5 -11.5t-91 -3.5v58q28 0 47.5 3t30 7
t16 11t6.5 13t1 16h-101v124h230z" />
    <glyph glyph-name="Rcaron" unicode="&#x158;" horiz-adv-x="910" 
d="M510 924h229l-131 -146h-314l-131 146h229l56 -70h6zM726 271l172 -271h-262l-137 230h-217v-230h-230v714h546q149 0 215 -58.5t66 -176.5q0 -90 -39.5 -135.5t-113.5 -64.5v-8zM543 393q42 0 61 17t19 52q0 23 -8 38t-26 22.5t-46 7.5h-261v-137h261z" />
    <glyph glyph-name="rcaron" unicode="&#x159;" horiz-adv-x="580" 
d="M362 748h229l-131 -148h-314l-131 148h229l56 -72h6zM46 540h222v-72h6q42 45 101 65.5t142 20.5q23 0 42 -3v-216q-50 11 -96 11q-26 0 -48 -2.5t-44.5 -8t-39.5 -17t-31 -28t-21 -41t-7 -55.5v-194h-226v540z" />
    <glyph glyph-name="Sacute" unicode="&#x15a;" horiz-adv-x="895" 
d="M728 926l-192 -149h-192l80 149h304zM580 500q-6 80 -154 80q-130 0 -130 -59q0 -25 20 -37.5t62 -17.5l249 -28q120 -13 180.5 -66t60.5 -154q0 -59 -20 -101.5t-54.5 -69.5t-90.5 -43t-119 -22t-147 -6q-81 0 -141 6.5t-114 24t-88.5 46.5t-55.5 75t-24 110h264
q4 -59 45.5 -79.5t122.5 -20.5q149 0 149 64q0 29 -24 43.5t-72 20.5l-223 28q-60 7 -103.5 21.5t-76 39.5t-48.5 63t-16 89q-1 53 19 93.5t54.5 66t86.5 42t110.5 23t131.5 6.5t131 -6.5t110 -23t87.5 -43t57 -68t23.5 -97.5h-263z" />
    <glyph glyph-name="sacute" unicode="&#x15b;" horiz-adv-x="778" 
d="M654 749l-191 -149h-193l80 149h304zM489 381q-5 51 -121 51q-95 0 -95 -36q0 -16 11.5 -23t44.5 -10l209 -23q112 -12 162.5 -50t50.5 -125q0 -45 -16 -77.5t-45 -53.5t-75.5 -33.5t-101.5 -17.5t-130 -5q-69 0 -120.5 4.5t-99 17.5t-78 34t-49.5 55.5t-21 81.5h249
q3 -34 31 -47t93 -13q33 0 55.5 3t35 9t17.5 13t5 16q0 17 -13 25t-47 12l-191 24q-55 7 -93 18t-68 30t-44 49t-14 72q0 53 25 89t73 55.5t106 28t135 8.5q64 0 115 -5.5t97 -18t77 -33t50 -52t21 -73.5h-241z" />
    <glyph glyph-name="Scircumflex" unicode="&#x15c;" horiz-adv-x="895" 
d="M493 777l-56 71h-6l-56 -71h-229l131 147h314l131 -147h-229zM580 500q-6 80 -154 80q-130 0 -130 -59q0 -25 20 -37.5t62 -17.5l249 -28q120 -13 180.5 -66t60.5 -154q0 -59 -20 -101.5t-54.5 -69.5t-90.5 -43t-119 -22t-147 -6q-81 0 -141 6.5t-114 24t-88.5 46.5
t-55.5 75t-24 110h264q4 -59 45.5 -79.5t122.5 -20.5q149 0 149 64q0 29 -24 43.5t-72 20.5l-223 28q-60 7 -103.5 21.5t-76 39.5t-48.5 63t-16 89q-1 53 19 93.5t54.5 66t86.5 42t110.5 23t131.5 6.5t131 -6.5t110 -23t87.5 -43t57 -68t23.5 -97.5h-263z" />
    <glyph glyph-name="scircumflex" unicode="&#x15d;" horiz-adv-x="778" 
d="M429 600l-56 72h-6l-56 -72h-229l131 148h314l132 -148h-230zM489 381q-5 51 -121 51q-95 0 -95 -36q0 -16 11.5 -23t44.5 -10l209 -23q112 -12 162.5 -50t50.5 -125q0 -45 -16 -77.5t-45 -53.5t-75.5 -33.5t-101.5 -17.5t-130 -5q-69 0 -120.5 4.5t-99 17.5t-78 34
t-49.5 55.5t-21 81.5h249q3 -34 31 -47t93 -13q33 0 55.5 3t35 9t17.5 13t5 16q0 17 -13 25t-47 12l-191 24q-55 7 -93 18t-68 30t-44 49t-14 72q0 53 25 89t73 55.5t106 28t135 8.5q64 0 115 -5.5t97 -18t77 -33t50 -52t21 -73.5h-241z" />
    <glyph glyph-name="Scedilla" unicode="&#x15e;" horiz-adv-x="895" 
d="M868 218q0 -55 -17 -95.5t-47.5 -67.5t-78.5 -43.5t-104 -24.5t-129 -10l-22 -27q10 2 25 2q81 0 118 -22.5t37 -75.5q0 -59 -47.5 -83.5t-158.5 -24.5q-87 0 -151 18v82h6q42 -13 69 -17.5t68 -4.5q58 0 58 29t-58 29q-50 0 -83 -8h-6v49l43 54q-71 2 -125.5 10
t-102 26.5t-78 47.5t-49 73t-21.5 104h264q4 -59 45.5 -79.5t122.5 -20.5q149 0 149 64q0 29 -24 43.5t-72 20.5l-223 28q-60 7 -103.5 21.5t-76 39.5t-48.5 63t-16 89q-1 53 19 93.5t54.5 66t86.5 42t110.5 23t131.5 6.5t131 -6.5t110 -23t87.5 -43t57 -68t23.5 -97.5h-263
q-6 80 -154 80q-130 0 -130 -59q0 -25 20 -37.5t62 -17.5l249 -28q120 -13 180.5 -66t60.5 -154z" />
    <glyph glyph-name="scedilla" unicode="&#x15f;" horiz-adv-x="778" 
d="M751 165q0 -52 -20 -87t-61.5 -56t-96.5 -31t-134 -12l-23 -29q10 2 25 2q81 0 118 -22.5t37 -75.5q0 -59 -47.5 -83.5t-159.5 -24.5q-86 0 -150 18v82h6q42 -13 69 -17.5t67 -4.5q59 0 59 29t-59 29q-50 0 -82 -8h-6v49l45 56q-60 1 -106 7t-87.5 19.5t-68 35t-43 54
t-18.5 76.5h249q3 -34 31 -47t93 -13q33 0 55.5 3t35 9t17.5 13t5 16q0 17 -13 25t-47 12l-191 24q-55 7 -93 18t-68 30t-44 49t-14 72q0 53 25 89t73 55.5t106 28t135 8.5q64 0 115 -5.5t97 -18t77 -33t50 -52t21 -73.5h-241q-5 51 -121 51q-95 0 -95 -36q0 -16 11.5 -23
t44.5 -10l209 -23q112 -12 162.5 -50t50.5 -125z" />
    <glyph glyph-name="Scaron" unicode="&#x160;" horiz-adv-x="895" 
d="M493 926h229l-131 -148h-314l-131 148h229l56 -72h6zM580 500q-6 80 -154 80q-130 0 -130 -59q0 -25 20 -37.5t62 -17.5l249 -28q120 -13 180.5 -66t60.5 -154q0 -59 -20 -101.5t-54.5 -69.5t-90.5 -43t-119 -22t-147 -6q-81 0 -141 6.5t-114 24t-88.5 46.5t-55.5 75
t-24 110h264q4 -59 45.5 -79.5t122.5 -20.5q149 0 149 64q0 29 -24 43.5t-72 20.5l-223 28q-60 7 -103.5 21.5t-76 39.5t-48.5 63t-16 89q-1 53 19 93.5t54.5 66t86.5 42t110.5 23t131.5 6.5t131 -6.5t110 -23t87.5 -43t57 -68t23.5 -97.5h-263z" />
    <glyph glyph-name="scaron" unicode="&#x161;" horiz-adv-x="778" 
d="M429 748h230l-132 -148h-314l-131 148h229l56 -72h6zM489 381q-5 51 -121 51q-95 0 -95 -36q0 -16 11.5 -23t44.5 -10l209 -23q112 -12 162.5 -50t50.5 -125q0 -45 -16 -77.5t-45 -53.5t-75.5 -33.5t-101.5 -17.5t-130 -5q-69 0 -120.5 4.5t-99 17.5t-78 34t-49.5 55.5
t-21 81.5h249q3 -34 31 -47t93 -13q33 0 55.5 3t35 9t17.5 13t5 16q0 17 -13 25t-47 12l-191 24q-55 7 -93 18t-68 30t-44 49t-14 72q0 53 25 89t73 55.5t106 28t135 8.5q64 0 115 -5.5t97 -18t77 -33t50 -52t21 -73.5h-241z" />
    <glyph glyph-name="uni0162" unicode="&#x162;" 
d="M521 0h-55l-40 -50q9 2 24 2q81 0 118 -22.5t37 -75.5q0 -59 -47.5 -83.5t-158.5 -24.5q-86 0 -151 18v82h6q15 -5 26.5 -8t22.5 -5.5t20.5 -4t20.5 -2.5t22 -1.5t25 -0.5q59 0 59 29t-59 29q-50 0 -83 -8h-6v49l63 77h-74v532h-271v182h771v-182h-270v-532z" />
    <glyph glyph-name="uni0163" unicode="&#x163;" horiz-adv-x="491" 
d="M329 -48q81 0 118 -22.5t37 -75.5q0 -59 -47.5 -83.5t-159.5 -24.5q-86 0 -150 18v82h6q42 -13 69 -17.5t67 -4.5q59 0 59 29t-59 29q-50 0 -82 -8h-6v49l59 73q-54 8 -86 28.5t-45.5 54.5t-13.5 88v243h-89v130h89v146h226v-146h139v-130h-139v-200q0 -24 16 -33t50 -9
q46 0 73 2v-170q-60 -8 -123 -9l-33 -41q10 2 25 2z" />
    <glyph glyph-name="Tcaron" unicode="&#x164;" 
d="M465 926h229l-131 -148h-314l-132 148h230l56 -72h6zM791 714v-182h-270v-532h-230v532h-271v182h771z" />
    <glyph glyph-name="tcaron" unicode="&#x165;" horiz-adv-x="570" 
d="M557 851v-87q0 -94 -43 -135.5t-144 -41.5v68q49 0 68 15t19 51h-87v130h187zM387 168q46 0 73 2v-170q-76 -9 -132 -9q-133 0 -183 38.5t-50 137.5v243h-89v130h89v146h226v-146h139v-130h-139v-200q0 -24 16 -33t50 -9z" />
    <glyph glyph-name="Tbar" unicode="&#x166;" 
d="M791 532h-270v-152h139v-151h-139v-229h-230v229h-140v151h140v152h-271v182h771v-182z" />
    <glyph glyph-name="tbar" unicode="&#x167;" horiz-adv-x="491" 
d="M460 410h-139v-54h139v-99h-139v-47q0 -24 16 -33t50 -9q46 0 73 2v-170q-76 -9 -132 -9q-133 0 -183 38.5t-50 137.5v90h-89v99h89v54h-89v130h89v146h226v-146h139v-130z" />
    <glyph glyph-name="Utilde" unicode="&#x168;" horiz-adv-x="926" 
d="M569 759q-36 0 -105.5 23.5t-85.5 23.5q-19 0 -25.5 -8t-7.5 -28h-147q0 42 14 75.5t37.5 53t50 29.5t54.5 10q37 0 107 -23t86 -23q19 0 25.5 7.5t7.5 28.5h147q0 -42 -14.5 -75.5t-38 -53t-50.5 -30t-55 -10.5zM643 714h230v-404q0 -65 -12.5 -116t-38.5 -87.5
t-60.5 -61.5t-82 -40t-99.5 -21t-117 -6q-78 0 -138.5 9t-113 32t-86.5 60t-53.5 95.5t-19.5 135.5v404h230v-404q0 -83 46 -115.5t135 -32.5t134.5 32.5t45.5 115.5v404z" />
    <glyph glyph-name="utilde" unicode="&#x169;" horiz-adv-x="797" 
d="M506 583q-37 0 -106 23t-86 23q-13 0 -20 -4t-9.5 -11t-3.5 -20h-147q0 42 14.5 75t37.5 53t50 30t54 10q29 0 68.5 -11.5t74.5 -23.5t51 -12q18 0 24.5 8t7.5 28h148q0 -42 -15 -75.5t-38.5 -53t-50.5 -29.5t-54 -10zM529 0v68h-6q-93 -82 -236 -82q-110 0 -175.5 53
t-65.5 158v343h226v-274q0 -104 113 -104q21 0 39.5 3.5t37.5 13.5t32.5 24.5t22 38.5t8.5 55v243h226v-540h-222z" />
    <glyph glyph-name="Umacron" unicode="&#x16a;" horiz-adv-x="926" 
d="M702 780h-479v122h479v-122zM643 714h230v-404q0 -65 -12.5 -116t-38.5 -87.5t-60.5 -61.5t-82 -40t-99.5 -21t-117 -6q-78 0 -138.5 9t-113 32t-86.5 60t-53.5 95.5t-19.5 135.5v404h230v-404q0 -83 46 -115.5t135 -32.5t134.5 32.5t45.5 115.5v404z" />
    <glyph glyph-name="umacron" unicode="&#x16b;" horiz-adv-x="797" 
d="M638 612h-479v122h479v-122zM529 0v68h-6q-93 -82 -236 -82q-110 0 -175.5 53t-65.5 158v343h226v-274q0 -104 113 -104q21 0 39.5 3.5t37.5 13.5t32.5 24.5t22 38.5t8.5 55v243h226v-540h-222z" />
    <glyph glyph-name="Ubreve" unicode="&#x16c;" horiz-adv-x="926" 
d="M702 928q-1 -40 -22.5 -72t-56.5 -51.5t-76 -29t-84 -9.5q-59 0 -111 16.5t-89 54.5t-39 91h177q5 -42 62 -42t62 42h177zM643 714h230v-404q0 -65 -12.5 -116t-38.5 -87.5t-60.5 -61.5t-82 -40t-99.5 -21t-117 -6q-78 0 -138.5 9t-113 32t-86.5 60t-53.5 95.5
t-19.5 135.5v404h230v-404q0 -83 46 -115.5t135 -32.5t134.5 32.5t45.5 115.5v404z" />
    <glyph glyph-name="ubreve" unicode="&#x16d;" horiz-adv-x="797" 
d="M637 750q-2 -53 -39 -91t-89 -54.5t-111.5 -16.5t-111.5 16.5t-89 54.5t-38 91h176q6 -42 62.5 -42t62.5 42h177zM529 0v68h-6q-93 -82 -236 -82q-110 0 -175.5 53t-65.5 158v343h226v-274q0 -104 113 -104q21 0 39.5 3.5t37.5 13.5t32.5 24.5t22 38.5t8.5 55v243h226
v-540h-222z" />
    <glyph glyph-name="Uring" unicode="&#x16e;" horiz-adv-x="926" 
d="M464 742q-37 0 -68.5 9.5t-55.5 27t-37.5 43.5t-13.5 57q0 62 50 99.5t125 37.5t124.5 -37.5t49.5 -99.5t-49.5 -99.5t-124.5 -37.5zM464 832q24 0 40 13t16 34.5t-16 34t-40 12.5t-40.5 -12.5t-16.5 -34t16.5 -34.5t40.5 -13zM643 714h230v-404q0 -65 -12.5 -116
t-38.5 -87.5t-60.5 -61.5t-82 -40t-99.5 -21t-117 -6q-78 0 -138.5 9t-113 32t-86.5 60t-53.5 95.5t-19.5 135.5v404h230v-404q0 -83 46 -115.5t135 -32.5t134.5 32.5t45.5 115.5v404z" />
    <glyph glyph-name="uring" unicode="&#x16f;" horiz-adv-x="797" 
d="M398.5 588q-74.5 0 -124.5 37t-50 99.5t50 100t124 37.5q49 0 88.5 -16t63 -48t23.5 -73q0 -63 -50 -100t-124.5 -37zM398.5 678q23.5 0 40 12.5t16.5 34.5q0 14 -8 25t-20.5 16.5t-28.5 5.5q-23 0 -39.5 -13t-16.5 -34.5t16.5 -34t40 -12.5zM529 0v68h-6
q-93 -82 -236 -82q-110 0 -175.5 53t-65.5 158v343h226v-274q0 -104 113 -104q21 0 39.5 3.5t37.5 13.5t32.5 24.5t22 38.5t8.5 55v243h226v-540h-222z" />
    <glyph glyph-name="Uhungarumlaut" unicode="&#x170;" horiz-adv-x="926" 
d="M538 925l-130 -148h-181l74 148h237zM828 925l-130 -148h-181l74 148h237zM643 714h230v-404q0 -65 -12.5 -116t-38.5 -87.5t-60.5 -61.5t-82 -40t-99.5 -21t-117 -6q-78 0 -138.5 9t-113 32t-86.5 60t-53.5 95.5t-19.5 135.5v404h230v-404q0 -83 46 -115.5t135 -32.5
t134.5 32.5t45.5 115.5v404z" />
    <glyph glyph-name="uhungarumlaut" unicode="&#x171;" horiz-adv-x="797" 
d="M474 749l-130 -149h-181l74 149h237zM764 749l-131 -149h-181l74 149h238zM529 0v68h-6q-93 -82 -236 -82q-110 0 -175.5 53t-65.5 158v343h226v-274q0 -104 113 -104q21 0 39.5 3.5t37.5 13.5t32.5 24.5t22 38.5t8.5 55v243h226v-540h-222z" />
    <glyph glyph-name="Uogonek" unicode="&#x172;" horiz-adv-x="926" 
d="M643 714h230v-404q0 -134 -54 -208t-158 -103q-51 -16 -80.5 -42.5t-29.5 -50.5q0 -38 52 -38q24 0 60 8v-108q-40 -9 -104 -9q-99 0 -149 29t-50 83q0 29 21 57t57 50q-93 1 -160.5 18t-120 54t-79 102t-26.5 158v404h230v-404q0 -83 46 -115.5t135 -32.5t134.5 32.5
t45.5 115.5v404z" />
    <glyph glyph-name="uogonek" unicode="&#x173;" horiz-adv-x="797" 
d="M751 0q-51 -16 -81.5 -43t-30.5 -51q0 -38 53 -38q23 0 59 8v-108q-40 -9 -104 -9q-99 0 -148.5 29t-49.5 83q0 38 35 73.5t90 55.5h-45v68h-6q-93 -82 -236 -82q-110 0 -175.5 53t-65.5 158v343h226v-274q0 -104 113 -104q21 0 39.5 3.5t37.5 13.5t32.5 24.5t22 38.5
t8.5 55v243h226v-540z" />
    <glyph glyph-name="Wcircumflex" unicode="&#x174;" horiz-adv-x="1193" 
d="M656 777l-56 71h-6l-56 -71h-229l131 147h314l131 -147h-229zM988 0h-283l-105 438h-6l-105 -438h-288l-206 714h254l107 -445h6l107 445h255l108 -445h6l107 445h252z" />
    <glyph glyph-name="wcircumflex" unicode="&#x175;" horiz-adv-x="1152" 
d="M636 600l-56 72h-6l-56 -72h-229l131 148h314l132 -148h-230zM1149 540l-220 -540h-247l-100 308h-6l-100 -308h-249l-223 540h251l104 -305h6l99 305h227l104 -304h6l98 304h250z" />
    <glyph glyph-name="Ycircumflex" unicode="&#x176;" horiz-adv-x="889" 
d="M504 777l-56 71h-6l-56 -71h-230l132 147h314l131 -147h-229zM899 714l-339 -476v-238h-231v238l-339 476h273l182 -280l181 280h273z" />
    <glyph glyph-name="ycircumflex" unicode="&#x177;" horiz-adv-x="784" 
d="M451 600l-56 72h-6l-56 -72h-229l131 148h314l131 -148h-229zM784 540l-276 -549q-21 -42 -38 -69.5t-37.5 -49.5t-41 -34.5t-49.5 -20.5t-61 -10.5t-78 -2.5h-116v179h85q41 0 57 6t25 24l8 17l-262 510h256l133 -313h6l133 313h256z" />
    <glyph glyph-name="Ydieresis" unicode="&#x178;" horiz-adv-x="889" 
d="M193 778v124h208v-124h-208zM489 778v124h207v-124h-207zM899 714l-339 -476v-238h-231v238l-339 476h273l182 -280l181 280h273z" />
    <glyph glyph-name="Zacute" unicode="&#x179;" horiz-adv-x="835" 
d="M719 926l-191 -149h-193l80 149h304zM798 532l-401 -342h401v-190h-768v182l400 342h-377v190h745v-182z" />
    <glyph glyph-name="zacute" unicode="&#x17a;" horiz-adv-x="690" 
d="M634 749l-191 -149h-193l80 149h304zM653 0h-627v163l297 221h-276v156h606v-161l-298 -222h298v-157z" />
    <glyph glyph-name="Zdotaccent" unicode="&#x17b;" horiz-adv-x="835" 
d="M311 778v124h230v-124h-230zM798 532l-401 -342h401v-190h-768v182l400 342h-377v190h745v-182z" />
    <glyph glyph-name="zdotaccent" unicode="&#x17c;" horiz-adv-x="690" 
d="M235 604v124h230v-124h-230zM653 0h-627v163l297 221h-276v156h606v-161l-298 -222h298v-157z" />
    <glyph glyph-name="Zcaron" unicode="&#x17d;" horiz-adv-x="835" 
d="M485 926h229l-131 -148h-314l-132 148h230l56 -72h6zM798 532l-401 -342h401v-190h-768v182l400 342h-377v190h745v-182z" />
    <glyph glyph-name="zcaron" unicode="&#x17e;" horiz-adv-x="690" 
d="M409 748h230l-132 -148h-314l-131 148h229l56 -72h6zM653 0h-627v163l297 221h-276v156h606v-161l-298 -222h298v-157z" />
    <glyph glyph-name="florin" unicode="&#x192;" horiz-adv-x="617" 
d="M554 605q-20 0 -32.5 -1.5t-26.5 -6t-23 -16.5t-12 -30l-19 -98h122v-140h-149l-32 -160q-7 -37 -20 -65t-33 -47.5t-44 -32t-56.5 -19t-66 -9t-78.5 -2.5q-29 0 -74 3v148q40 -3 54 -3q15 0 25.5 0.5t23 3.5t20.5 8.5t15 16t10 25.5l26 133h-99v140h126l24 125
q9 44 27 76t42.5 51t61 30t75 14.5t92.5 3.5q30 0 75 -3v-148q-41 3 -54 3z" />
    <glyph glyph-name="Oslashacute" unicode="&#x1fe;" horiz-adv-x="1001" 
d="M850 926l-228 -149h-229l95 149h362zM875 618q95 -96 95 -261q0 -190 -123.5 -285.5t-345.5 -95.5q-181 0 -295 62l-91 -78l-79 58l90 78q-95 96 -95 261q0 190 123.5 285.5t346.5 95.5q180 0 294 -62l91 78l79 -58zM284 357q0 -61 23 -104l317 274q-50 25 -123 25
q-109 0 -163 -51t-54 -144zM501 162q108 0 162.5 51t54.5 144q0 61 -24 104l-317 -274q50 -25 124 -25z" />
    <glyph glyph-name="oslashacute" unicode="&#x1ff;" 
d="M689 749l-191 -149h-193l80 149h304zM710 469q74 -73 74 -199q0 -141 -94.5 -216.5t-283.5 -75.5q-152 0 -244 49l-60 -49l-63 43l62 50q-74 73 -74 199q0 141 94.5 217t284.5 76q151 0 243 -50l60 49l63 -42zM262 270q0 -34 11 -61l217 176q-34 18 -84 18
q-49 0 -81.5 -16.5t-47.5 -45.5t-15 -71zM406 137q71 0 107 35t36 98q0 35 -11 61l-217 -175q34 -19 85 -19z" />
    <glyph glyph-name="Scommaaccent" unicode="&#x218;" horiz-adv-x="895" 
d="M580 500q-6 80 -154 80q-130 0 -130 -59q0 -25 20 -37.5t62 -17.5l249 -28q120 -13 180.5 -66t60.5 -154q0 -59 -20 -101.5t-54.5 -69.5t-90.5 -43t-119 -22t-147 -6q-81 0 -141 6.5t-114 24t-88.5 46.5t-55.5 75t-24 110h264q4 -59 45.5 -79.5t122.5 -20.5q149 0 149 64
q0 29 -24 43.5t-72 20.5l-223 28q-60 7 -103.5 21.5t-76 39.5t-48.5 63t-16 89q-1 53 19 93.5t54.5 66t86.5 42t110.5 23t131.5 6.5t131 -6.5t110 -23t87.5 -43t57 -68t23.5 -97.5h-263zM552 -61v-93q0 -28 -2.5 -44.5t-10 -34.5t-22.5 -27.5t-40.5 -17.5t-63.5 -11.5
t-91 -3.5v58q28 0 47.5 3t30 7t16 11t6.5 13t1 16h-101v124h230z" />
    <glyph glyph-name="scommaaccent" unicode="&#x219;" horiz-adv-x="778" 
d="M489 381q-5 51 -121 51q-95 0 -95 -36q0 -16 11.5 -23t44.5 -10l209 -23q112 -12 162.5 -50t50.5 -125q0 -45 -16 -77.5t-45 -53.5t-75.5 -33.5t-101.5 -17.5t-130 -5q-69 0 -120.5 4.5t-99 17.5t-78 34t-49.5 55.5t-21 81.5h249q3 -34 31 -47t93 -13q33 0 55.5 3t35 9
t17.5 13t5 16q0 17 -13 25t-47 12l-191 24q-55 7 -93 18t-68 30t-44 49t-14 72q0 53 25 89t73 55.5t106 28t135 8.5q64 0 115 -5.5t97 -18t77 -33t50 -52t21 -73.5h-241zM498 -61v-93q0 -28 -2 -44.5t-10 -34.5t-23 -27.5t-40.5 -17.5t-63 -11.5t-91.5 -3.5v58q28 0 47.5 3
t30 7t16 11t6.5 13t1 16h-101v124h230z" />
    <glyph glyph-name="uni021A" unicode="&#x21a;" 
d="M791 714v-182h-270v-532h-230v532h-271v182h771zM521 -61v-93q0 -28 -2.5 -44.5t-10 -34.5t-22.5 -27.5t-40.5 -17.5t-63.5 -11.5t-91 -3.5v58q28 0 47.5 3t30 7t16 11t6.5 13t1 16h-101v124h230z" />
    <glyph glyph-name="uni021B" unicode="&#x21b;" horiz-adv-x="491" 
d="M387 168q46 0 73 2v-170q-76 -9 -132 -9q-133 0 -183 38.5t-50 137.5v243h-89v130h89v146h226v-146h139v-130h-139v-200q0 -24 16 -33t50 -9zM393 -61v-93q0 -24 -1.5 -39t-6.5 -31t-15 -25.5t-26.5 -19t-41.5 -14t-59 -7.5t-80 -3v58q28 0 47.5 3t30 7t16 11t6.5 13
t1 16h-101v124h230z" />
    <glyph glyph-name="uni0237" unicode="&#x237;" horiz-adv-x="318" 
d="M5 -19q20 0 30.5 9t10.5 35v515h226v-573q0 -96 -47.5 -129.5t-178.5 -33.5q-50 0 -87 4v174q1 0 17.5 -0.5t28.5 -0.5z" />
    <glyph glyph-name="uni02BC" unicode="&#x2bc;" horiz-adv-x="330" 
d="M277 724v-128q0 -119 -52.5 -169t-172.5 -50v70q55 0 78.5 29t23.5 74h-102v174h225z" />
    <glyph glyph-name="circumflex" unicode="&#x2c6;" horiz-adv-x="682" 
d="M400 600l-56 72h-6l-56 -72h-230l132 148h314l131 -148h-229z" />
    <glyph glyph-name="caron" unicode="&#x2c7;" horiz-adv-x="682" 
d="M400 748h229l-131 -148h-314l-132 148h230l56 -72h6z" />
    <glyph glyph-name="breve" unicode="&#x2d8;" horiz-adv-x="583" 
d="M531 750q-2 -53 -39 -91t-89.5 -54.5t-111.5 -16.5t-111 16.5t-89 54.5t-39 91h177q5 -42 62 -42t62 42h178z" />
    <glyph glyph-name="dotaccent" unicode="&#x2d9;" horiz-adv-x="335" 
d="M52 604v124h230v-124h-230z" />
    <glyph glyph-name="ring" unicode="&#x2da;" horiz-adv-x="454" 
d="M227 588q-75 0 -125 37t-50 99.5t50 100t125 37.5q36 0 68 -9.5t55.5 -27t37.5 -43.5t14 -57q0 -63 -50 -100t-125 -37zM227 678q24 0 40.5 12.5t16.5 34.5q0 14 -8 25t-20.5 16.5t-28.5 5.5q-24 0 -40 -13t-16 -34.5t16 -34t40 -12.5z" />
    <glyph glyph-name="ogonek" unicode="&#x2db;" horiz-adv-x="407" 
d="M295 -132q23 0 59 8v-108q-39 -9 -103 -9q-67 0 -111.5 13.5t-66 38t-21.5 60.5q0 34 28 66t73.5 53.5t96.5 26.5l104 -17q-25 -8 -46.5 -19.5t-35.5 -24t-22 -25.5t-8 -25q0 -38 53 -38z" />
    <glyph glyph-name="tilde" unicode="&#x2dc;" horiz-adv-x="635" 
d="M424 583q-36 0 -105.5 23t-86.5 23q-12 0 -19 -4t-9.5 -11t-3.5 -20h-148q0 42 14.5 75t38 53t50 30t53.5 10q38 0 107.5 -23.5t86.5 -23.5q19 0 25 8t8 28h147q0 -42 -14.5 -75.5t-38 -53t-50.5 -29.5t-55 -10z" />
    <glyph glyph-name="hungarumlaut" unicode="&#x2dd;" horiz-adv-x="706" 
d="M364 749l-131 -149h-181l74 149h238zM653 749l-130 -149h-181l74 149h237z" />
    <glyph glyph-name="uni0326" unicode="&#x326;" horiz-adv-x="0" 
d="M-52 -61v-93q0 -28 -2.5 -44.5t-10 -34.5t-22.5 -27.5t-40.5 -17.5t-63.5 -11.5t-91 -3.5v58q28 0 47.5 3t29.5 7t16 11t7 13t1 16h-101v124h230z" />
    <glyph glyph-name="Wgrave" unicode="&#x1e80;" horiz-adv-x="1193" 
d="M313 926h303l81 -149h-193zM988 0h-283l-105 438h-6l-105 -438h-288l-206 714h254l107 -445h6l107 445h255l108 -445h6l107 445h252z" />
    <glyph glyph-name="wgrave" unicode="&#x1e81;" horiz-adv-x="1152" 
d="M294 749h303l81 -149h-193zM1149 540l-220 -540h-247l-100 308h-6l-100 -308h-249l-223 540h251l104 -305h6l99 305h227l104 -304h6l98 304h250z" />
    <glyph glyph-name="Wacute" unicode="&#x1e82;" horiz-adv-x="1193" 
d="M891 926l-191 -149h-193l80 149h304zM988 0h-283l-105 438h-6l-105 -438h-288l-206 714h254l107 -445h6l107 445h255l108 -445h6l107 445h252z" />
    <glyph glyph-name="wacute" unicode="&#x1e83;" horiz-adv-x="1152" 
d="M861 749l-191 -149h-193l80 149h304zM1149 540l-220 -540h-247l-100 308h-6l-100 -308h-249l-223 540h251l104 -305h6l99 305h227l104 -304h6l98 304h250z" />
    <glyph glyph-name="Wdieresis" unicode="&#x1e84;" horiz-adv-x="1193" 
d="M346 778v124h207v-124h-207zM641 778v124h208v-124h-208zM988 0h-283l-105 438h-6l-105 -438h-288l-206 714h254l107 -445h6l107 445h255l108 -445h6l107 445h252z" />
    <glyph glyph-name="wdieresis" unicode="&#x1e85;" horiz-adv-x="1152" 
d="M326 604v124h207v-124h-207zM622 604v124h207v-124h-207zM1149 540l-220 -540h-247l-100 308h-6l-100 -308h-249l-223 540h251l104 -305h6l99 305h227l104 -304h6l98 304h250z" />
    <glyph glyph-name="Ygrave" unicode="&#x1ef2;" horiz-adv-x="889" 
d="M160 926h304l80 -149h-193zM899 714l-339 -476v-238h-231v238l-339 476h273l182 -280l181 280h273z" />
    <glyph glyph-name="ygrave" unicode="&#x1ef3;" horiz-adv-x="784" 
d="M108 749h304l80 -149h-193zM784 540l-276 -549q-21 -42 -38 -69.5t-37.5 -49.5t-41 -34.5t-49.5 -20.5t-61 -10.5t-78 -2.5h-116v179h85q41 0 57 6t25 24l8 17l-262 510h256l133 -313h6l133 313h256z" />
    <glyph glyph-name="uni2007" unicode="&#x2007;" horiz-adv-x="303" 
 />
    <glyph glyph-name="uni2008" unicode="&#x2008;" horiz-adv-x="264" 
 />
    <glyph glyph-name="uni200B" unicode="&#x200b;" horiz-adv-x="0" 
 />
    <glyph glyph-name="endash" unicode="&#x2013;" horiz-adv-x="707" 
d="M677 220h-648v140h648v-140z" />
    <glyph glyph-name="emdash" unicode="&#x2014;" horiz-adv-x="941" 
d="M914 220h-886v140h886v-140z" />
    <glyph glyph-name="quoteleft" unicode="&#x2018;" horiz-adv-x="293" 
d="M34 330v144q0 129 54.5 184.5t170.5 55.5v-78q-45 0 -67 -32t-22 -80h89v-194h-225z" />
    <glyph glyph-name="quoteright" unicode="&#x2019;" horiz-adv-x="293" 
d="M259 714v-144q0 -129 -54.5 -184.5t-170.5 -55.5v77q45 0 67.5 32.5t22.5 80.5h-90v194h225z" />
    <glyph glyph-name="quotesinglbase" unicode="&#x201a;" horiz-adv-x="293" 
d="M259 194v-144q0 -87 -25.5 -140.5t-74 -76.5t-125.5 -23v77q45 0 67.5 32.5t22.5 80.5h-90v194h225z" />
    <glyph glyph-name="quotedblleft" unicode="&#x201c;" horiz-adv-x="608" 
d="M34 330v144q0 129 54.5 184.5t170.5 55.5v-78q-45 0 -67 -32t-22 -80h89v-194h-225zM349 330v144q0 129 54.5 184.5t170.5 55.5v-78q-45 0 -67.5 -32t-22.5 -80h90v-194h-225z" />
    <glyph glyph-name="quotedblright" unicode="&#x201d;" horiz-adv-x="608" 
d="M259 714v-144q0 -129 -54.5 -184.5t-170.5 -55.5v77q45 0 67.5 32.5t22.5 80.5h-90v194h225zM574 714v-144q0 -129 -54.5 -184.5t-170.5 -55.5v77q45 0 67 32.5t22 80.5h-89v194h225z" />
    <glyph glyph-name="quotedblbase" unicode="&#x201e;" horiz-adv-x="608" 
d="M259 194v-144q0 -87 -25.5 -140.5t-74 -76.5t-125.5 -23v77q45 0 67.5 32.5t22.5 80.5h-90v194h225zM574 194v-144q0 -87 -25.5 -140.5t-74 -76.5t-125.5 -23v77q45 0 67 32.5t22 80.5h-89v194h225z" />
    <glyph glyph-name="dagger" unicode="&#x2020;" horiz-adv-x="711" 
d="M684 504v-176h-221v-507h-214v507h-221v176h221v210h214v-210h221z" />
    <glyph glyph-name="daggerdbl" unicode="&#x2021;" horiz-adv-x="711" 
d="M684 341h-221v-147h221v-163h-221v-210h-214v210h-221v163h221v147h-221v163h221v210h214v-210h221v-163z" />
    <glyph glyph-name="bullet" unicode="&#x2022;" horiz-adv-x="442" 
d="M221 167q-79 0 -134.5 55.5t-55.5 134.5t55.5 134.5t134.5 55.5t134.5 -55.5t55.5 -134.5t-55.5 -134.5t-134.5 -55.5z" />
    <glyph glyph-name="ellipsis" unicode="&#x2026;" horiz-adv-x="1055" 
d="M52 0v210h247v-210h-247zM404 0v210h247v-210h-247zM756 0v210h247v-210h-247z" />
    <glyph glyph-name="perthousand" unicode="&#x2030;" horiz-adv-x="1669" 
d="M258.5 714q118.5 0 174.5 -49.5t56 -155.5t-56 -155.5t-174.5 -49.5t-174.5 49.5t-56 155.5t56 155.5t174.5 49.5zM743 700h128l-456 -700h-128zM259 413q23 0 38.5 8t25.5 30t10 58t-10 58t-25.5 30t-38.5 8q-36 0 -55.5 -21.5t-19.5 -74.5t19.5 -74.5t55.5 -21.5z
M899.5 396q118.5 0 174.5 -49.5t56 -155.5t-56 -155.5t-174.5 -49.5t-174.5 49.5t-56 155.5t56 155.5t174.5 49.5zM1410 396q119 0 175 -49.5t56 -155.5q0 -71 -25 -116.5t-75.5 -67t-130.5 -21.5q-118 0 -174 49.5t-56 155.5q0 71 25 116.5t75.5 67t129.5 21.5zM899 95
q36 0 55.5 21.5t19.5 74.5t-19.5 74.5t-55.5 21.5t-55 -21.5t-19 -74.5t19 -74.5t55 -21.5zM1410 95q36 0 55.5 21.5t19.5 74.5q0 36 -10 58t-25.5 30t-39.5 8q-36 0 -55 -21.5t-19 -74.5t19 -74.5t55 -21.5z" />
    <glyph glyph-name="guilsinglleft" unicode="&#x2039;" horiz-adv-x="283" 
d="M39 385l206 141v-176l-114 -75v-5l114 -75v-177l-206 141v226z" />
    <glyph glyph-name="guilsinglright" unicode="&#x203a;" horiz-adv-x="275" 
d="M244 385v-226l-206 -141v177l114 75v5l-114 75v176z" />
    <glyph glyph-name="uni2070" unicode="&#x2070;" horiz-adv-x="590" 
d="M294 727q265 0 265 -222q0 -220 -265 -220q-263 0 -263 220q0 222 263 222zM294 390q31 0 52.5 8t35 23t19.5 35.5t6 48.5q0 57 -26.5 86.5t-86 29.5t-86 -29.5t-26.5 -86.5t26.5 -86t85.5 -29z" />
    <glyph glyph-name="franc" unicode="&#x20a3;" horiz-adv-x="988" 
d="M60 0v700h707v-176h-479v-90h487q95 0 141 -42.5t46 -119.5q0 -33 -10.5 -57.5t-27 -38t-41.5 -22.5v-6l89 -148h-206l-67 112h-111v-112h-192v271h-108v-271h-228zM588 295v-69h121q40 0 40 33q0 17 -10.5 26.5t-29.5 9.5h-121z" />
    <glyph glyph-name="Euro" unicode="&#x20ac;" horiz-adv-x="850" 
d="M380 250q47 -82 173 -82q119 0 215 57v-202q-75 -34 -215 -34q-176 0 -285.5 65t-140.5 196h-105l55 74h41q-1 9 -1 26q0 18 1 27h-96l52 73h53q31 131 140.5 196t284.5 65q80 0 155.5 -20t115.5 -51l-115 -150q-64 42 -156 42q-125 0 -172 -82h300l-54 -73h-269
q-1 -9 -1 -27t1 -26h230l-53 -74h-154z" />
    <glyph glyph-name="uni2116" unicode="&#x2116;" horiz-adv-x="1500" 
d="M1212 723q119 0 177 -45.5t58 -129.5q0 -175 -235 -175t-235 175q0 84 58 129.5t177 45.5zM659 714h219v-714h-264l-336 439h-6v-439h-220v714h272l329 -430h6v430zM1211.5 472q82.5 0 82.5 76q0 75 -82 75q-42 0 -62.5 -20t-20.5 -55q0 -76 82.5 -76zM977 114h470v-114
h-470v114z" />
    <glyph glyph-name="trademark" unicode="&#x2122;" horiz-adv-x="1015" 
d="M425 714v-98h-141v-260h-115v260h-141v98h397zM987 714v-358h-116v244h-6l-88 -244h-92l-91 247h-6v-247h-109v358h182l67 -206h6l66 206h187z" />
    <glyph glyph-name="uni2126" unicode="&#x2126;" horiz-adv-x="1031" 
d="M36 0v133h219v6q-45 7 -82 25.5t-66 49t-45 77.5t-16 105q0 164 125 253t344.5 89t344.5 -89t125 -253q0 -114 -57.5 -178.5t-152.5 -78.5v-6h220v-133h-430v181q73 11 120 63t47 127q0 83 -57.5 130t-159.5 47t-159.5 -47t-57.5 -130q0 -75 47.5 -127t119.5 -63v-181
h-429z" />
    <glyph glyph-name="partialdiff" unicode="&#x2202;" horiz-adv-x="822" 
d="M376 748q410 0 410 -387q0 -106 -27 -180.5t-79.5 -119t-124 -64.5t-166.5 -20q-71 0 -133 14t-112 42.5t-79 76.5t-29 110q0 60 20 106.5t52.5 75t78 46.5t90 25t93.5 7q101 0 164 -34q-8 41 -25.5 69t-43 42t-52 19.5t-59.5 5.5q-113 0 -211 -56l-65 153q117 69 298 69
zM387 135q76 0 110 37t42 116q-41 34 -118 34q-65 0 -107.5 -24.5t-42.5 -75.5q0 -43 32.5 -65t83.5 -22z" />
    <glyph glyph-name="emptyset" unicode="&#x2205;" horiz-adv-x="850" 
d="M676 622q114 -109 114 -265q0 -151 -107 -258t-258 -107q-101 0 -186 51l-38 -51h-102l75 100q-114 107 -114 265q0 151 107 258t258 107q99 0 187 -51l38 51h102zM153 357q0 -114 75 -195l332 440q-62 37 -135 37q-113 0 -192.5 -82.5t-79.5 -199.5zM425 75
q113 0 192.5 82.5t79.5 199.5q0 112 -74 194l-332 -440q61 -36 134 -36z" />
    <glyph glyph-name="uni2206" unicode="&#x2206;" horiz-adv-x="992" 
d="M654 714l334 -714h-984l334 714h316zM313 159h363l-177 401h-6z" />
    <glyph glyph-name="product" unicode="&#x220f;" horiz-adv-x="931" 
d="M878 -148h-230v667h-365v-667h-231v862h826v-862z" />
    <glyph glyph-name="summation" unicode="&#x2211;" horiz-adv-x="825" 
d="M787 42v-190h-735v165l287 267l-270 267v163h700v-190h-365l227 -227l-273 -255h429z" />
    <glyph glyph-name="minus" unicode="&#x2212;" horiz-adv-x="650" 
d="M589 396v-140h-528v140h528z" />
    <glyph glyph-name="uni2219" unicode="&#x2219;" horiz-adv-x="361" 
d="M180.5 200q-49.5 0 -84.5 35.5t-35 85t35 84.5t84.5 35t84.5 -35t35 -84.5t-35 -85t-84.5 -35.5z" />
    <glyph glyph-name="radical" unicode="&#x221a;" horiz-adv-x="700" 
d="M673 700l-263 -848h-151l-125 336l-76 -32l-30 60l194 80l121 -324h2l226 728h102z" />
    <glyph glyph-name="infinity" unicode="&#x221e;" horiz-adv-x="850" 
d="M600 498q83 0 136 -58.5t53 -132.5q0 -79 -52.5 -137t-136.5 -58q-102 0 -182 94q-85 -94 -172 -94q-55 0 -98 28t-65 72t-22 95q0 74 51.5 132.5t133.5 58.5q102 0 181 -94q38 43 79.5 68.5t93.5 25.5zM248 214q18 0 33.5 5t29 16t24.5 24.5t25 34.5q-32 56 -56 79.5
t-56 23.5q-25 0 -42.5 -12.5t-25.5 -32.5t-8 -45q0 -40 20 -66.5t56 -26.5zM598 214q24 0 42 13t26.5 33.5t8.5 46.5q0 39 -19.5 64.5t-57.5 25.5q-36 0 -61 -19.5t-51 -60.5q30 -55 54 -79t58 -24z" />
    <glyph glyph-name="integral" unicode="&#x222b;" horiz-adv-x="550" 
d="M426 753q27 0 50 -1.5t37.5 -3t17.5 -2.5v-144q-41 3 -55 3q-38 0 -56.5 -6t-25 -19t-6.5 -39v-551q0 -99 -65.5 -137t-198.5 -38q-27 0 -50 1.5t-37.5 3.5t-17.5 2v144q41 -3 55 -3q56 0 72 12.5t16 52.5v550q0 99 65.5 137t198.5 38z" />
    <glyph glyph-name="approxequal" unicode="&#x2248;" horiz-adv-x="650" 
d="M464 447q26 0 55 20.5t70 65.5v-147q-61 -69 -125 -69q-47 0 -109 31l-72 36q-1 0 -10 4.5l-12 6t-12 5.5t-14.5 5.5t-14.5 4t-17.5 3.5t-16.5 1q-26 0 -55 -20.5t-70 -64.5v147q61 68 125 68q47 0 109 -31l72 -36q1 0 9.5 -4.5t12 -6t12 -5.5t14.5 -5.5t14.5 -4t17 -3.5
t17.5 -1zM464 235q17 0 36.5 9.5t40.5 28t48 48.5v-147q-61 -70 -125 -70q-47 0 -109 32l-72 36q-2 1 -8 3.5t-9 4l-9 4.5t-10 4.5t-10.5 4t-12 4t-12 2.5l-13 2t-13.5 1q-26 0 -55 -20.5t-70 -64.5v147q61 68 125 68q47 0 109 -31l72 -36q1 0 10 -4.5l12 -6t12 -5.5
t14.5 -5.5t14 -4t17 -3.5t17.5 -1z" />
    <glyph glyph-name="notequal" unicode="&#x2260;" horiz-adv-x="650" 
d="M589 366h-167l-54 -82h221v-141h-311l-57 -88h-141l57 88h-76v141h167l53 82h-220v141h311l56 88h141l-57 -88h77v-141z" />
    <glyph glyph-name="lessequal" unicode="&#x2264;" horiz-adv-x="650" 
d="M62 430l526 162v-127l-297 -90v-6l297 -89v-128l-526 162v116zM589 120v-120h-528v120h528z" />
    <glyph glyph-name="greaterequal" unicode="&#x2265;" horiz-adv-x="650" 
d="M588 430v-116l-526 -162v128l297 89v6l-297 90v127zM61 120h528v-120h-528v120z" />
    <glyph glyph-name="lozenge" unicode="&#x25ca;" horiz-adv-x="767" 
d="M447 746l268 -388l-268 -388h-127l-268 388l268 388h127zM385 71l189 287l-189 288l-191 -288z" />
    <glyph glyph-name="i.loclTRK" horiz-adv-x="318" 
d="M44 604v124h230v-124h-230zM46 0v540h226v-540h-226z" />
    <glyph glyph-name="N_T" horiz-adv-x="1669" 
d="M1649 714v-182h-270v-532h-230v532h-271v-532h-264l-336 439h-6v-439h-220v714h272l329 -430h6v430h990z" />
    <glyph glyph-name="N_T_U" horiz-adv-x="2522" 
d="M2240 714h230v-404q0 -77 -19.5 -135.5t-53.5 -95.5t-86 -60t-112.5 -32t-139 -9t-139 9t-113 32t-86.5 60t-53 95.5t-19 135.5v222h-270v-532h-230v532h-271v-532h-264l-336 439h-6v-439h-220v714h272l329 -430h6v430h1220v-404q0 -83 45.5 -115.5t134.5 -32.5
q44 0 75.5 7t56 23t37 45.5t12.5 72.5v404z" />
    <glyph glyph-name="N_T_Y" horiz-adv-x="2417" 
d="M2154 714h272l-338 -476v-238h-232v238l-208 294h-269v-532h-230v532h-271v-532h-264l-336 439h-6v-439h-220v714h272l329 -430h6v430h1131l182 -280z" />
    <glyph glyph-name="T_T" horiz-adv-x="1412" 
d="M1392 714v-182h-270v-532h-230v532h-371v-532h-230v532h-271v182h1372z" />
    <glyph glyph-name="T_T_U" horiz-adv-x="2265" 
d="M1982 714h230v-404q0 -77 -19 -135.5t-53 -95.5t-86.5 -60t-113 -32t-138.5 -9t-138.5 9t-113 32t-86.5 60t-53 95.5t-19 135.5v222h-270v-532h-230v532h-371v-532h-230v532h-271v182h1602v-404q0 -83 45.5 -115.5t134.5 -32.5t134.5 32.5t45.5 115.5v404z" />
    <glyph glyph-name="T_T_Y" horiz-adv-x="2159" 
d="M1897 714h272l-338 -476v-238h-232v238l-209 294h-268v-532h-230v532h-371v-532h-230v532h-271v182h1513l182 -280z" />
    <glyph glyph-name="T_U" horiz-adv-x="1664" 
d="M1382 714h230v-404q0 -77 -19.5 -135.5t-53.5 -95.5t-86 -60t-112.5 -32t-139 -9t-139 9t-113 32t-86.5 60t-53 95.5t-19 135.5v222h-270v-532h-230v532h-271v182h1001v-404q0 -83 45.5 -115.5t134.5 -32.5t135 32.5t46 115.5v404z" />
    <glyph glyph-name="T_V" horiz-adv-x="1615" 
d="M1355 714h267l-322 -714h-270l-239 532h-270v-532h-230v532h-271v182h956l186 -464h6z" />
    <glyph glyph-name="T_W" horiz-adv-x="1935" 
d="M1688 714h252l-209 -714h-283l-105 438h-6l-105 -438h-288l-153 532h-270v-532h-230v532h-271v182h972l107 -445h6l107 445h255l107 -445h6z" />
    <glyph glyph-name="T_Y" horiz-adv-x="1559" 
d="M1296 714h272l-338 -476v-238h-232v238l-208 294h-269v-532h-230v532h-271v182h912l182 -280z" />
    <glyph glyph-name="T_h" horiz-adv-x="1542" 
d="M1255 554q110 0 175.5 -53t65.5 -158v-343h-226v274q0 104 -113 104q-26 0 -49.5 -6.5t-44.5 -20.5t-33.5 -42t-12.5 -66v-243h-226v532h-270v-532h-230v532h-271v182h771v10h226v-251h6q87 81 232 81z" />
    <glyph glyph-name="T_i" horiz-adv-x="1065" 
d="M1019 604h-228v-64h226v-540h-226v532h-270v-532h-230v532h-271v182h769v14h230v-124z" />
    <glyph glyph-name="U_T" horiz-adv-x="1664" 
d="M1644 714v-182h-270v-532h-230v532h-271v-222q0 -65 -12.5 -116t-38.5 -87.5t-60.5 -61.5t-82 -40t-99.5 -21t-117 -6q-78 0 -138.5 9t-113 32t-86.5 60t-53.5 95.5t-19.5 135.5v404h230v-404q0 -83 46 -115.5t135 -32.5t134.5 32.5t45.5 115.5v404h1001z" />
    <glyph glyph-name="U_T_T" horiz-adv-x="2265" 
d="M2245 714v-182h-271v-532h-230v532h-370v-532h-230v532h-271v-222q0 -65 -12.5 -116t-38.5 -87.5t-60.5 -61.5t-82 -40t-99.5 -21t-117 -6q-78 0 -138.5 9t-113 32t-86.5 60t-53.5 95.5t-19.5 135.5v404h230v-404q0 -83 46 -115.5t135 -32.5t134.5 32.5t45.5 115.5v404
h1602z" />
    <glyph glyph-name="U_T_U" horiz-adv-x="2517" 
d="M2234 714h230v-404q0 -77 -19 -135.5t-53 -95.5t-86.5 -60t-113 -32t-138.5 -9t-138.5 9t-113 32t-86.5 60t-53 95.5t-19 135.5v222h-270v-532h-230v532h-271v-222q0 -65 -12.5 -116t-38.5 -87.5t-60.5 -61.5t-82 -40t-99.5 -21t-117 -6q-78 0 -138.5 9t-113 32t-86.5 60
t-53.5 95.5t-19.5 135.5v404h230v-404q0 -83 46 -115.5t135 -32.5t134.5 32.5t45.5 115.5v404h1231v-404q0 -83 45.5 -115.5t134.5 -32.5t134.5 32.5t45.5 115.5v404z" />
    <glyph glyph-name="U_T_Y" horiz-adv-x="2411" 
d="M2149 714h272l-338 -476v-238h-232v238l-209 294h-268v-532h-230v532h-271v-222q0 -65 -12.5 -116t-38.5 -87.5t-60.5 -61.5t-82 -40t-99.5 -21t-117 -6q-78 0 -138.5 9t-113 32t-86.5 60t-53.5 95.5t-19.5 135.5v404h230v-404q0 -83 46 -115.5t135 -32.5t134.5 32.5
t45.5 115.5v404h1142l182 -280z" />
    <glyph glyph-name="V_T" horiz-adv-x="1615" 
d="M1595 714v-182h-271v-532h-230v532h-270l-239 -532h-270l-322 714h267l186 -464h6l187 464h956z" />
    <glyph glyph-name="W_T" horiz-adv-x="1934" 
d="M1914 714v-182h-270v-532h-230v532h-270l-156 -532h-283l-105 438h-6l-105 -438h-288l-206 714h254l107 -445h6l107 445h255l108 -445h6l107 445h969z" />
    <glyph glyph-name="Y_T" horiz-adv-x="1559" 
d="M1539 714v-182h-271v-532h-230v532h-269l-209 -294v-238h-231v238l-339 476h273l182 -280l181 280h913z" />
    <glyph glyph-name="Y_T_T" horiz-adv-x="2160" 
d="M2140 714v-182h-271v-532h-230v532h-371v-532h-230v532h-269l-209 -294v-238h-231v238l-339 476h273l182 -280l181 280h1514z" />
    <glyph glyph-name="f_i" horiz-adv-x="797" 
d="M420 605q-41 0 -61.5 -5.5t-27.5 -19.5t-3 -40h139v-130h-139v-410h-226v410h-89v130h89v38q0 99 66 137t203 38q27 0 51 -1.5t38.5 -3t18.5 -2.5v-144q-44 3 -59 3zM523 604v124h230v-124h-230zM525 0v540h226v-540h-226z" />
    <glyph glyph-name="f_l" horiz-adv-x="812" 
d="M420 605q-41 0 -61.5 -5.5t-27.5 -19.5t-3 -40h139v-130h-139v-410h-226v410h-89v130h89v38q0 99 66 137t203 38q27 0 51 -1.5t38.5 -3t18.5 -2.5v-144q-44 3 -59 3zM540 0v724h226v-724h-226z" />
    <glyph glyph-name="f_t" horiz-adv-x="937" 
d="M906 410h-140v-200q0 -24 16.5 -33t50.5 -9q45 0 73 2v-170q-77 -9 -133 -9q-90 0 -140 17.5t-71.5 54.5t-21.5 104v243h-212v-410h-226v410h-89v130h89v38q0 99 66 137t203 38q27 0 51 -1.5t38.5 -3t18.5 -2.5v-144q-44 3 -59 3q-41 0 -61.5 -5.5t-27.5 -19.5t-3 -40
h212v146h226v-146h140v-130z" />
    <glyph glyph-name="caroncomb.alt" horiz-adv-x="0" 
d="M-52 724v-87q0 -63 -19 -101.5t-60 -57.5t-109 -19v67q34 1 53 8t26.5 21t7.5 38h-87v131h188z" />
    <glyph glyph-name="uni0326.case" horiz-adv-x="0" 
d="M-52 -61v-93q0 -28 -2.5 -44.5t-10 -34.5t-22.5 -27.5t-40.5 -17.5t-63.5 -11.5t-91 -3.5v58q28 0 47.5 3t29.5 7t16 11t7 13t1 16h-101v124h230z" />
    <glyph glyph-name="caron.alt" horiz-adv-x="330" 
d="M277 724v-128q0 -119 -52.5 -169t-172.5 -50v70q55 0 78.5 29t23.5 74h-102v174h225z" />
    <glyph glyph-name="acute.case" horiz-adv-x="489" 
d="M436 926l-190 -149h-194l81 149h303z" />
    <glyph glyph-name="breve.case" horiz-adv-x="583" 
d="M531 928q-2 -40 -23.5 -72t-56 -51.5t-75.5 -29t-85 -9.5q-59 0 -111 16.5t-89 54.5t-39 91h177q5 -42 62 -42t62 42h178z" />
    <glyph glyph-name="caron.case" horiz-adv-x="682" 
d="M400 926h229l-131 -148h-314l-132 148h230l56 -72h6z" />
    <glyph glyph-name="cedilla.case" horiz-adv-x="462" 
d="M52 -236v82h6q43 -13 69.5 -17.5t67.5 -4.5q59 0 59 29t-59 29q-50 0 -83 -8h-6v49l83 102h101l-60 -75q9 2 24 2q82 0 118.5 -22.5t36.5 -75.5q0 -59 -47.5 -83.5t-158.5 -24.5q-86 0 -151 18z" />
    <glyph glyph-name="circumflex.case" horiz-adv-x="682" 
d="M400 777l-56 71h-6l-56 -71h-230l132 147h314l131 -147h-229z" />
    <glyph glyph-name="dieresis.case" horiz-adv-x="608" 
d="M52 778v124h208v-124h-208zM348 778v124h208v-124h-208z" />
    <glyph glyph-name="dotaccent.case" horiz-adv-x="335" 
d="M52 778v124h230v-124h-230z" />
    <glyph glyph-name="grave.case" horiz-adv-x="489" 
d="M52 926h304l80 -149h-192z" />
    <glyph glyph-name="hungarumlaut.case" horiz-adv-x="706" 
d="M364 926l-131 -149h-181l74 149h238zM653 926l-130 -149h-181l74 149h237z" />
    <glyph glyph-name="macron.case" horiz-adv-x="584" 
d="M532 780h-480v122h480v-122z" />
    <glyph glyph-name="ogonek.case" horiz-adv-x="408" 
d="M296 -132q24 0 60 8v-108q-40 -9 -104 -9q-67 0 -112 13.5t-66.5 38t-21.5 60.5q0 52 60 95t139 51l105 -17q-34 -11 -60 -27.5t-39 -33.5t-13 -33q0 -38 52 -38z" />
    <glyph glyph-name="ring.case" horiz-adv-x="454" 
d="M227 742q-75 0 -125 37.5t-50 99.5t50 99.5t125 37.5t125 -37.5t50 -99.5t-50 -99.5t-125 -37.5zM227 832q24 0 40.5 13t16.5 34q0 14 -8 25t-20.5 16.5t-28.5 5.5q-24 0 -40 -12.5t-16 -34t16 -34.5t40 -13z" />
    <glyph glyph-name="tilde.case" horiz-adv-x="635" 
d="M424 759q-36 0 -105.5 23.5t-86.5 23.5q-18 0 -24.5 -8t-7.5 -28h-148q0 42 14.5 75.5t38 53t50 29.5t53.5 10q38 0 107.5 -23t86.5 -23q19 0 25 7.5t8 28.5h147q0 -42 -14.5 -75.5t-38 -53t-50.5 -30t-55 -10.5z" />
    </font>
</defs>
</svg>
