<svg id="Layer_1" data-name="Layer 1" xmlns="http://www.w3.org/2000/svg" xmlns:xlink="http://www.w3.org/1999/xlink" viewBox="0 0 2030.01287 163.95816"><defs><mask id="mask" x="0" y="4.29129" width="129.34165" height="152.98052" maskUnits="userSpaceOnUse"><g id="mask-2"><polygon id="path-1" points="0.014 4.291 0.014 157.272 129.342 157.272 129.342 4.291 0.014 4.291" style="fill:#fff"/></g></mask></defs><title>relais</title><g id="Page-1"><g id="relais"><g id="Playground"><g id="menu_desktop-copy-6" data-name="menu desktop-copy-6"><g id="Page-1-2" data-name="Page-1"><path id="Fill-1" d="M580.32217,151.39263c-16.32889,0-30.31178-6.34046-34.98828-13.34666-4.75418-7.14887-3.99287-17.86423-5.95049-17.86423h-3.72875V155.8785c20.39947,4.9614,45.13362,7.92557,64.52323-1.01447,12.64672-5.97589,39.83567-31.52792,23.81752-63.27774-15.11709-30.0379-73.31694-11.55548-73.31694-52.54652,0-26.408,31.83436-30.14886,49.03332-23.25362,10.37836,4.581,9.16653,15.70848,11.901,21.30393.83895,2.01309,1.84885,1.85458,3.63551,1.94969,1.94209-9.907,3.04516-19.29083,4.5833-29.84769-24.57879-9.58994-62.8142-11.27016-77.88464,15.51826-5.329,10.36664-8.57617,23.49139-4.35023,35.60165,13.08176,32.685,59.11651,20.9552,71.12626,44.70021,9.25977,18.35561-3.7909,46.38043-28.40078,46.38043"/><g id="Group-5"><g id="Fill-3-Clipped"><g style="mask:url(#mask)"><path id="Fill-3" d="M50.80446,153.43583c-7.76826-1.39489-16.40658-1.94969-16.40658-8.38525,0,0,.03107-123.16333,0-126.77739-.03107-3.66161,34.92613-7.52929,46.29888,4.51758,9.07333,9.62164,8.43634,23.52309,1.911,34.46037C76.62618,67.30076,61.54021,74.83,42.943,75.70186c20.39947,29.43556,33.01513,47.33149,59.20973,81.57h27.18894V153.103l-5.06491-1.71193C109.09754,140.70737,86.13454,106.992,66.108,80.67912c0,0,20.92772-6.499,30.96431-17.95934,12.81765-14.694,10.44056-32.28877,5.935-39.99242C84.006-9.68821,37.87807,11.71082,0,6.13122v4.1847c5.74852.77671,16.31336,1.3949,16.54641,8.09993V145.05058c0,6.43556-10.5027,7.18056-16.48426,7.86216v4.35907H50.80446v-3.836Z"/></g></g></g><path id="Fill-6" d="M204.47166,18.1131c10.61145,2.1399,12.04082,8.11578,12.04082,14.64645h4.58328V8.856c0-2.1399-2.45478-2.94831-2.45478-2.94831-30.26516-.20606-59.98655,2.69469-90.06528.09511v4.40662c4.86293.61819,16.2046.95107,16.2046,7.48174V145.049c0,3.70917-5.62422,8.05238-10.68913,7.86217v4.35907c27.15785-.95107,59.334-1.88629,86.04132,1.09373,9.21316.6182,6.78947-16.10476,7.25557-30.95727H223.4107c-1.67795,8.35355-1.95762,13.9173-12.02529,16.7388-10.09873,2.6947-35.43883,3.34459-48.31862-.98277V84.11722H204.829c5.70191,0,7.51969,8.02067,8.84029,12.25293h3.54232s-1.24293-11.34942-1.24293-18.102c0-6.87939,1.24293-19.481,1.24293-19.481H213.6693c-1.32061,3.93108-3.13838,12.72846-8.84029,12.72846H163.16V18.1131s30.68465-2.0765,41.31164,0"/><path id="Fill-8" d="M516.70472,10.4348V6.13915H465.80706V10.4348c6.29229,1.01447,15.03934,0,16.48424,7.989V145.04265c-1.4449,7.92557-10.192,6.94279-16.48424,7.86217v4.48587h50.89766v-4.48587c-6.32338-.91938-15.03938.0634-16.49981-7.86217V18.42378c1.46043-7.989,10.17643-6.9745,16.49981-7.989"/><path id="Fill-10" d="M361.53516,78.57726c7.10018-15.29635,13.28373-28.70641,22.03078-46.47553,5.79514,14.28187,11.13971,28.76981,17.27664,46.47553Zm58.16876,75.071v3.62992h39.41619v-3.86769a11.34043,11.34043,0,0,1-9.88125-6.4831c-6.92926-14.5989-37.847-92.22192-59.52045-146.9242L324.57373,129.15823c-5.57764,9.11441-8.76262,15.88284-17.47861,16.10476,0,0-20.30623-.22192-23.14942-.22192-2.85873,0-7.50416,0-7.50416-2.40937V18.42219c0-6.72088,9.66373-7.18056,16.77945-8.05238V6.13756H246.658v4.67609c3.91521.61819,12.04082,2.15575,12.04082,7.60854V145.04107c-1.42936,4.9614-5.34457,6.45142-12.00975,8.05238V157.405l91.96075-.1268v-4.18471s-11.31059-.95107-8.3742-8.11578c2.48586-5.94418,13.43912-32.09855,23.81752-53.40248h52.38918l20.80342,54.4011c1.38275,4.02618-3.63555,7.11716-7.58184,7.67194Z"/><path id="Fill-12" d="M742.56089,57.16079C735.15,50.5033,729.69659,23.60393,746.01,18.10358c6.47873-2.83735,15.24131,2.09235,15.97156,7.92557,1.39825,8.3694-2.85875,17.00827-8.09451,21.938l-11.32615,9.19366Zm42.27491,82.204c-8.29652,11.38112-26.70729,9.43143-39.323,6.927-12.14957-3.47141-25.23133-14.12337-30.59139-25.7264-8.56064-20.8918,14.55772-42.03722,14.55772-42.03722,17.47858,19.22743,33.4812,42.4969,55.35667,60.83666ZM776.415,18.57912c-2.65674-8.03653-19.07883-13.58442-23.18047-11.92005-11.62133,4.99311-23.75537,13.90145-30.56041,25.7581-5.39119,11.58718,0,26.78842,4.38129,38.122-10.192,10.36664-22.85424,18.8153-28.15219,32.162-10.14537,27.61267,11.21738,52.94279,33.2482,59.18814,19.42067,6.4197,38.56168-3.21778,53.13493-13.61613,2.952-1.82287,3.91523-2.8215,5.7019-3.70916a210.18969,210.18969,0,0,0,21.48705,12.60166c17.0591,9.33632,27.06465-5.23089,36.89924-10.87388v-2.44108c-16.99692,7.33907-33.4812-4.48588-45.6463-14.39283,7.007-10.23984,12.63116-25.71055,14.12272-41.11785l25.93045,1.01447,1.22736-11.36526H789.20156l-7.31775,9.38387c8.24994-.95107,17.47865,4.47,20.88117,12.887,2.781,10.00207.66807,18.958-4.84742,25.72639C778.559,110.53156,757.911,90.38477,744.503,65.11805c12.61563-13.86975,37.38083-24.79118,31.912-46.53894Z"/><path id="Fill-14" d="M1839.90314,116.78008V18.23356c1.42945-7.92557,7.846-6.92695,14.16937-7.92557V5.94893h-39.22982V10.308c6.30785.99862,12.81771,0,14.2936,7.92557V114.3073c0,25.07649-17.50963,36.18815-45.39763,36.18815-22.46582,0-41.99526-10.87388-41.99526-35.57V18.23356c1.41377-7.92557,7.41092-6.92695,13.70324-7.92557V5.94893h-45.38225V10.308c6.30785.99862,13.2837,0,14.7442,7.92557v99.45c0,20.46382,9.46163,42.71881,55.21684,42.71881,46.15894,0,59.87771-22.572,59.87771-43.62232"/><path id="Fill-16" d="M1257.93563,78.66919c7.11574-15.328,13.29937-28.78566,22.04642-46.50723,5.77961,14.31358,11.13967,28.80151,17.2921,46.50723Zm57.48523,75.071v3.62992h40.20852v-3.836c-4.10157-.317-7.42645-1.88629-9.92776-6.51481C1338.78775,132.49965,1307.839,54.734,1286.22764,0l-65.12907,129.34528c-5.966,10.03376-9.99,23.317-18.706,23.60234-6.97592,0-15.02385.01585-16.48428-7.878V18.32391c1.46043-7.92557,10.17643-6.92695,16.48428-7.92557V6.071h-50.92872v4.32736c6.32331.99862,15.086,0,16.56192,7.92557v51.643h-85.24894v-51.643c1.46043-7.92557,10.192-6.92695,16.46868-7.92557V6.071h-50.88213v4.32736c6.29232.99862,15.02385,0,16.48428,7.92557V145.0696c-1.46043,7.89387-10.192,6.8794-16.48428,7.878v4.42247h50.88213v-4.42247c-6.27672-.99862-15.00825.01585-16.46868-7.878V80.714h85.24894V145.0696c-1.476,7.89387-10.23861,6.8794-16.56192,7.878v4.42247h83.67974v-4.153s-11.2951-.91938-8.35871-8.11579c2.43935-5.88077,13.377-32.13025,23.78643-53.49759h52.46693l19.96451,54.4962c1.4293,3.99449-3.62006,7.11718-7.58187,7.64025Z"/><path id="Fill-18" d="M1638.0805,32.1683c5.71735,14.29772,11.10862,28.78566,17.261,46.50723h-39.323c7.10021-15.328,13.29937-28.80151,22.06195-46.50723Zm-44.9627,121.05513s-11.2951-.93522-8.34318-8.11578c2.48579-5.88077,13.43912-32.13025,23.81748-53.49759H1661.059l20.0732,54.48036c1.39825,3.99449-3.68217,7.133-7.58187,7.6561v3.61405h40.06877v-3.836c-4.07066-.30118-7.41092-1.88629-9.92791-6.499-6.91373-14.51964-37.8159-92.28531-59.45831-147.01929l-65.11355,129.34528c-5.63986,9.03515-8.09459,14.8208-17.55636,16.04135-13.26817,1.63266-48.47392,2.25086-61.36927-2.0765V84.20758H1541.987c5.67091,0,7.51976,8.02067,8.85589,12.26878h3.51121s-1.243-11.36526-1.243-18.18126,1.243-19.40179,1.243-19.40179h-3.51121c-1.33613,3.96278-3.185,12.68091-8.85589,12.68091h-41.638V18.23515s30.62252-2.20331,41.29621,0c10.5959,2.0448,12.0252,8.05238,12.0252,14.583h4.56784V8.97808c0-2.17161-2.45487-3.02757-2.45487-3.02757-30.28061-.12681-60.0176,2.69469-90.0341.0634v4.45417c4.86288.58649,16.189.98277,16.189,7.49759V145.20275c0,3.64577-5.62418,8.02067-10.75132,7.83046v4.32736c27.22-1.01447,58.29313-1.04616,86.088,0h35.84283v-4.13714Z"/><path id="Fill-20" d="M1018.68239,16.03818c11.17073,3.5031,3.822,19.38594,13.53229,22.84149,1.80226.77671,2.39262,0,2.39262,0l.5749-29.72088C993.4044-2.22233,939.05764-.71647,913.81078,41.4c-15.98709,27.39077-12.63123,70.2998,8.74705,93.52171,25.24686,28.16747,66.26334,29.75258,101.46909,20.3053,6.37-1.69607,8.24994-6.46727,9.21318-11.33356-18.3176,5.61131-34.41346,10.93729-56.80157,6.91109-23.42907-4.32736-41.62237-24.49-48.5517-45.572-8.716-25.7898-5.51541-57.88836,13.11289-78.27292,20.38391-19.78222,52.40468-19.30668,77.68266-10.92143"/><path id="Fill-22" d="M1407.03519,145.07753V17.74535s6.83595-1.09373,36.66611,0c6.88268.428,10.84449,3.96278,12.64676,11.27016h3.82207l-.96332-24.28394c-19.63813,1.4266-40.395,1.98139-60.8255,1.98139-20.38391,0-41.14078-.55479-60.77891-1.98139l-.96332,24.28394h3.82206c1.84885-7.30737,5.76394-10.84218,12.63108-11.27016,29.83016-1.09373,36.69731,0,36.69731,0V145.07753c-1.44483,7.89387-10.22294,6.87938-16.49973,7.86217v4.42247h50.2296v-4.42247c-6.32338-.98278-15.02385.03171-16.4842-7.86217"/><path id="Fill-24" d="M1975.45474,151.20716c-21.54909-33.84218-29.73685-47.15713-46.09683-76.22811,14.55772-21.96968,26.36553-40.89593,43.19149-63.89594,1.38272-2.663,9.88132.15851,6.27679-5.10407h-18.48848c-12.771,20.8918-24.65643,40.80082-38.21992,58.36389-8.49846-14.583-15.33455-31.3694-25.58869-47.87043-5.79514-9.162-18.11552-14.39283-33.93173-10.30324l-.74578,4.20055c4.69207.47553,8.00127.87181,15.00832,9.54238,9.69484,12.93453,22.51241,37.32943,35.4854,61.51827-17.27657,26.93107-34.50655,50.54927-53.38352,77.21089h13.12842c15.67631-23.317,29.62815-45.366,45.61531-66.35287,15.0237,21.27223,26.2101,43.59062,40.27063,65.82977h24.28361c2.29945-6.071-3.16945-2.07651-6.805-6.9111"/><path id="Fill-26" d="M1995.11783,139.56609a16.41718,16.41718,0,1,1,16.42209,16.723,16.62649,16.62649,0,0,1-16.42209-16.723m-2.06638,0a18.48427,18.48427,0,1,0,18.48848-18.847,18.672,18.672,0,0,0-18.48848,18.847"/><path id="Fill-28" d="M2006.27,141.73294h7.069c3.4803,0,3.83759,2.0765,3.83759,3.89938a27.21423,27.21423,0,0,0,.51271,5.51619h3.58886V150.673c-.91659-.52309-1.072-.98278-1.08754-2.21916l-.18633-3.99449c-.1399-3.05927-1.35166-3.62991-2.5791-4.1213a5.41126,5.41126,0,0,0,3.014-5.26258c0-4.67609-3.5578-5.91248-7.10021-5.91248h-9.98987v21.98552H2006.27v-9.41557Zm0-10.03377h7.271c1.42945,0,3.88418.28532,3.88418,3.66161,0,3.24948-2.26839,3.80427-4.39689,3.80427H2006.27v-7.46588Z"/></g></g></g></g></g></svg>