<?xml version="1.0" encoding="UTF-8" standalone="no"?>
<svg width="195px" height="195px" viewBox="0 0 195 195" version="1.1" xmlns="http://www.w3.org/2000/svg" xmlns:xlink="http://www.w3.org/1999/xlink">
    <!-- Generator: Sketch 40.3 (33839) - http://www.bohemiancoding.com/sketch -->
    <title>socialicon_twitter</title>
    <desc>Created with Sketch.</desc>
    <defs>
        <circle id="path-1" cx="97.5" cy="97.5" r="97.5"></circle>
        <mask id="mask-2" maskContentUnits="userSpaceOnUse" maskUnits="objectBoundingBox" x="0" y="0" width="195" height="195" fill="white">
            <use xlink:href="#path-1"></use>
        </mask>
    </defs>
    <g id="Page-1" stroke="none" stroke-width="1" fill="none" fill-rule="evenodd">
        <g id="socialicon_twitter">
            <use id="Oval-Copy" stroke="#000000" mask="url(#mask-2)" stroke-width="22" xlink:href="#path-1"></use>
            <path d="M148.821534,80.1905945 C148.821534,79.1741009 148.821534,78.1621861 148.752852,77.15485 C153.349195,73.830233 157.316836,69.7137477 160.470001,64.9981359 C156.183691,66.8974303 151.636714,68.142987 146.980856,68.6932276 C151.883579,65.7581346 155.552936,61.1417422 157.30605,55.7031718 C152.69592,58.4388002 147.652319,60.3667347 142.392899,61.4037779 C135.112986,53.6628323 123.545273,51.7682087 114.176269,56.7823031 C104.807265,61.7963975 99.9669965,72.472229 102.369607,82.8234045 C83.4861586,81.8767355 65.8924859,72.9575706 53.9671121,58.285615 C47.7336379,69.0166956 50.9175758,82.7449215 61.2382466,89.636659 C57.5007607,89.5258866 53.8447637,88.5176606 50.5788,86.6970693 L50.5788,86.9946914 C50.5818593,98.1742574 58.4623558,107.803209 69.4205622,110.016898 C65.9629711,110.959856 62.3352382,111.097698 58.8160613,110.419832 C61.8927765,119.986882 70.7098359,126.540798 80.7576712,126.729518 C72.4413571,133.265444 62.1680155,136.813536 51.5907149,136.802878 C49.7221229,136.799291 47.8553484,136.686153 46,136.464047 C56.740198,143.356407 69.2370137,147.012306 81.998526,146.995287 C125.194926,147.013602 148.821534,111.225701 148.821534,80.1905945 Z" id="Shape" fill="#000000"></path>
        </g>
    </g>
</svg>